{"glyphs":{"0":{"ha":1047,"x_min":64,"x_max":983,"o":"m 314 710 l 314 307 l 606 638 q 614 690 626 661 q 569 721 601 721 l 325 721 q 314 710 314 721 m 732 661 l 440 332 q 432 279 419 308 q 476 250 444 250 l 725 250 l 725 251 l 729 251 l 729 253 l 731 253 l 731 258 l 732 258 l 732 661 m 982 756 l 982 215 q 913 63 978 125 q 757 0 847 0 l 289 0 q 130 66 196 0 q 64 225 64 132 l 64 746 q 131 904 64 838 q 289 971 197 971 l 757 971 q 867 942 817 971 q 949 864 918 914 q 982 756 979 814 z "},"1":{"ha":439,"x_min":57,"x_max":372,"o":"m 57 971 l 371 971 l 371 0 l 121 0 l 121 536 q 169 652 121 604 q 285 700 217 700 q 294 710 294 700 q 285 721 294 721 l 57 721 l 57 971 z "},"2":{"ha":1043,"x_min":65,"x_max":983,"o":"m 722 721 l 315 721 l 315 564 l 65 564 l 65 971 l 315 971 l 315 807 q 325 796 315 796 q 335 807 335 796 q 383 922 335 874 q 499 971 432 971 l 743 971 q 886 919 824 967 q 972 796 949 871 q 983 721 983 753 l 983 683 q 951 567 983 619 q 864 485 919 515 q 848 477 858 482 q 833 471 838 472 l 664 406 l 650 400 q 511 374 585 374 l 326 374 q 315 364 315 374 l 315 260 q 326 250 315 250 l 983 250 l 983 0 l 499 0 q 383 48 432 0 q 335 164 335 96 q 325 174 335 174 q 315 164 315 174 l 315 0 l 65 0 l 65 285 q 97 403 65 350 q 185 485 129 456 q 200 492 190 488 q 215 499 210 496 l 397 571 q 538 596 464 596 l 722 596 q 733 607 733 596 l 733 710 q 722 721 733 721 z "},"3":{"ha":1044,"x_min":65,"x_max":983,"o":"m 65 971 l 315 971 l 315 807 q 325 796 315 796 q 335 807 335 796 q 383 922 335 874 q 499 971 432 971 l 743 971 q 886 919 824 967 q 972 796 949 871 q 983 721 983 753 l 983 683 q 939 550 983 606 q 819 494 894 494 q 808 485 808 494 q 819 475 808 475 q 939 419 894 475 q 983 285 983 364 l 983 249 q 972 174 983 215 q 923 86 956 125 q 843 24 890 47 q 743 0 796 1 l 499 0 q 417 22 454 0 q 357 82 379 44 q 335 164 335 119 q 325 174 335 174 q 315 164 315 174 l 315 0 l 65 0 l 65 404 l 315 404 l 315 250 l 722 250 q 733 260 733 250 l 733 364 q 722 374 733 374 l 440 374 l 440 596 l 722 596 q 733 607 733 596 l 733 710 q 722 721 733 721 l 315 721 l 315 564 l 65 564 l 65 971 z "},"4":{"ha":1038,"x_min":54,"x_max":971,"o":"m 721 0 l 721 386 q 711 396 721 396 q 701 386 701 396 q 688 322 701 353 q 653 269 675 292 q 601 235 632 247 q 538 222 571 222 l 54 222 l 54 507 l 54 532 q 92 635 60 589 q 174 706 124 681 q 204 721 189 717 l 343 775 l 404 800 l 425 808 q 432 819 435 811 l 432 971 l 682 971 l 682 792 q 649 675 682 728 q 561 593 617 622 q 531 579 542 583 l 392 525 l 329 500 l 411 532 l 310 493 q 303 479 303 490 q 314 472 306 472 l 721 472 l 721 971 l 971 971 l 971 0 l 721 0 z "},"5":{"ha":1040,"x_min":61,"x_max":981,"o":"m 63 250 l 63 404 l 313 404 l 313 250 l 719 250 q 731 260 731 250 l 731 364 q 719 374 731 374 l 533 374 q 394 400 460 374 l 213 471 q 203 475 208 472 q 192 480 197 478 q 182 485 186 482 q 94 567 126 515 q 63 683 63 619 l 63 971 l 313 971 l 313 807 q 322 796 313 796 q 332 807 332 796 q 381 922 332 874 q 496 971 429 971 l 981 971 l 981 721 l 324 721 q 313 710 313 721 l 313 607 q 324 596 313 596 l 508 596 q 647 571 581 596 l 661 564 l 829 499 q 845 492 835 497 q 861 485 856 488 q 949 403 917 456 q 981 285 981 350 l 981 249 q 969 174 981 215 q 920 86 953 125 q 840 24 888 47 q 740 0 793 1 l 313 0 q 135 73 208 0 q 63 250 63 146 z "},"6":{"ha":1047,"x_min":63,"x_max":983,"o":"m 982 435 l 982 225 q 916 66 982 132 q 757 0 850 0 l 290 0 q 135 63 200 0 q 65 215 69 125 l 64 215 l 64 746 q 131 904 64 838 q 290 971 197 971 l 982 971 l 982 721 l 325 721 q 315 710 315 721 l 315 496 q 325 486 315 486 q 335 496 335 486 q 383 612 335 564 q 499 660 431 660 l 757 660 q 916 594 850 660 q 982 435 982 528 m 321 250 l 722 250 q 732 260 732 250 l 732 400 q 722 410 732 410 l 325 410 q 315 400 315 410 l 315 256 l 318 256 l 318 253 l 319 253 l 319 251 l 321 251 l 321 250 z "},"7":{"ha":1029,"x_min":61,"x_max":981,"o":"m 981 971 l 981 683 q 980 672 981 679 q 979 660 979 664 q 903 514 969 569 l 829 471 l 313 169 l 313 0 l 63 0 l 63 181 q 92 296 63 243 q 178 381 122 349 l 690 681 q 701 704 704 688 q 681 721 696 721 l 610 721 l 313 721 l 313 564 l 63 564 l 63 971 l 313 971 l 313 807 q 322 796 313 796 q 332 807 332 796 q 380 922 332 874 q 496 971 428 971 l 981 971 z "},"8":{"ha":1053,"x_min":61,"x_max":992,"o":"m 826 494 q 817 485 817 494 q 826 475 817 475 q 947 419 903 475 q 990 285 990 364 l 990 249 q 979 174 990 207 q 893 51 956 100 q 751 0 831 3 l 301 0 q 225 15 263 1 q 158 52 188 29 q 107 106 129 75 q 72 174 85 138 q 61 249 61 217 l 61 285 q 106 419 61 364 q 226 475 150 475 q 236 485 236 475 q 226 494 236 494 q 106 550 150 494 q 61 683 61 606 l 61 721 q 72 794 61 753 q 160 918 97 869 q 301 971 222 967 l 751 971 q 894 918 831 967 q 979 794 957 869 q 990 721 990 761 l 990 683 q 947 550 990 606 q 826 494 903 494 m 740 260 l 740 364 q 731 372 740 372 l 322 372 q 311 364 311 372 l 311 260 q 322 250 311 250 l 731 250 q 740 260 740 250 m 740 607 l 740 708 q 731 721 740 721 l 322 721 q 311 708 311 721 l 311 607 q 322 596 311 596 l 731 596 q 740 607 740 596 z "},"9":{"ha":1046,"x_min":64,"x_max":982,"o":"m 64 536 l 64 746 q 130 905 64 839 q 289 971 196 971 l 756 971 q 911 908 846 971 q 981 756 976 846 l 982 756 l 982 225 q 915 66 982 132 q 756 0 849 0 l 64 0 l 64 250 l 721 250 q 731 260 731 250 l 731 475 q 721 485 731 485 q 711 475 711 485 q 663 358 711 407 q 547 310 615 310 l 289 310 q 130 376 196 310 q 64 536 64 442 m 721 721 l 324 721 q 314 710 314 721 l 314 571 q 324 561 314 561 l 721 561 q 731 571 731 561 l 731 714 l 728 714 l 728 717 l 726 717 l 725 719 l 722 719 l 721 721 z "},"\u0000":{"ha":0,"x_min":0,"x_max":0,"o":""},"\n":{"ha":0,"x_min":0,"x_max":0,"o":""},"\r":{"ha":0,"x_min":0,"x_max":0,"o":""}," ":{"ha":435,"x_min":0,"x_max":0,"o":""},"!":{"ha":400,"x_min":58,"x_max":340,"o":"m 293 299 l 107 299 l 74 971 l 326 971 l 293 299 m 281 238 q 323 220 306 238 q 340 179 340 203 l 340 57 q 323 17 340 33 q 281 0 306 0 l 118 0 q 77 17 94 0 q 60 57 60 33 l 60 179 q 77 220 60 203 q 118 238 94 238 l 281 238 z "},"\"":{"ha":554,"x_min":47,"x_max":507,"o":"m 75 663 l 47 974 l 257 974 l 229 663 l 75 663 m 296 974 l 507 974 l 479 663 l 325 663 l 296 974 z "},"#":{"ha":1138,"x_min":42,"x_max":1096,"o":"m 1083 540 l 938 540 l 917 431 l 1064 431 l 1050 368 l 906 368 l 836 0 l 528 0 l 575 250 l 797 250 q 808 260 806 250 q 800 269 808 269 q 715 297 751 269 q 668 368 679 325 l 499 368 l 429 0 l 121 0 l 169 250 l 389 250 q 401 260 400 250 q 394 269 401 269 q 308 297 343 269 q 261 368 272 324 l 42 368 l 54 431 l 260 431 l 260 433 l 281 540 l 75 540 l 86 601 l 292 601 l 313 711 q 311 717 314 714 q 304 721 308 721 l 258 721 l 306 971 l 449 971 q 556 923 517 971 q 582 807 594 875 l 543 601 l 699 601 l 719 711 q 711 721 722 721 l 665 721 l 713 971 l 854 971 q 962 923 922 971 q 989 807 1001 875 l 950 601 l 1094 601 l 1083 540 m 667 433 l 688 540 l 531 540 l 510 431 l 667 431 l 667 433 z "},"$":{"ha":974,"x_min":63,"x_max":911,"o":"m 911 563 l 658 563 l 658 719 l 544 719 l 544 592 q 667 545 593 586 q 767 494 742 504 q 872 413 832 469 q 911 283 911 356 q 897 172 911 213 q 812 50 875 99 q 669 -1 749 1 l 544 -1 l 544 -114 l 429 -114 l 429 14 q 359 74 386 33 q 332 163 332 114 q 322 172 332 172 q 313 163 313 172 l 313 -1 l 63 -1 l 63 404 l 313 404 l 313 249 l 429 249 l 429 389 q 181 485 294 424 q 131 519 153 499 q 94 566 110 540 q 71 622 79 592 q 63 682 63 651 q 74 794 63 760 q 160 917 97 868 q 301 969 222 965 l 429 969 l 429 1082 l 544 1082 l 544 969 l 546 969 q 590 960 572 969 q 618 939 608 951 q 633 902 628 926 q 638 858 638 878 q 639 806 639 839 q 649 794 639 794 q 658 806 658 794 l 658 969 l 911 969 l 911 563 m 658 372 l 544 372 l 544 249 l 658 249 l 658 372 m 429 594 l 429 719 l 313 719 l 313 594 l 429 594 z "},"%":{"ha":1147,"x_min":47,"x_max":1100,"o":"m 675 971 l 792 971 l 471 0 l 357 0 l 675 971 m 535 651 q 525 603 535 626 q 499 565 515 581 q 459 539 482 549 q 411 529 436 529 l 174 529 q 84 565 121 529 q 47 651 47 601 l 47 849 q 83 935 47 899 q 169 971 119 971 l 413 971 q 499 935 464 971 q 535 849 535 899 l 535 651 m 349 724 l 349 776 q 342 782 349 782 l 242 782 q 235 776 235 782 l 235 724 q 242 717 235 717 l 342 717 q 349 724 349 717 m 976 440 q 1063 404 1026 440 q 1099 317 1099 368 l 1099 122 q 1063 35 1099 71 q 975 0 1026 0 l 736 0 q 647 35 683 0 q 611 122 611 71 l 611 317 q 628 378 611 350 q 673 424 644 407 q 735 440 701 440 l 976 440 m 913 194 l 913 246 q 904 253 913 253 l 806 253 q 797 246 797 253 l 797 194 q 806 186 797 186 l 904 186 q 913 194 913 186 z "},"&":{"ha":1044,"x_min":57,"x_max":979,"o":"m 978 722 l 310 722 l 310 604 l 978 604 l 978 368 l 829 368 q 846 285 836 339 q 860 261 849 271 q 888 251 872 251 l 978 251 l 978 1 l 756 1 q 672 31 708 1 q 625 107 635 60 l 614 165 q 606 175 611 175 q 596 165 596 175 q 574 83 596 121 q 514 24 551 46 q 431 0 476 1 l 310 0 q 133 74 207 0 q 60 250 60 147 l 60 313 q 108 428 60 381 q 224 476 157 476 q 233 486 233 476 q 231 493 233 490 l 106 614 q 60 729 57 663 q 136 901 64 831 q 310 972 208 972 l 978 972 l 978 722 m 575 368 l 310 368 l 310 251 l 597 251 l 575 368 z "},"'":{"ha":307,"x_min":47,"x_max":260,"o":"m 47 974 l 260 974 l 231 663 l 76 663 l 47 974 z "},"’":{"ha":307,"x_min":47,"x_max":260,"o":"m 47 974 l 260 974 l 231 663 l 76 663 l 47 974 z "},"(":{"ha":446,"x_min":39,"x_max":431,"o":"m 406 949 q 268 322 263 669 q 426 -297 274 -25 q 426 -310 429 -303 q 415 -315 422 -315 l 257 -315 q 246 -310 250 -315 q 83 95 128 -131 q 75 548 39 321 q 221 960 111 775 q 232 967 225 967 l 394 967 q 404 960 403 967 q 406 949 410 956 z "},")":{"ha":443,"x_min":13,"x_max":404,"o":"m 222 960 q 368 548 332 775 q 360 95 404 321 q 197 -310 315 -131 q 189 -315 196 -315 l 28 -315 q 18 -310 19 -315 q 18 -297 13 -303 q 176 323 171 -25 q 39 949 182 671 q 39 960 36 954 q 50 967 43 967 l 213 967 q 222 960 219 967 z "},"*":{"ha":640,"x_min":47,"x_max":593,"o":"m 592 779 l 433 699 l 590 626 l 522 504 l 379 600 l 390 429 l 251 429 l 265 604 l 118 504 l 50 626 l 207 699 l 49 778 l 118 899 l 267 794 l 251 975 l 390 975 l 379 800 l 522 899 l 592 779 z "},"+":{"ha":599,"x_min":46,"x_max":553,"o":"m 378 565 l 553 565 l 553 413 l 378 413 l 378 235 l 222 235 l 222 413 l 46 413 l 46 565 l 222 565 l 222 742 l 378 742 l 378 565 z "},",":{"ha":372,"x_min":46,"x_max":326,"o":"m 267 236 q 309 219 292 236 q 326 178 326 201 l 326 56 l 326 -1 l 326 -58 q 308 -101 326 -83 q 265 -119 290 -119 l 153 -119 l 153 -26 l 231 -26 q 233 -24 233 -26 l 233 54 q 231 60 233 60 q 228 54 228 60 q 216 20 228 36 q 186 -1 204 4 l 104 -1 q 63 15 79 -1 q 46 56 46 32 l 46 178 q 63 219 46 201 q 104 236 81 236 l 267 236 z "},"-":{"ha":590,"x_min":42,"x_max":549,"o":"m 549 253 l 42 253 l 42 407 l 549 407 l 549 253 z "},".":{"ha":374,"x_min":46,"x_max":328,"o":"m 268 238 q 309 220 292 238 q 326 179 326 203 l 326 57 q 318 28 326 42 q 297 8 310 15 q 268 0 283 0 l 104 0 q 63 17 79 0 q 46 57 46 33 l 46 179 q 63 220 46 203 q 104 238 81 238 l 268 238 z "},"/":{"ha":638,"x_min":31,"x_max":608,"o":"m 357 972 l 607 972 l 281 0 l 31 0 l 357 972 z "},":":{"ha":392,"x_min":56,"x_max":336,"o":"m 278 238 q 319 220 301 238 q 336 179 336 203 l 336 57 q 319 17 336 33 q 278 0 301 0 l 114 0 q 73 17 90 0 q 56 57 56 33 l 56 179 q 73 220 56 203 q 114 238 90 238 l 278 238 m 278 753 q 319 736 301 753 q 336 694 336 719 l 336 574 q 319 532 336 549 q 278 515 303 515 l 114 515 q 85 523 99 515 q 64 544 72 531 q 56 574 56 557 l 56 694 q 73 735 56 718 q 114 753 90 753 l 278 753 z "},";":{"ha":393,"x_min":54,"x_max":338,"o":"m 278 236 q 319 219 301 236 q 336 178 336 201 l 336 56 l 336 -1 l 336 -58 q 318 -101 336 -83 q 275 -119 300 -119 l 163 -119 l 163 -26 l 240 -26 q 243 -24 243 -26 l 243 54 q 240 60 243 60 q 238 54 238 60 q 226 20 238 36 q 196 -1 214 4 l 113 -1 q 72 15 89 -1 q 56 56 56 32 l 56 178 q 72 219 56 201 q 113 236 89 236 l 278 236 m 278 751 q 306 744 293 751 q 328 723 319 736 q 336 693 336 710 l 336 572 q 319 531 336 547 q 278 514 301 514 l 113 514 q 72 531 89 514 q 56 572 56 547 l 56 693 q 72 735 56 718 q 113 751 89 751 l 278 751 z "},"<":{"ha":649,"x_min":46,"x_max":596,"o":"m 283 499 q 275 489 275 496 q 283 479 275 485 l 588 369 q 596 361 596 367 l 596 231 q 589 221 596 228 q 575 221 582 218 l 54 408 q 47 418 47 411 l 47 558 q 54 568 47 567 l 575 757 q 589 757 582 758 q 596 747 596 753 l 596 617 q 588 608 596 611 l 283 499 z "},"=":{"ha":599,"x_min":50,"x_max":549,"o":"m 547 308 l 50 308 l 50 464 l 547 464 l 547 308 m 547 514 l 50 514 l 50 669 l 547 669 l 547 514 z "},">":{"ha":649,"x_min":53,"x_max":601,"o":"m 593 568 q 601 558 601 567 l 601 418 q 593 410 601 411 l 74 221 q 60 221 67 218 q 53 231 53 228 l 53 361 q 61 369 53 367 l 365 479 q 374 489 374 485 q 365 499 374 496 l 61 608 q 53 617 53 611 l 53 747 q 60 757 53 753 q 74 757 67 758 l 593 568 z "},"?":{"ha":843,"x_min":53,"x_max":794,"o":"m 353 238 q 393 220 376 238 q 410 179 410 203 l 410 57 q 402 28 410 42 q 381 8 394 15 q 353 0 368 0 l 188 0 q 147 17 164 0 q 129 57 129 33 l 129 179 q 138 208 129 194 q 159 229 146 221 q 188 238 172 238 l 353 238 m 543 971 q 721 897 647 971 q 794 721 794 824 l 794 660 q 721 483 794 557 q 543 410 647 410 l 360 410 l 360 299 l 179 299 l 179 592 l 543 592 l 543 721 l 304 721 l 304 660 l 53 660 l 53 971 l 304 971 l 304 807 q 314 796 304 796 q 324 807 324 796 q 372 922 324 874 q 488 971 419 971 l 513 971 l 519 971 l 543 971 z "},"@":{"ha":1419,"x_min":40,"x_max":1376,"o":"m 785 971 q 1031 919 917 971 q 1223 782 1146 868 q 1338 577 1300 696 q 1360 328 1375 458 q 1344 230 1353 272 q 1319 141 1336 188 q 1277 65 1301 94 q 1213 17 1253 36 q 1122 -3 1174 -3 q 1060 -4 1114 -3 q 972 -4 1007 -6 q 918 1 938 -3 q 833 60 864 15 q 810 163 803 106 q 800 172 810 172 q 789 163 792 172 q 728 46 782 94 q 606 -3 674 -3 l 418 -3 q 307 46 350 -3 q 272 163 264 94 q 292 328 279 218 q 313 493 306 439 q 344 576 318 538 q 412 636 371 614 q 497 658 453 658 l 683 658 q 791 613 744 658 q 829 493 838 568 q 838 483 829 483 q 847 493 847 483 q 854 542 853 533 q 861 600 854 543 l 1101 658 q 1113 656 1108 660 q 1117 644 1118 651 q 1094 451 1104 528 q 1071 258 1085 374 q 1081 249 1071 249 l 1256 249 q 1272 328 1267 282 q 1253 544 1285 442 q 1154 720 1221 646 q 988 839 1088 794 q 775 883 889 883 q 550 839 660 883 q 356 720 440 794 q 214 544 271 646 q 143 328 157 442 q 185 50 125 178 q 367 -152 246 -78 q 642 -226 489 -226 q 860 -185 754 -226 q 1050 -72 965 -144 l 1169 -72 q 924 -250 1065 -185 q 631 -315 783 -315 q 384 -265 499 -315 q 192 -128 269 -214 q 78 78 115 -42 q 56 328 40 197 q 181 651 76 503 q 447 885 286 799 q 785 971 607 971 m 821 258 l 836 397 q 829 407 839 407 l 563 407 q 551 397 554 407 l 536 258 q 543 249 533 249 l 810 249 q 821 258 818 249 z "},"A":{"ha":1013,"x_min":24,"x_max":1001,"o":"m 581 722 l 435 722 l 424 661 l 393 507 l 640 507 l 608 661 l 600 704 q 594 717 600 711 q 581 722 588 722 m 835 813 l 933 321 l 1000 0 l 740 0 l 694 236 l 690 257 l 531 257 q 422 306 463 258 q 394 421 381 354 q 385 431 394 431 q 376 421 376 431 l 333 208 l 313 107 q 295 64 307 83 q 267 31 283 44 q 228 8 250 17 q 183 0 207 0 l 24 0 l 24 251 l 51 251 q 78 261 67 251 q 92 285 90 271 l 143 539 q 213 658 158 614 q 344 701 267 701 q 354 713 354 701 q 344 722 354 722 l 117 722 l 117 972 l 640 972 q 767 928 713 972 q 835 813 821 883 z "},"B":{"ha":1029,"x_min":47,"x_max":997,"o":"m 160 661 q 268 701 207 701 q 278 713 278 701 q 268 722 278 722 l 49 722 l 49 972 l 729 972 q 897 902 828 972 q 967 733 967 832 l 967 722 q 956 661 964 688 q 932 613 944 632 q 847 527 900 558 q 729 496 793 496 q 719 486 719 496 q 729 476 719 476 l 760 476 q 876 445 822 476 q 964 361 931 414 q 997 239 997 303 q 927 70 997 140 q 760 0 857 0 l 539 0 q 424 49 472 0 q 375 165 375 97 q 364 175 375 175 q 354 165 354 175 q 319 63 354 108 q 228 4 283 18 q 190 0 211 0 l 49 0 l 49 251 l 94 251 q 104 261 104 251 l 104 538 q 160 661 104 611 m 354 251 l 668 251 q 711 269 696 251 q 726 310 726 288 q 711 350 726 332 q 668 368 696 368 l 539 368 q 423 416 471 368 q 375 532 375 464 q 364 542 375 542 q 354 532 354 542 l 354 251 m 354 604 l 668 604 q 721 633 706 604 q 721 692 736 663 q 668 722 706 722 l 354 722 l 354 604 z "},"C":{"ha":1022,"x_min":53,"x_max":971,"o":"m 304 261 q 314 251 304 251 l 971 251 l 971 0 l 303 0 q 126 74 200 0 q 53 250 53 147 l 53 722 q 126 899 53 825 q 303 972 200 972 l 536 972 q 653 924 604 972 q 701 807 701 875 q 711 797 701 797 q 721 807 721 797 l 721 972 l 971 972 l 971 565 l 721 565 l 721 722 l 314 722 q 304 711 304 722 l 304 261 z "},"D":{"ha":1019,"x_min":49,"x_max":967,"o":"m 717 722 l 356 722 l 356 251 l 717 251 l 717 722 m 49 972 l 717 972 q 814 952 768 972 q 894 899 860 932 q 947 819 928 865 q 967 722 967 772 l 967 250 q 893 74 967 147 q 717 0 819 0 l 538 0 q 423 50 471 1 q 375 165 375 99 q 365 175 375 175 q 356 165 356 175 q 310 52 356 100 q 200 1 265 4 l 49 1 l 49 251 l 94 251 q 104 261 104 251 l 104 538 q 153 654 104 606 q 269 703 201 703 q 279 713 279 703 q 269 722 279 722 l 49 722 l 49 972 z "},"E":{"ha":1008,"x_min":49,"x_max":968,"o":"m 967 722 l 365 722 q 356 711 356 722 l 356 615 q 365 604 356 604 l 839 604 l 839 368 l 539 368 q 423 416 471 368 q 375 532 375 464 q 365 542 375 542 q 356 532 356 542 l 356 525 l 356 261 q 365 251 356 251 l 967 251 l 967 0 l 539 0 q 424 49 472 0 q 375 165 375 97 q 365 175 375 175 q 356 165 356 175 q 319 63 356 108 q 229 4 283 18 q 190 0 210 0 l 49 0 l 49 251 l 94 251 q 104 261 104 251 l 104 538 q 153 653 104 606 q 271 701 201 701 q 279 713 279 701 q 271 722 279 722 l 49 722 l 49 972 l 967 972 l 967 722 z "},"F":{"ha":979,"x_min":49,"x_max":968,"o":"m 967 722 l 365 722 q 356 711 357 722 l 356 615 q 365 604 356 604 l 838 604 l 838 368 l 538 368 q 423 416 471 368 q 375 532 375 464 q 365 542 375 542 q 356 532 356 542 l 356 165 q 319 63 356 108 q 228 4 283 18 q 190 0 211 0 l 49 0 l 49 251 l 94 251 q 104 261 104 251 l 104 538 q 126 619 104 582 q 187 679 149 657 q 268 701 225 701 q 279 713 279 701 q 268 722 279 722 l 49 722 l 49 972 l 967 972 l 967 722 z "},"G":{"ha":1031,"x_min":53,"x_max":971,"o":"m 304 711 l 304 261 q 314 251 304 251 l 721 251 l 721 344 q 711 354 721 354 l 421 354 l 421 604 l 807 604 q 843 601 832 604 q 935 542 900 588 q 971 440 971 497 l 971 0 l 721 0 l 721 165 q 711 175 721 175 q 701 165 701 175 q 653 49 701 97 q 538 0 606 1 l 303 0 q 126 74 200 0 q 53 250 53 147 l 53 722 q 126 899 53 825 q 303 972 200 972 l 971 972 l 971 722 l 314 722 q 304 711 304 722 z "},"H":{"ha":1033,"x_min":49,"x_max":967,"o":"m 49 972 q 203 972 100 972 q 356 972 306 972 l 356 440 q 365 431 356 431 q 375 440 375 431 q 423 556 375 508 q 539 604 471 604 l 706 604 q 717 615 717 604 l 717 972 l 967 972 l 967 0 l 717 0 l 717 368 l 365 368 q 356 357 356 368 l 356 165 q 319 63 356 108 q 229 4 283 18 q 190 0 210 0 l 49 0 l 49 251 l 94 251 q 104 261 104 251 l 104 538 q 153 653 104 606 q 269 701 201 701 q 279 713 279 701 q 269 722 279 722 l 49 722 l 49 972 z "},"I":{"ha":383,"x_min":64,"x_max":317,"o":"m 315 0 l 64 0 l 64 538 q 113 653 64 606 q 229 701 161 701 q 239 713 239 701 q 229 722 239 722 l 64 722 l 64 972 l 315 972 l 315 0 z "},"J":{"ha":979,"x_min":56,"x_max":919,"o":"m 919 972 q 919 611 919 851 q 919 251 919 371 q 846 74 919 149 q 669 0 772 0 l 307 0 q 131 74 204 0 q 57 251 57 147 l 57 435 l 307 435 l 307 251 l 669 251 l 669 538 q 725 661 669 614 q 833 701 769 701 q 843 713 843 701 q 833 722 843 722 l 307 722 l 307 565 l 57 565 l 57 972 l 307 972 l 307 807 q 318 797 307 797 q 328 807 328 797 q 376 924 328 875 q 492 972 424 972 q 919 972 633 972 z "},"K":{"ha":1006,"x_min":49,"x_max":968,"o":"m 524 346 q 458 389 506 389 l 365 389 q 356 379 356 389 l 356 165 q 319 63 356 108 q 228 4 283 18 q 190 0 211 0 l 49 0 l 49 251 l 94 251 q 104 261 104 251 l 104 538 q 126 619 104 582 q 187 679 149 657 q 268 701 225 701 q 279 713 279 701 q 268 722 279 722 l 49 722 l 49 972 l 356 972 l 356 606 q 361 599 356 600 q 369 603 367 597 l 415 725 q 553 904 456 836 q 769 972 650 972 l 967 972 l 967 722 l 769 722 q 694 699 729 722 q 661 661 672 681 q 650 639 654 650 l 611 538 q 568 496 599 506 q 563 485 561 493 q 571 476 564 476 l 661 476 q 739 453 704 476 q 790 390 774 431 l 850 251 l 967 251 l 967 0 l 764 0 q 710 10 736 0 q 665 40 685 21 q 635 86 646 60 q 579 216 617 129 q 524 346 542 303 z "},"L":{"ha":939,"x_min":47,"x_max":931,"o":"m 671 251 q 679 261 679 251 l 679 307 l 931 307 l 931 165 q 926 128 931 153 q 869 36 914 72 q 765 0 824 0 l 539 0 q 422 49 471 0 q 374 165 374 97 q 364 175 374 175 q 354 165 354 175 q 306 49 354 97 q 190 0 258 0 l 49 0 l 49 251 l 94 251 q 104 261 104 251 l 104 538 q 152 653 104 606 q 268 701 200 701 q 278 713 278 701 q 268 722 278 722 l 49 722 l 49 972 l 354 972 l 354 267 l 354 251 l 671 251 z "},"M":{"ha":1378,"x_min":47,"x_max":1311,"o":"m 49 972 l 379 972 q 526 919 463 972 q 607 782 590 865 l 694 318 q 708 306 697 306 q 721 318 718 306 l 808 782 q 889 919 825 865 q 1036 972 953 972 l 1311 972 l 1311 0 l 1060 0 l 1060 689 q 1053 694 1060 694 q 1048 694 1050 696 q 1046 690 1046 693 l 938 110 q 913 53 932 78 q 866 14 894 28 q 806 0 838 0 l 610 0 q 524 31 561 0 q 478 110 488 63 l 369 690 q 367 694 369 693 q 363 694 365 696 q 356 689 356 694 l 356 165 q 307 49 356 97 q 190 0 258 0 l 49 0 l 49 251 l 94 251 q 104 261 104 251 l 104 538 q 153 653 104 606 q 269 701 201 701 q 279 712 279 701 q 269 722 279 722 l 49 722 l 49 972 z "},"N":{"ha":1035,"x_min":49,"x_max":968,"o":"m 717 972 l 967 972 l 967 0 l 693 0 q 561 46 618 0 q 488 164 504 92 l 372 661 l 369 674 q 363 679 369 679 q 356 672 356 679 l 356 165 q 307 49 356 97 q 190 0 258 0 l 49 0 l 49 251 l 94 251 q 104 261 104 251 l 104 538 q 153 653 104 606 q 271 701 201 701 q 279 712 279 701 q 271 722 279 722 l 49 722 l 49 972 l 390 972 q 522 926 465 972 q 596 808 579 881 l 629 661 l 703 342 q 710 335 704 335 q 717 343 717 336 l 717 972 z "},"O":{"ha":1085,"x_min":60,"x_max":1025,"o":"m 310 261 q 319 251 310 251 l 763 251 q 772 261 772 251 l 772 711 q 763 721 772 721 l 319 721 q 310 711 310 721 l 310 261 m 1024 165 q 975 49 1024 97 q 858 0 926 0 l 224 0 q 108 49 156 0 q 60 165 60 97 l 60 807 q 108 924 60 875 q 224 972 156 972 l 858 972 q 975 924 926 972 q 1024 807 1024 875 l 1024 165 z "},"P":{"ha":996,"x_min":47,"x_max":967,"o":"m 703 722 l 369 722 q 354 708 354 722 l 354 543 q 369 529 354 529 l 703 529 q 717 543 717 529 l 717 708 q 703 722 717 722 m 104 261 l 104 538 q 152 653 104 606 q 268 701 200 701 l 263 701 q 268 703 264 703 q 278 713 278 703 q 268 722 278 722 l 49 722 l 49 972 l 717 972 q 893 899 819 972 q 967 722 967 825 l 967 528 q 933 402 967 460 q 841 311 899 344 q 717 278 783 278 l 539 279 q 422 327 471 279 q 374 443 374 375 q 364 453 374 453 q 354 443 354 453 l 354 165 q 306 49 354 97 q 190 0 258 0 l 49 0 l 49 251 l 94 251 q 104 261 104 251 z "},"Q":{"ha":1085,"x_min":60,"x_max":1025,"o":"m 860 972 q 976 924 928 972 q 1024 808 1024 875 l 1024 165 q 976 49 1024 97 q 860 0 928 0 l 801 0 q 893 -162 858 -103 l 607 -162 q 514 0 540 -44 l 224 0 q 108 49 156 0 q 60 165 60 97 l 60 808 q 108 924 60 875 q 224 972 156 972 l 860 972 m 774 103 l 774 711 q 764 722 774 722 l 319 722 q 310 711 310 722 l 310 261 q 319 251 310 251 l 553 251 q 713 158 658 251 l 747 97 q 758 90 751 90 q 763 92 761 90 q 774 103 774 93 z "},"R":{"ha":1008,"x_min":49,"x_max":968,"o":"m 458 389 l 354 389 l 354 165 q 306 49 354 97 q 190 0 258 0 l 49 0 l 49 251 l 94 251 q 104 261 104 251 l 104 538 q 126 619 104 582 q 187 679 149 657 q 268 701 225 701 l 263 701 q 268 703 264 703 q 278 713 278 703 q 268 722 278 722 l 49 722 l 49 972 l 729 972 q 898 901 828 972 q 967 731 968 829 q 896 565 965 633 q 729 496 826 496 l 665 496 q 656 486 656 496 q 665 476 656 476 l 672 476 q 742 456 711 476 q 790 399 774 435 q 808 354 797 381 q 826 310 818 328 q 840 275 833 292 q 850 251 847 258 l 967 251 l 967 0 l 764 0 q 686 23 721 0 q 635 86 651 46 q 524 346 614 135 q 458 389 506 389 m 354 711 q 354 660 354 694 q 354 608 354 625 q 365 597 354 597 l 665 597 q 690 603 678 597 q 710 617 701 608 q 723 636 718 625 q 728 660 728 647 l 728 663 q 726 676 728 669 q 722 689 725 683 q 715 699 719 694 q 706 708 711 704 q 695 716 701 713 q 682 721 689 719 q 668 722 675 722 l 365 722 q 354 711 354 722 z "},"S":{"ha":1024,"x_min":51,"x_max":971,"o":"m 721 972 l 971 972 l 971 565 l 721 565 l 721 722 l 314 722 q 303 711 303 722 l 303 608 q 314 597 303 597 l 499 597 q 639 572 572 597 l 821 500 q 836 494 826 499 q 851 486 846 489 q 939 404 907 457 q 971 288 971 351 l 971 250 q 960 175 971 208 q 874 53 936 101 q 732 0 811 4 l 486 0 q 372 50 419 1 q 324 165 324 99 q 314 175 324 175 q 304 165 304 175 l 304 0 l 53 0 l 53 407 l 304 407 l 304 251 l 710 251 q 721 261 721 251 l 721 364 q 710 375 721 375 l 525 375 q 386 401 451 375 l 372 407 l 203 472 q 172 486 183 482 q 85 568 117 515 q 53 685 53 621 l 53 722 q 64 797 53 756 q 151 919 89 871 q 293 972 214 968 l 538 972 q 653 922 604 971 q 701 807 701 874 q 711 797 701 797 q 721 807 721 797 l 721 972 z "},"T":{"ha":967,"x_min":6,"x_max":961,"o":"m 578 0 l 328 0 l 328 538 q 376 653 328 606 q 492 701 424 701 q 501 713 501 701 q 492 722 501 722 l 6 722 l 6 972 l 960 972 l 960 722 l 578 722 l 578 0 z "},"U":{"ha":1121,"x_min":36,"x_max":1057,"o":"m 342 261 q 351 251 342 251 l 794 251 q 804 261 804 251 l 804 972 l 1056 972 l 1056 165 q 1007 49 1056 97 q 890 0 958 0 l 256 0 q 174 22 211 0 q 114 83 136 44 q 92 165 92 121 l 92 711 q 82 721 92 721 l 36 721 l 36 972 l 178 972 q 215 968 196 972 q 306 909 271 954 q 342 807 342 864 l 342 261 z "},"V":{"ha":1013,"x_min":8,"x_max":989,"o":"m 896 0 l 369 0 q 246 44 300 0 q 176 160 192 89 l 10 971 l 271 972 q 411 268 372 458 q 432 251 414 251 l 575 251 q 699 865 658 660 q 744 942 708 913 q 829 972 781 972 l 989 972 l 989 721 l 960 721 q 934 711 946 721 q 919 688 922 701 q 868 435 885 517 q 794 311 853 358 q 668 271 740 271 q 657 261 657 271 q 668 251 657 251 l 896 251 l 896 0 z "},"W":{"ha":1585,"x_min":10,"x_max":1551,"o":"m 765 0 l 369 0 q 244 44 299 0 q 176 160 190 89 l 10 972 l 269 972 l 401 311 q 405 296 403 304 q 408 283 407 288 q 409 274 408 279 q 411 266 410 268 q 414 260 413 264 q 417 256 415 257 q 422 254 419 256 q 427 253 424 253 q 435 252 431 253 q 444 251 439 251 l 569 874 q 613 944 579 917 q 690 972 646 972 l 894 972 q 973 944 939 972 q 1015 874 1007 917 l 1129 311 q 1132 294 1131 304 q 1134 281 1133 285 q 1137 271 1135 276 q 1140 263 1139 265 q 1142 258 1140 261 q 1147 255 1144 256 q 1153 253 1149 254 q 1161 251 1157 251 q 1172 251 1165 251 l 1294 865 q 1341 942 1304 913 q 1425 972 1378 972 l 1551 972 l 1551 724 q 1529 720 1539 726 q 1518 700 1519 714 l 1513 674 l 1464 435 q 1427 349 1454 386 q 1358 292 1400 313 q 1263 271 1315 271 q 1253 261 1253 271 q 1263 251 1253 251 l 1492 251 l 1492 0 l 1097 0 q 971 44 1025 0 q 903 160 917 89 l 801 650 q 790 658 799 658 q 781 650 783 658 l 738 435 q 669 315 722 360 q 538 271 615 271 q 528 261 528 271 q 538 251 528 251 l 765 251 l 765 0 z "},"X":{"ha":1058,"x_min":38,"x_max":1021,"o":"m 38 972 l 300 972 q 365 961 335 972 q 419 928 394 950 q 458 878 443 907 l 618 586 q 624 583 619 583 q 631 588 628 583 l 657 661 l 678 721 l 771 972 l 1021 972 l 1021 722 l 965 722 q 939 703 944 722 l 924 661 l 906 614 q 835 521 885 556 q 724 486 786 486 l 672 486 l 799 251 l 1021 251 l 1021 0 l 758 0 q 665 25 707 0 q 600 94 624 50 l 440 386 q 435 389 438 390 q 428 386 431 389 l 401 311 l 381 251 l 288 0 l 38 0 l 38 251 l 93 251 q 119 269 114 251 l 135 311 l 153 358 q 223 451 174 417 q 333 486 272 486 l 386 486 l 293 661 l 260 722 l 38 722 l 38 972 z "},"Y":{"ha":997,"x_min":4,"x_max":992,"o":"m 624 290 l 624 0 l 372 0 l 372 290 l 157 722 l 6 722 l 6 972 l 200 972 q 292 947 250 972 q 358 878 333 922 l 485 571 q 498 563 488 563 q 511 571 508 563 l 639 878 q 679 928 656 907 q 733 961 703 950 q 796 972 763 972 l 990 972 l 990 722 l 839 722 l 624 290 z "},"Z":{"ha":1018,"x_min":50,"x_max":968,"o":"m 50 972 l 968 972 l 968 685 q 963 635 968 660 q 947 589 957 611 q 922 548 936 567 q 888 513 907 529 q 847 486 869 497 q 817 472 828 476 l 697 425 l 635 401 l 306 271 q 299 260 299 269 q 310 251 301 251 l 968 251 l 968 0 l 50 0 l 50 288 q 64 368 50 329 q 105 437 78 407 q 169 486 132 467 q 200 500 189 496 l 319 547 l 382 572 l 711 701 q 718 713 721 704 q 707 722 715 722 l 50 722 l 50 972 z "},"[":{"ha":543,"x_min":65,"x_max":506,"o":"m 506 967 l 506 715 l 317 715 l 317 -65 l 506 -65 l 506 -315 l 231 -315 q 114 -267 163 -315 q 65 -151 65 -219 l 65 801 q 114 918 65 869 q 231 967 163 967 l 506 967 z "},"\\":{"ha":542,"x_min":29,"x_max":511,"o":"m 182 971 l 511 0 l 356 0 l 29 971 l 182 971 z "},"]":{"ha":542,"x_min":38,"x_max":476,"o":"m 311 967 q 428 918 379 967 q 476 801 476 869 l 476 -151 q 428 -267 476 -219 q 311 -315 379 -315 l 38 -315 l 38 -65 l 224 -65 l 224 715 l 38 715 l 38 967 l 311 967 z "},"^":{"ha":693,"x_min":44,"x_max":640,"o":"m 449 763 q 444 760 446 763 q 442 753 442 757 q 444 749 442 751 q 449 746 447 746 q 556 713 513 746 q 618 608 604 675 q 628 560 625 574 q 638 513 631 547 l 424 513 q 374 763 397 642 l 326 763 q 308 749 311 763 q 294 668 299 694 q 288 636 289 642 q 285 625 286 631 q 280 593 285 619 q 264 513 275 567 l 46 513 l 113 839 q 170 935 125 897 q 275 972 215 972 l 640 972 l 640 763 l 449 763 z "},"_":{"ha":1132,"x_min":67,"x_max":1065,"o":"m 1064 -315 l 67 -315 l 67 -65 l 1064 -65 l 1064 -315 z "},"`":{"ha":401,"x_min":43,"x_max":358,"o":"m 336 792 l 357 693 l 97 692 q 78 792 79 783 q 72 821 74 813 q 69 835 71 829 q 67 851 68 842 q 59 891 65 860 q 43 972 53 922 l 300 972 l 336 792 z "},"a":{"ha":914,"x_min":40,"x_max":876,"o":"m 876 250 l 876 0 l 747 0 q 631 48 679 0 q 583 164 583 96 q 573 174 583 174 q 563 164 563 174 q 515 48 563 96 q 399 0 467 0 l 210 0 q 119 28 160 0 q 60 98 78 57 q 49 188 42 139 q 93 272 56 236 l 218 394 q 219 403 222 397 q 210 410 217 410 l 46 410 l 46 660 l 669 660 q 751 638 714 660 q 811 578 789 615 q 833 496 833 540 l 833 260 q 835 255 833 257 q 838 252 836 253 q 843 251 840 251 q 851 250 846 250 q 859 250 856 250 q 867 250 863 250 q 876 250 872 250 m 572 410 l 307 410 q 296 400 296 410 l 296 260 q 307 250 296 250 l 572 250 q 583 260 583 250 l 583 400 q 572 410 583 410 z "},"b":{"ha":897,"x_min":58,"x_max":847,"o":"m 494 660 l 683 660 q 799 612 751 660 q 847 496 847 564 l 847 164 q 799 48 847 96 q 683 0 751 0 l 494 0 q 378 48 426 0 q 331 164 331 96 q 321 174 331 174 q 311 164 311 174 l 311 0 l 60 0 l 60 908 l 294 968 q 306 964 301 968 q 311 953 311 960 l 311 496 q 321 486 311 486 q 331 496 331 486 q 378 612 331 564 q 494 660 426 660 m 588 410 l 321 410 q 311 400 311 410 l 311 260 q 321 250 311 250 l 588 250 q 597 260 597 250 l 597 400 q 588 410 597 410 z "},"c":{"ha":872,"x_min":67,"x_max":807,"o":"m 556 661 q 806 661 629 660 l 806 410 l 328 410 q 318 400 318 410 l 318 261 q 328 251 318 251 l 806 251 l 806 0 l 232 0 q 115 49 164 0 q 67 165 67 97 l 67 225 q 67 235 67 231 l 67 496 q 115 613 67 564 q 232 661 164 661 l 371 661 q 488 613 439 661 q 536 496 536 564 q 546 486 536 486 q 556 496 556 486 l 556 661 z "},"d":{"ha":924,"x_min":50,"x_max":883,"o":"m 403 660 q 519 612 471 660 q 568 496 568 564 q 578 486 568 486 q 588 496 588 486 l 588 908 l 819 968 q 832 964 829 968 q 838 953 838 960 l 838 260 q 847 250 838 250 l 882 250 l 882 0 l 751 0 q 715 4 733 0 q 623 62 658 17 q 588 164 588 107 q 578 174 588 174 q 568 164 568 174 q 519 48 568 96 q 403 0 471 0 l 215 0 q 99 48 147 0 q 50 164 50 96 l 50 496 q 99 612 50 564 q 215 660 147 660 l 403 660 m 578 410 l 311 410 q 301 400 301 410 l 301 260 q 311 250 301 250 l 578 250 q 588 260 588 250 l 588 400 q 578 410 588 410 z "},"e":{"ha":883,"x_min":50,"x_max":844,"o":"m 203 0 q 94 52 139 4 q 50 164 50 100 l 50 496 q 99 612 50 564 q 215 660 147 660 l 674 660 q 764 633 724 660 q 824 564 804 607 q 834 472 843 519 q 789 389 825 424 l 667 268 q 664 260 664 264 q 674 250 664 250 l 838 250 l 838 0 l 203 0 m 311 250 l 578 250 q 588 260 588 250 l 588 400 q 578 410 588 410 l 311 410 q 301 400 301 410 l 301 260 q 311 250 301 250 z "},"f":{"ha":731,"x_min":31,"x_max":682,"o":"m 682 250 l 682 0 l 288 0 l 288 -249 l 56 -306 q 42 -304 50 -308 q 38 -293 38 -300 l 38 0 l 38 0 l 38 0 l 38 0 l 38 0 l 38 0 l 38 0 l 38 0 l 38 0 l 38 0 l 38 0 l 38 1 l 38 1 l 38 1 l 38 3 l 38 3 l 38 4 l 38 4 l 38 6 l 38 6 l 38 7 l 38 8 l 38 10 l 38 11 l 38 13 l 38 14 l 38 15 l 38 17 l 38 18 l 38 19 l 38 21 l 38 22 l 38 24 l 38 25 l 38 26 l 38 28 l 38 29 l 38 31 l 38 32 l 38 33 l 38 35 l 38 36 l 38 38 l 38 39 l 38 40 l 38 42 l 38 43 l 38 44 l 38 46 l 38 47 l 38 49 l 38 63 q 85 188 38 135 q 203 250 132 242 q 211 260 211 253 q 208 268 211 265 l 85 389 q 41 472 50 424 q 51 564 32 519 q 111 634 71 608 q 201 660 151 660 l 671 660 l 671 410 l 297 410 q 288 400 288 410 l 288 260 q 297 250 288 250 q 682 250 426 250 z "},"g":{"ha":885,"x_min":49,"x_max":838,"o":"m 838 201 q 788 86 836 133 q 674 39 740 39 q 664 29 664 39 q 674 19 664 19 q 750 0 714 19 q 813 -60 789 -21 q 838 -147 838 -100 q 801 -248 838 -203 q 710 -306 765 -293 q 674 -311 690 -311 l 50 -311 l 50 -58 l 578 -58 q 588 -50 588 -58 l 588 0 l 214 0 q 98 49 146 0 q 50 164 50 97 l 50 496 q 99 612 50 564 q 215 660 147 660 l 838 660 l 838 410 l 674 410 q 664 400 664 410 q 674 390 664 390 q 790 342 742 390 q 838 226 838 293 l 838 201 m 588 260 l 588 400 q 578 410 588 410 l 311 410 q 301 400 301 410 l 301 260 q 311 250 301 250 l 578 250 q 588 260 588 250 z "},"h":{"ha":903,"x_min":60,"x_max":847,"o":"m 60 908 l 293 968 q 306 964 301 968 q 310 953 310 960 l 310 496 q 319 486 310 486 q 329 496 329 486 q 378 612 329 564 q 494 660 426 660 l 682 660 q 799 612 750 660 q 847 496 847 564 l 847 0 l 596 0 l 596 400 q 586 410 596 410 l 319 410 q 310 400 310 410 l 310 0 l 60 0 q 60 908 60 303 z "},"i":{"ha":368,"x_min":43,"x_max":324,"o":"m 308 660 l 308 0 l 58 0 l 58 660 l 308 660 m 185 957 q 283 922 242 957 q 324 839 324 888 q 283 754 324 789 q 185 719 242 719 q 85 753 126 719 q 44 839 44 788 q 85 922 44 888 q 185 957 126 957 z "},"j":{"ha":372,"x_min":-53,"x_max":326,"o":"m -53 -58 l 49 -58 q 60 -50 60 -58 l 60 660 l 311 660 l 311 -147 q 275 -248 311 -203 q 183 -306 239 -293 q 146 -311 164 -311 l -53 -311 l -53 -58 m 185 957 q 284 922 243 957 q 325 839 325 888 q 284 754 325 789 q 185 719 243 719 q 131 728 157 719 q 87 753 106 738 q 57 792 68 769 q 46 839 46 814 q 65 898 46 871 q 115 941 83 925 q 185 957 147 957 z "},"k":{"ha":893,"x_min":60,"x_max":851,"o":"m 310 0 l 60 0 l 60 908 l 293 968 q 299 967 296 968 q 305 965 303 967 q 308 960 307 963 q 310 953 310 957 l 310 496 q 319 486 310 486 q 329 496 329 486 q 378 612 329 564 q 493 660 426 660 l 682 660 q 773 631 732 660 q 833 563 814 603 q 844 474 851 522 q 800 389 836 425 l 675 268 q 673 256 671 263 q 682 250 675 250 l 846 250 l 846 0 l 493 0 q 378 48 426 0 q 329 164 329 96 q 319 174 329 174 q 310 164 310 174 l 310 0 m 310 263 q 319 250 310 250 q 586 250 496 250 q 596 260 596 250 l 596 400 q 586 410 596 410 l 319 410 q 310 400 310 410 l 310 263 z "},"l":{"ha":372,"x_min":60,"x_max":313,"o":"m 311 0 l 60 0 l 60 908 l 294 968 q 306 964 301 968 q 311 953 311 960 l 311 0 z "},"m":{"ha":1243,"x_min":60,"x_max":1188,"o":"m 60 660 l 311 660 l 311 496 q 321 486 311 486 q 331 496 331 486 q 379 612 331 564 q 494 660 428 660 l 585 660 q 649 647 618 660 q 701 612 679 633 q 737 560 724 590 q 750 496 750 529 q 760 486 750 486 q 769 496 769 486 q 817 612 769 564 q 933 660 865 660 l 1022 660 q 1138 612 1090 660 q 1186 496 1186 564 l 1186 0 l 936 0 l 936 400 q 926 410 936 410 l 760 410 q 750 400 750 410 l 750 0 l 499 0 l 499 400 q 489 410 499 410 l 321 410 q 311 400 311 410 l 311 0 l 60 0 l 60 660 z "},"n":{"ha":901,"x_min":60,"x_max":847,"o":"m 60 660 l 310 660 l 310 496 q 319 486 310 486 q 331 496 331 486 q 346 565 331 533 q 385 617 361 597 q 438 649 408 638 q 494 660 467 660 l 682 660 q 799 612 750 660 q 847 496 847 564 l 847 0 l 596 0 l 596 400 q 586 410 596 410 l 319 410 q 310 400 310 410 l 310 0 l 60 0 l 60 660 z "},"o":{"ha":888,"x_min":50,"x_max":838,"o":"m 674 660 q 716 653 694 660 q 756 637 738 647 q 789 611 774 626 q 815 578 804 596 q 831 540 825 561 q 838 496 838 518 l 838 164 q 789 48 838 96 q 674 0 740 0 l 214 0 q 99 48 147 0 q 50 164 50 96 l 50 496 q 99 612 50 564 q 214 660 147 660 l 674 660 m 588 260 l 588 400 q 576 410 588 410 l 311 410 q 301 400 301 410 l 301 260 q 311 250 301 250 l 576 250 q 588 260 588 250 z "},"p":{"ha":897,"x_min":60,"x_max":847,"o":"m 60 400 l 60 660 l 311 660 l 311 496 q 321 486 311 486 q 331 496 331 486 q 378 612 331 564 q 494 660 426 660 l 683 660 q 799 612 750 660 q 847 496 847 564 l 847 164 q 799 48 847 96 q 683 0 750 0 l 489 0 q 376 51 422 3 q 331 164 331 99 q 321 174 331 174 q 311 164 311 174 l 311 -249 l 78 -306 q 67 -304 72 -307 q 60 -293 60 -300 l 60 400 m 321 250 l 586 250 q 597 260 597 250 l 597 400 q 586 410 597 410 l 321 410 q 311 400 311 410 l 311 260 q 321 250 311 250 z "},"q":{"ha":924,"x_min":50,"x_max":883,"o":"m 751 660 l 882 660 l 882 410 l 847 410 q 838 400 838 410 l 838 -249 l 604 -306 q 592 -304 599 -308 q 588 -293 588 -300 l 588 164 q 578 174 588 174 q 568 164 568 174 q 519 48 568 96 q 403 0 471 0 l 215 0 q 99 48 147 0 q 50 164 50 96 l 50 496 q 99 612 50 564 q 215 660 147 660 l 403 660 q 519 612 471 660 q 568 496 568 564 q 578 486 568 486 q 588 496 588 486 q 623 598 588 553 q 715 657 658 643 q 751 660 728 660 m 311 250 l 578 250 q 588 260 588 250 l 588 400 q 578 410 588 410 l 311 410 q 301 400 301 410 l 301 260 q 311 250 301 250 z "},"r":{"ha":744,"x_min":60,"x_max":722,"o":"m 60 0 l 60 660 l 310 660 l 310 496 q 319 486 310 486 q 329 496 329 486 q 381 615 329 569 q 494 660 433 660 l 721 660 l 721 410 l 319 410 q 310 400 310 410 l 310 0 l 60 0 z "},"s":{"ha":888,"x_min":51,"x_max":838,"o":"m 674 0 l 51 0 l 51 250 l 215 250 q 225 260 225 250 q 215 271 225 271 q 99 319 147 271 q 51 435 51 367 l 51 496 q 99 612 51 564 q 215 660 147 660 l 838 660 l 838 410 l 674 410 q 664 400 664 410 q 674 390 664 390 q 789 342 740 390 q 838 226 838 293 l 838 164 q 790 48 838 96 q 674 0 742 0 m 578 410 l 311 410 q 301 400 301 410 l 301 260 q 311 250 301 250 l 578 250 q 588 260 588 250 l 588 400 q 578 410 588 410 z "},"t":{"ha":851,"x_min":40,"x_max":799,"o":"m 799 410 l 314 410 q 296 400 296 410 l 296 260 q 306 250 296 250 l 799 250 l 799 0 l 210 0 q 119 28 160 0 q 60 98 78 57 q 49 188 42 139 q 93 272 57 236 l 218 393 q 219 403 222 397 q 210 410 217 410 l 46 410 l 46 660 l 279 660 l 279 857 l 513 915 q 524 914 517 917 q 531 903 531 907 l 531 660 l 799 660 l 799 410 z "},"u":{"ha":901,"x_min":53,"x_max":842,"o":"m 842 0 l 592 0 l 592 165 q 582 175 592 175 q 572 165 572 175 q 520 45 572 90 q 407 0 468 0 l 219 0 q 103 48 151 0 q 54 164 54 96 l 54 660 l 306 660 l 306 260 q 315 250 306 250 l 582 250 q 592 260 592 250 l 592 660 l 842 660 l 842 0 z "},"v":{"ha":876,"x_min":18,"x_max":856,"o":"m 18 660 l 275 660 q 353 268 326 393 q 360 256 354 261 q 374 250 367 250 l 517 250 q 600 660 539 353 l 854 660 q 833 551 849 626 q 810 433 818 475 q 735 311 794 356 q 610 269 683 269 q 600 260 600 269 q 610 250 600 250 l 774 250 l 774 0 l 311 0 q 187 44 240 0 q 118 160 133 89 l 19 651 l 18 660 z "},"w":{"ha":1242,"x_min":53,"x_max":1182,"o":"m 1181 660 l 1181 0 l 931 0 l 931 165 q 921 175 931 175 q 911 165 911 175 q 863 49 911 97 q 746 0 814 0 l 657 0 q 541 49 589 0 q 493 165 493 97 q 483 175 493 175 q 474 165 474 175 q 425 49 474 97 q 307 0 376 0 l 218 0 q 103 49 151 0 q 54 164 54 97 l 54 660 l 306 660 l 306 260 q 315 250 306 250 l 483 250 q 493 260 493 250 l 493 660 l 743 660 l 743 260 q 753 250 743 250 l 921 250 q 931 260 931 250 l 931 660 l 1181 660 z "},"x":{"ha":893,"x_min":51,"x_max":840,"o":"m 840 250 l 840 0 l 611 0 q 494 33 546 0 q 411 122 442 65 l 381 183 q 375 188 379 188 q 368 183 371 188 l 261 0 l 53 0 l 53 250 l 289 250 q 319 268 308 250 q 321 303 328 283 l 275 390 q 244 410 267 410 l 53 410 l 53 660 l 281 660 q 399 628 346 660 q 482 538 451 596 l 513 476 q 518 474 515 474 q 525 476 521 474 l 632 660 l 840 660 l 840 410 l 604 410 q 574 393 585 410 q 572 358 564 376 l 617 269 q 649 250 628 250 l 840 250 z "},"y":{"ha":901,"x_min":53,"x_max":842,"o":"m 582 -58 q 592 -50 592 -58 l 592 164 q 582 174 592 174 q 572 164 572 174 q 524 48 572 96 q 407 0 475 0 l 219 0 q 103 48 151 0 q 54 164 54 96 l 54 660 l 306 660 l 306 260 q 315 250 306 250 l 582 250 q 592 260 592 250 l 592 660 l 842 660 l 842 -147 q 806 -248 842 -203 q 714 -306 769 -293 q 678 -311 694 -311 l 54 -311 l 54 -58 l 582 -58 z "},"z":{"ha":889,"x_min":50,"x_max":839,"o":"m 792 389 l 667 268 q 665 256 663 263 q 674 250 667 250 l 838 250 l 838 0 l 50 0 l 50 161 q 97 271 50 225 l 222 393 q 224 403 226 397 q 215 410 222 410 l 50 410 l 50 660 l 838 660 l 838 500 q 792 389 838 435 m 588 260 l 588 400 q 578 410 588 410 l 311 410 q 301 400 301 410 l 301 260 q 311 250 301 250 l 578 250 q 588 260 588 250 z "},"{":{"ha":590,"x_min":56,"x_max":553,"o":"m 199 335 q 189 326 189 335 q 199 317 189 317 q 315 267 267 317 q 364 150 364 218 l 364 -65 l 553 -65 l 553 -315 l 278 -315 q 161 -267 210 -315 q 113 -151 113 -218 l 113 192 q 103 201 113 201 l 57 201 l 57 453 l 103 453 q 113 461 113 453 l 113 803 q 161 919 113 871 q 278 967 210 967 l 553 967 l 553 717 l 364 717 l 364 500 q 315 383 364 432 q 199 335 267 335 z "},"|":{"ha":385,"x_min":67,"x_max":318,"o":"m 317 -315 l 67 -315 l 67 972 l 317 972 l 317 -315 z "},"}":{"ha":589,"x_min":36,"x_max":532,"o":"m 485 453 l 532 453 l 532 201 l 485 201 q 476 192 476 201 l 476 -151 q 463 -215 476 -185 q 428 -267 450 -244 q 375 -302 406 -289 q 311 -315 344 -315 l 38 -315 l 38 -65 l 225 -65 l 225 150 q 274 268 225 219 q 390 317 322 317 q 399 326 399 317 q 390 335 399 335 q 274 383 322 335 q 225 500 225 432 l 225 717 l 38 717 l 38 967 l 311 967 q 428 919 379 967 q 476 803 476 871 l 476 461 q 485 453 476 453 z "},"~":{"ha":849,"x_min":49,"x_max":800,"o":"m 547 515 l 799 515 l 799 372 q 751 257 799 306 q 633 208 703 208 l 483 208 q 367 257 415 208 q 319 372 319 306 q 310 383 319 383 q 300 372 300 383 l 300 208 l 300 153 l 49 153 l 49 294 q 57 347 49 321 q 81 392 65 372 q 117 428 96 413 q 163 451 138 443 q 214 460 188 460 l 364 460 q 480 411 432 460 q 528 294 528 363 q 538 285 528 285 q 547 294 547 285 l 547 460 l 547 515 z "}," ":{"ha":542,"x_min":0,"x_max":0,"o":""},"¡":{"ha":390,"x_min":54,"x_max":336,"o":"m 101 356 l 289 356 l 321 -315 l 69 -315 l 101 356 m 278 656 q 299 651 289 656 q 317 638 310 646 q 330 619 325 631 q 335 597 335 608 l 335 475 q 318 434 335 451 q 278 417 301 417 l 113 417 q 84 425 97 417 q 63 447 71 433 q 54 475 54 460 l 54 597 q 72 638 54 621 q 113 656 89 656 l 278 656 z "},"¢":{"ha":858,"x_min":57,"x_max":797,"o":"m 796 408 l 550 408 l 496 249 l 797 249 l 797 -1 l 407 -1 l 299 -315 l 185 -315 l 293 -1 l 221 -1 q 105 47 153 -1 q 57 163 57 94 l 57 494 q 105 610 57 563 q 221 658 153 658 l 361 658 q 497 586 446 658 l 628 967 l 742 967 l 636 658 l 796 658 l 796 408 m 379 249 l 435 408 l 317 408 q 307 399 307 408 l 307 258 q 317 249 307 249 l 379 249 z "},"£":{"ha":994,"x_min":56,"x_max":949,"o":"m 697 260 l 697 306 l 949 306 l 949 164 q 944 128 949 150 q 913 61 936 90 q 856 16 889 32 q 783 0 822 0 l 542 0 q 483 14 511 0 q 435 51 456 28 q 403 103 415 74 q 392 164 392 133 q 382 174 392 174 q 372 164 372 174 q 324 48 372 96 q 208 0 275 0 l 67 0 l 67 250 l 113 250 q 122 260 122 250 l 122 428 l 57 428 l 57 542 l 122 542 l 122 721 q 232 928 122 857 q 418 964 322 988 q 532 850 511 940 l 536 807 q 546 796 536 796 q 556 807 556 796 l 556 971 l 807 971 l 807 663 l 556 663 l 556 721 l 372 721 l 372 542 l 717 542 l 717 428 l 372 428 l 372 250 l 688 250 q 697 260 697 250 z "},"¤":{"ha":822,"x_min":47,"x_max":774,"o":"m 693 347 q 681 289 693 318 l 772 197 q 704 125 747 153 l 611 218 q 549 204 578 204 l 274 204 q 210 218 243 204 l 119 125 q 49 197 74 151 l 142 289 q 128 347 128 317 l 128 632 q 142 688 128 661 l 49 781 q 117 851 71 824 l 210 760 q 269 774 239 774 l 551 774 q 611 760 585 774 l 704 851 q 772 781 750 824 l 681 688 q 693 632 693 658 l 693 347 m 476 428 l 476 550 q 468 557 476 557 l 353 557 q 344 550 344 557 l 344 428 q 353 419 344 419 l 468 419 q 476 428 476 419 z "},"¥":{"ha":978,"x_min":56,"x_max":919,"o":"m 656 553 q 647 543 647 553 q 656 533 647 533 l 919 533 l 919 418 l 656 418 l 656 397 l 919 397 l 919 283 l 642 283 l 642 165 q 593 49 642 97 q 476 0 544 0 l 335 0 l 335 251 l 381 251 q 390 261 390 251 l 390 283 l 57 283 l 57 397 l 182 397 q 174 418 175 411 l 57 418 l 57 533 l 147 533 q 57 972 136 592 l 317 972 q 401 551 358 758 q 422 533 404 533 l 565 533 q 590 658 582 618 q 606 740 599 699 q 631 865 614 781 q 676 942 640 913 q 761 972 713 972 l 919 972 l 919 719 l 892 719 q 865 712 875 719 q 847 690 854 704 q 834 661 840 676 q 815 627 828 646 q 783 594 803 608 q 656 553 732 553 z "},"¦":{"ha":282,"x_min":64,"x_max":218,"o":"m 217 -315 l 64 -315 l 64 267 l 217 267 l 217 -315 m 217 383 l 64 383 l 64 967 l 217 967 l 217 383 z "},"§":{"ha":1046,"x_min":63,"x_max":982,"o":"m 981 -31 q 969 -140 981 -107 q 883 -264 946 -215 q 742 -315 821 -312 l 497 -315 q 381 -267 429 -315 q 333 -151 333 -219 q 322 -142 333 -142 q 313 -151 313 -142 l 313 -315 l 63 -315 l 63 -4 l 63 89 l 313 89 l 313 -4 l 313 -65 l 731 -65 l 731 58 l 536 58 q 396 85 461 58 q 328 109 376 92 q 244 141 279 126 q 181 171 210 156 q 94 253 125 200 q 63 368 63 306 l 63 400 q 74 481 63 440 q 106 546 86 515 q 63 679 63 606 q 74 790 63 756 q 160 914 97 865 q 301 967 222 963 l 546 967 q 662 918 614 967 q 710 801 710 869 q 719 790 710 790 q 731 801 731 790 l 731 967 l 981 967 l 981 656 l 981 560 l 731 560 l 731 656 l 731 715 l 313 715 l 313 592 l 507 592 q 647 567 581 592 l 660 560 l 838 492 q 942 408 903 465 q 981 281 981 351 l 981 249 q 969 169 981 210 q 938 104 958 138 q 981 -31 981 46 m 731 368 l 731 406 l 313 406 l 313 400 l 313 281 l 313 246 l 731 246 l 731 249 l 731 368 z "},"¨":{"ha":707,"x_min":46,"x_max":661,"o":"m 267 972 q 309 955 292 972 q 326 913 326 938 l 326 792 q 309 750 326 768 q 267 732 292 732 l 104 732 q 63 750 81 732 q 46 792 46 768 l 46 913 q 63 954 46 936 q 104 972 81 972 l 267 972 m 603 972 q 644 955 626 972 q 661 913 661 938 l 661 792 q 644 750 661 768 q 603 732 626 732 l 439 732 q 398 750 415 732 q 381 792 381 768 l 381 913 q 398 954 381 936 q 439 972 415 972 l 603 972 z "},"©":{"ha":988,"x_min":53,"x_max":935,"o":"m 583 669 l 583 740 l 692 740 l 692 565 l 583 565 l 583 632 l 403 632 l 403 429 q 547 428 451 429 q 692 428 643 428 l 692 319 l 403 319 q 326 351 358 319 q 294 428 294 383 l 294 632 q 326 708 294 676 q 403 740 358 740 l 504 740 q 554 719 533 740 q 575 669 575 699 q 579 665 575 665 q 583 669 583 665 m 493 972 q 805 842 675 972 q 935 531 935 713 q 899 359 935 440 q 805 219 864 278 q 664 125 746 160 q 493 90 582 90 q 272 149 374 90 q 112 310 171 208 q 53 531 53 411 q 112 752 53 650 q 272 913 171 854 q 493 972 374 972 m 235 273 q 289 220 235 273 q 492 167 342 167 q 751 273 643 167 q 858 530 858 379 q 751 788 858 681 q 492 894 643 894 q 235 788 342 894 q 129 530 129 681 q 235 273 129 379 z "},"ª":{"ha":488,"x_min":35,"x_max":440,"o":"m 418 783 q 439 779 418 779 l 439 661 l 379 661 q 323 684 346 661 q 300 739 300 707 q 297 743 300 743 q 293 739 293 743 q 270 684 293 707 q 214 661 247 661 l 126 661 q 56 707 76 661 q 71 789 35 753 l 131 846 q 131 851 132 849 q 126 854 129 854 l 49 854 l 49 972 l 342 972 q 372 966 358 972 q 397 949 386 960 q 413 924 407 939 q 418 893 418 910 l 418 783 m 300 783 l 300 849 q 297 854 300 854 l 171 854 q 167 849 167 854 l 167 783 q 171 779 167 779 l 297 779 q 300 783 300 779 z "},"«":{"ha":675,"x_min":46,"x_max":628,"o":"m 369 661 l 231 321 l 369 0 l 185 0 l 47 321 l 185 661 l 369 661 m 628 661 l 489 321 l 628 0 l 446 0 l 306 321 l 446 661 l 628 661 z "},"¬":{"ha":740,"x_min":47,"x_max":683,"o":"m 47 661 l 683 661 l 683 242 q 660 174 683 204 q 599 135 636 144 q 499 133 590 133 l 403 133 l 403 299 l 435 299 q 440 306 440 299 l 440 411 l 47 411 l 47 661 z "},"­":{"ha":0,"x_min":0,"x_max":0,"o":""},"®":{"ha":988,"x_min":53,"x_max":935,"o":"m 590 535 l 563 535 q 558 531 558 535 q 563 526 558 526 q 615 493 601 526 q 624 474 619 485 q 632 454 629 463 q 638 439 635 446 q 643 429 642 432 l 692 429 l 692 319 l 604 319 q 549 358 564 319 q 524 414 540 376 q 500 469 508 451 q 472 489 493 489 l 432 489 q 428 483 428 489 l 428 392 q 407 341 428 363 q 357 319 386 319 l 294 319 l 294 429 l 315 429 l 319 432 l 319 553 q 341 602 319 581 q 390 624 363 624 q 394 629 396 624 q 390 632 394 632 l 294 632 l 294 740 l 590 740 q 679 688 650 740 q 678 585 708 635 q 655 558 668 569 q 625 541 642 547 q 590 535 608 535 m 428 579 l 563 579 q 582 588 575 579 q 589 607 589 596 q 581 625 589 618 q 563 632 574 632 l 428 632 l 428 579 m 494 972 q 715 913 614 972 q 876 752 817 854 q 935 531 935 650 q 876 310 935 411 q 715 149 817 208 q 494 90 614 90 q 273 149 375 90 q 112 310 171 208 q 53 531 53 411 q 182 842 53 713 q 494 972 311 972 m 494 167 q 751 273 644 167 q 858 531 858 379 q 849 613 858 572 q 821 690 839 654 q 778 758 803 726 q 722 815 753 790 q 654 858 690 840 q 577 886 618 876 q 494 896 536 896 q 236 788 343 896 q 129 531 129 681 q 178 348 129 432 q 312 215 228 264 q 494 167 396 167 z "},"¯":{"ha":817,"x_min":47,"x_max":769,"o":"m 769 721 l 47 721 l 47 972 l 769 972 l 769 721 z "},"°":{"ha":486,"x_min":49,"x_max":438,"o":"m 243 871 q 381 815 324 871 q 438 676 438 758 q 381 540 438 597 q 243 482 324 482 q 145 508 190 482 q 74 579 100 535 q 49 676 49 624 q 105 815 49 758 q 243 871 161 871 m 243 561 q 326 595 292 561 q 361 676 361 629 q 326 760 361 726 q 243 794 292 794 q 184 778 211 794 q 141 735 157 763 q 125 676 125 708 q 134 631 125 653 q 159 594 143 610 q 197 570 175 579 q 243 561 219 561 z "},"±":{"ha":615,"x_min":53,"x_max":561,"o":"m 561 136 l 54 136 l 54 292 l 561 292 l 561 136 m 385 665 l 561 665 l 561 511 l 385 511 l 385 335 l 231 335 l 231 511 l 54 511 l 54 665 l 231 665 l 231 840 l 385 840 l 385 665 z "},"²":{"ha":568,"x_min":56,"x_max":515,"o":"m 186 672 q 182 667 182 672 l 182 617 q 186 611 182 611 l 515 611 l 515 486 l 274 486 q 215 510 239 486 q 192 568 192 533 q 187 574 192 574 q 182 568 182 574 l 182 486 l 56 486 l 56 629 q 117 728 56 696 q 131 736 125 735 l 221 771 q 292 783 253 783 l 383 783 q 390 790 390 783 l 390 840 q 383 846 390 846 l 182 846 l 182 768 l 56 768 l 56 972 l 182 972 l 182 889 q 187 883 182 883 q 192 889 192 883 q 215 947 192 922 q 272 972 239 972 l 394 972 q 467 945 436 969 q 510 883 497 921 q 515 846 515 865 l 515 828 q 456 728 515 761 q 447 724 453 726 q 440 721 442 722 l 356 688 l 349 686 q 279 672 313 672 l 186 672 z "},"³":{"ha":568,"x_min":56,"x_max":515,"o":"m 515 826 q 492 759 515 788 q 432 731 469 731 q 426 726 426 731 q 432 722 426 722 q 492 694 469 722 q 515 628 515 667 l 515 610 q 508 572 515 594 q 465 510 496 535 q 394 485 435 486 l 272 485 q 215 508 239 485 q 192 567 192 532 q 185 572 192 572 q 181 567 181 572 l 181 485 l 56 485 l 56 688 l 181 688 l 181 610 l 383 610 q 389 615 389 610 l 389 665 q 383 671 389 671 l 242 671 l 242 782 l 383 782 q 389 789 389 782 l 389 840 q 383 844 389 844 l 181 844 l 181 767 l 56 767 l 56 971 l 181 971 l 181 888 q 185 882 181 882 q 192 888 192 882 q 202 928 192 910 q 231 959 213 947 q 272 971 250 971 l 394 971 q 465 944 435 968 q 508 882 496 919 q 515 844 515 857 l 515 826 z "},"´":{"ha":401,"x_min":43,"x_max":358,"o":"m 100 972 l 357 972 q 331 838 336 865 q 324 792 326 810 q 316 751 322 783 q 303 692 310 719 l 43 693 l 64 792 l 100 972 z "},"¶":{"ha":1306,"x_min":44,"x_max":1249,"o":"m 1028 715 q 1018 707 1018 715 q 1028 696 1018 696 q 1092 683 1061 696 q 1144 647 1122 669 q 1179 594 1167 625 q 1192 531 1192 564 l 1192 -56 q 1201 -65 1192 -65 l 1247 -65 l 1247 -315 l 1106 -315 q 1042 -302 1072 -315 q 990 -267 1011 -289 q 955 -215 968 -246 q 942 -151 942 -185 l 942 -65 l 942 715 l 635 715 q 625 707 625 715 q 635 696 625 696 q 751 647 703 696 q 799 531 799 599 l 799 -56 q 810 -65 801 -65 l 856 -65 l 856 -315 l 713 -315 q 597 -267 644 -315 q 549 -151 549 -219 l 549 422 l 315 422 q 124 502 203 422 q 44 694 44 582 q 124 887 44 807 q 315 967 203 967 l 1247 967 l 1247 715 l 1028 715 z "},"·":{"ha":315,"x_min":44,"x_max":271,"o":"m 222 400 l 90 400 q 67 406 78 400 q 51 424 57 413 q 44 447 44 435 l 44 544 q 58 578 44 564 q 90 592 71 592 l 222 592 q 256 578 242 592 q 269 544 269 564 l 269 447 q 256 414 269 428 q 222 400 242 400 z "},"¸":{"ha":144,"x_min":-85,"x_max":289,"o":"m 163 -35 q 251 -72 214 -35 q 289 -161 289 -108 l 289 -192 q 251 -278 289 -242 q 163 -315 214 -315 l 150 -315 l 146 -315 l 133 -315 q 76 -291 100 -315 q 51 -235 51 -267 q 47 -228 51 -228 q 42 -235 42 -228 l 42 -315 l -85 -315 l -85 -161 l 42 -161 l 42 -192 l 163 -189 l 163 -126 l -21 -126 l 33 21 l 121 21 l 100 -35 l 163 -35 z "},"¹":{"ha":265,"x_min":51,"x_max":210,"o":"m 51 972 l 210 972 l 210 482 l 82 482 l 82 751 q 93 794 82 775 q 124 824 104 813 q 164 835 143 835 q 169 842 169 835 q 164 846 169 846 l 51 846 l 51 972 z "},"º":{"ha":571,"x_min":54,"x_max":517,"o":"m 403 972 q 481 940 449 972 q 517 864 514 908 l 517 590 q 481 514 514 546 q 403 482 449 482 l 167 482 q 110 497 136 482 q 69 539 85 513 q 54 596 54 565 l 54 858 q 88 939 54 906 q 167 972 121 972 l 403 972 m 181 840 l 181 639 l 326 804 q 332 829 338 814 q 310 846 324 846 l 186 846 q 181 840 181 846 m 390 804 l 390 815 l 244 650 q 239 624 233 639 q 263 608 247 608 l 386 608 l 388 610 l 389 610 l 389 611 l 390 611 l 390 804 z "},"»":{"ha":675,"x_min":47,"x_max":628,"o":"m 231 661 l 371 321 l 231 0 l 47 0 l 186 321 l 47 661 l 231 661 m 492 661 l 628 321 l 492 0 l 306 0 l 444 321 l 306 661 l 492 661 z "},"¼":{"ha":994,"x_min":51,"x_max":940,"o":"m 167 836 q 171 843 171 836 q 167 847 171 847 l 51 847 l 51 974 l 210 974 l 210 483 l 83 483 l 83 753 q 108 812 83 788 q 167 836 132 836 m 476 974 l 632 974 l 303 1 l 150 1 l 476 974 m 658 268 l 617 253 l 633 258 l 658 268 m 814 239 l 814 489 l 939 489 l 939 0 l 814 0 l 814 194 q 809 200 814 200 q 804 194 804 200 q 780 137 804 161 q 722 113 756 113 l 479 113 l 479 256 q 481 268 479 265 q 539 356 485 328 q 547 360 542 358 q 554 364 551 363 l 624 392 l 656 403 l 665 407 q 668 414 671 410 l 668 489 l 794 489 l 794 399 q 733 299 794 332 q 729 297 732 299 q 724 294 726 296 q 719 293 721 293 l 649 265 l 633 258 l 608 250 q 604 243 601 246 q 610 239 604 239 l 814 239 z "},"½":{"ha":1088,"x_min":50,"x_max":1039,"o":"m 165 835 q 169 842 169 835 q 165 846 169 846 l 50 846 l 50 972 l 208 972 l 208 482 l 82 482 l 82 751 q 106 810 82 786 q 165 835 131 835 m 710 188 q 706 181 706 188 l 706 131 q 710 125 706 125 l 1038 125 l 1038 0 l 797 0 q 756 11 775 0 q 725 41 736 22 q 714 82 714 60 q 710 88 714 88 q 706 82 706 88 l 706 0 l 579 0 l 579 143 q 596 202 579 175 q 640 243 613 229 q 647 247 642 244 q 656 250 651 249 l 746 286 q 815 299 782 299 l 910 299 q 914 304 914 299 l 914 356 q 910 361 914 361 l 843 361 l 843 360 l 810 360 l 810 361 l 706 361 l 706 283 l 579 283 l 579 486 l 706 486 l 706 403 q 710 397 706 397 q 715 403 715 397 q 739 462 715 438 q 797 486 763 486 l 918 486 q 990 460 958 485 q 1033 397 1021 436 q 1038 361 1038 382 l 1038 342 q 979 243 1038 274 q 964 235 979 243 l 879 203 l 872 200 q 804 188 843 188 l 710 188 m 501 972 l 656 972 l 329 0 l 175 0 l 501 972 z "},"¾":{"ha":1236,"x_min":53,"x_max":1182,"o":"m 722 974 l 875 974 l 549 1 l 394 1 l 722 974 m 507 575 q 463 513 494 538 q 392 488 432 489 l 271 488 q 213 511 236 488 q 189 569 189 535 q 184 575 189 575 q 179 569 179 575 l 179 488 l 53 488 l 53 690 l 179 690 l 179 613 l 383 613 q 388 618 388 613 l 388 668 q 383 674 388 674 l 240 674 l 240 785 l 383 785 q 388 792 388 785 l 388 843 q 383 847 388 847 l 179 847 l 179 769 l 53 769 l 53 974 l 179 974 l 179 890 q 184 885 179 885 q 189 890 189 885 q 213 949 189 924 q 271 974 236 974 l 392 974 q 442 960 419 971 q 482 929 465 949 q 507 885 499 910 q 511 847 511 867 l 511 829 q 490 762 511 790 q 431 733 468 733 q 425 729 425 733 q 431 725 425 725 q 490 697 468 725 q 511 631 511 669 l 511 613 q 507 575 511 592 m 1056 239 l 1056 489 l 1181 489 l 1181 0 l 1056 0 l 1056 194 q 1051 200 1056 200 q 1046 194 1046 200 q 1022 137 1046 161 q 964 113 997 113 l 721 113 l 721 256 q 722 268 721 265 q 781 356 726 328 q 785 358 783 357 q 791 361 788 360 q 797 364 794 363 l 865 392 l 897 403 l 907 407 q 910 414 913 410 l 910 489 l 1036 489 l 1036 399 q 975 299 1036 332 q 971 297 974 299 q 966 294 968 296 q 961 293 964 293 l 892 265 l 875 258 l 850 250 q 846 243 846 247 q 851 239 846 239 l 1056 239 m 900 268 l 860 253 l 875 258 l 900 268 z "},"¿":{"ha":750,"x_min":29,"x_max":774,"o":"m 474 417 q 445 424 458 417 q 424 446 432 432 q 417 475 417 460 l 417 596 q 433 638 417 621 q 474 656 450 656 l 638 656 q 667 647 653 656 q 689 626 681 639 q 697 596 697 613 l 697 475 q 679 434 697 451 q 638 417 661 417 l 474 417 m 521 -65 q 521 -36 521 -40 q 521 -6 521 -32 l 774 -6 l 774 -315 l 521 -315 l 521 -151 q 512 -142 521 -142 q 503 -151 503 -142 q 481 -233 503 -196 q 421 -293 458 -271 q 338 -315 383 -315 l 313 -315 l 306 -315 l 281 -315 q 104 -242 178 -315 q 31 -67 31 -169 l 31 -6 q 104 172 31 97 q 281 244 178 246 l 465 244 l 465 356 l 647 356 l 647 63 l 282 63 l 282 -65 l 521 -65 z "},"À":{"ha":1013,"x_min":24,"x_max":1001,"o":"m 835 813 l 1000 0 l 740 0 l 690 257 l 531 257 q 422 305 463 257 q 394 421 381 353 q 385 431 394 431 q 376 421 376 431 l 313 107 q 267 30 303 60 q 183 0 231 0 l 24 0 l 24 251 l 50 251 q 78 260 67 251 q 92 285 90 269 q 118 411 101 328 q 143 538 135 494 q 217 660 158 617 q 344 701 271 701 q 354 711 354 701 q 344 721 354 721 l 117 721 l 117 971 l 640 971 q 767 926 713 971 q 835 813 821 882 m 393 507 l 640 507 l 600 704 q 581 721 599 721 l 435 721 l 393 507 m 410 1014 q 390 1113 393 1094 q 356 1293 375 1190 l 611 1293 l 649 1113 l 669 1014 l 410 1014 z "},"Á":{"ha":1014,"x_min":24,"x_max":1003,"o":"m 835 813 l 1003 0 l 740 0 l 690 257 l 531 257 q 422 305 463 257 q 394 421 382 353 q 385 431 394 431 q 376 421 376 431 l 314 107 q 267 30 304 60 q 183 0 231 0 l 24 0 l 24 251 l 53 251 q 78 261 67 251 q 92 285 90 271 q 143 538 131 471 q 218 660 158 615 q 344 701 269 701 q 356 711 356 701 q 344 721 356 721 l 117 721 l 117 971 l 642 971 q 767 926 713 971 q 835 813 821 882 m 393 507 l 640 507 l 600 704 q 581 721 599 721 l 436 721 l 393 507 m 636 1113 q 617 1014 632 1093 l 357 1014 l 376 1113 l 414 1293 l 669 1293 q 644 1158 649 1186 q 636 1113 639 1131 z "},"Â":{"ha":1014,"x_min":25,"x_max":1003,"o":"m 835 813 l 1001 0 l 742 0 l 692 257 l 532 257 q 422 304 463 257 q 394 421 382 351 q 385 431 394 431 q 375 421 375 431 l 314 107 q 267 30 304 60 q 183 0 231 0 l 25 0 l 25 251 l 53 251 q 93 285 86 251 q 144 538 107 353 q 218 660 160 617 q 346 701 269 701 q 356 711 356 701 q 346 721 356 721 l 115 721 l 115 971 l 642 971 q 767 926 714 971 q 835 813 821 882 m 393 507 l 640 507 l 601 704 q 579 721 597 721 l 436 721 l 393 507 m 490 1144 q 471 1046 489 1131 l 211 1046 l 231 1144 l 267 1325 l 758 1325 l 794 1144 l 815 1046 l 556 1046 q 536 1144 539 1131 q 528 1186 532 1167 q 513 1268 525 1206 q 502 1213 506 1232 q 499 1190 499 1193 q 497 1176 499 1186 q 490 1144 494 1167 z "},"Ã":{"ha":1013,"x_min":24,"x_max":1001,"o":"m 835 813 l 1000 0 l 740 0 l 690 257 l 531 257 q 421 305 461 257 q 394 421 381 353 q 385 431 394 431 q 376 421 376 431 l 313 107 q 267 30 303 60 q 183 0 231 0 l 24 0 l 24 251 l 51 251 q 92 285 85 251 q 109 366 100 321 q 127 456 118 411 q 143 538 136 501 q 217 660 158 617 q 344 701 271 701 q 354 711 354 701 q 344 721 354 721 l 117 721 l 117 971 l 640 971 q 728 951 688 971 q 797 894 769 931 q 835 813 825 858 m 392 507 l 640 507 l 600 704 q 581 721 599 721 l 435 721 l 392 507 m 389 1224 l 389 1060 l 136 1060 l 136 1146 q 185 1261 136 1213 q 303 1310 235 1310 l 453 1310 q 569 1261 521 1310 q 617 1146 617 1213 q 627 1136 617 1136 q 638 1146 638 1136 l 638 1310 l 888 1310 l 888 1224 q 840 1108 888 1156 q 724 1060 792 1060 l 572 1060 q 456 1108 504 1060 q 408 1224 408 1156 q 399 1233 408 1233 q 389 1224 389 1233 z "},"Ä":{"ha":1014,"x_min":24,"x_max":1003,"o":"m 835 813 l 1003 0 l 740 0 l 690 257 l 531 257 q 422 305 463 257 q 394 421 382 353 q 385 431 394 431 q 376 421 376 431 l 314 107 q 267 30 304 60 q 183 0 231 0 l 24 0 l 24 251 l 51 251 q 78 260 67 251 q 92 285 90 269 q 143 538 131 471 q 218 660 158 615 q 344 701 269 701 q 354 711 354 701 q 344 721 354 721 l 117 721 l 117 971 l 642 971 q 767 926 713 971 q 835 813 821 882 m 393 507 l 640 507 l 600 704 q 581 721 599 721 l 436 721 l 393 507 m 599 1065 q 557 1083 574 1065 q 540 1124 540 1100 l 540 1244 q 557 1287 540 1269 q 599 1304 574 1304 l 761 1304 q 803 1286 786 1304 q 821 1244 821 1268 l 821 1124 q 803 1083 821 1100 q 761 1065 786 1065 l 599 1065 m 264 1065 q 222 1083 239 1065 q 206 1124 206 1100 l 206 1244 q 222 1287 206 1269 q 264 1304 239 1304 l 426 1304 q 469 1286 451 1304 q 486 1244 486 1268 l 486 1124 q 469 1083 486 1100 q 426 1065 451 1065 l 264 1065 z "},"Å":{"ha":1013,"x_min":24,"x_max":1001,"o":"m 835 813 l 1000 0 l 740 0 l 690 257 l 531 257 q 421 305 461 257 q 394 421 381 353 q 386 431 394 431 q 374 421 374 431 l 313 107 q 267 30 303 60 q 183 0 231 0 l 24 0 l 24 251 l 51 251 q 92 285 85 251 q 109 366 100 321 q 127 456 118 411 q 143 538 136 501 q 217 660 158 617 q 344 701 271 701 q 354 711 354 701 q 344 721 354 721 l 117 721 l 117 971 l 640 971 q 728 951 688 971 q 797 894 769 931 q 835 813 825 858 m 392 507 l 639 507 l 600 704 q 579 721 596 721 l 435 721 l 392 507 m 513 1014 q 403 1059 449 1014 q 357 1168 357 1104 q 378 1247 357 1211 q 435 1303 399 1282 q 513 1325 471 1325 q 622 1279 576 1325 q 668 1168 668 1233 q 647 1091 668 1126 q 590 1035 625 1056 q 513 1014 554 1014 m 546 1226 q 538 1231 546 1226 q 513 1235 531 1235 q 479 1226 494 1235 q 455 1203 464 1218 q 446 1168 446 1188 q 465 1122 446 1140 q 513 1103 485 1103 q 546 1112 531 1103 q 569 1135 561 1121 q 578 1168 578 1150 q 569 1203 578 1188 q 546 1226 561 1218 z "},"Æ":{"ha":1538,"x_min":24,"x_max":1499,"o":"m 1499 721 l 886 721 l 886 604 l 1369 604 l 1369 367 l 1069 367 q 955 415 1003 367 q 907 531 907 464 q 896 540 907 540 q 886 531 886 540 l 886 250 l 1499 250 l 1499 0 l 1071 0 q 955 48 1003 0 q 907 164 907 96 q 896 174 907 174 q 886 164 886 174 q 838 48 886 96 q 722 0 790 0 l 581 0 l 581 257 l 531 257 q 451 278 486 257 q 401 338 417 300 q 394 419 386 375 q 385 429 394 429 q 376 419 376 429 l 313 107 q 267 30 304 60 q 183 0 231 0 l 24 0 l 24 250 l 51 250 q 78 260 67 250 q 92 283 90 269 q 118 410 101 326 q 143 538 135 494 q 217 660 158 614 q 344 701 271 701 q 354 711 354 701 q 344 721 354 721 l 117 721 l 117 971 l 674 971 q 799 926 744 971 q 867 813 853 882 l 886 722 l 886 971 l 1499 971 l 1499 721 m 800 701 q 810 711 810 701 q 800 721 810 721 l 435 721 l 393 507 l 636 507 l 636 536 q 658 619 636 581 q 717 679 679 657 q 800 701 756 701 z "},"Ç":{"ha":1021,"x_min":51,"x_max":969,"o":"m 969 971 q 969 767 969 903 q 969 564 969 632 l 719 564 l 719 721 l 303 721 l 303 250 l 969 250 l 969 0 l 635 0 l 635 -119 q 542 -120 578 -119 q 451 -121 507 -121 l 451 -185 l 571 -185 l 571 -154 l 697 -154 l 697 -311 l 571 -311 l 571 -228 q 566 -224 571 -224 q 561 -228 561 -224 q 537 -287 561 -262 q 478 -311 513 -311 l 467 -311 l 464 -311 l 463 -311 l 451 -311 q 362 -274 399 -311 q 325 -185 325 -236 l 325 -154 q 342 -92 325 -121 q 388 -46 358 -62 q 451 -29 417 -29 l 542 -29 l 542 0 l 301 0 q 126 74 199 0 q 53 250 53 147 l 53 721 q 126 898 53 825 q 301 971 199 971 l 536 971 q 617 949 579 971 q 678 889 656 926 q 700 807 700 851 q 710 797 700 797 q 719 807 719 797 l 719 971 l 969 971 z "},"È":{"ha":1008,"x_min":49,"x_max":968,"o":"m 967 721 l 356 721 l 356 604 l 839 604 l 839 367 l 539 367 q 423 416 471 368 q 375 532 375 464 q 365 542 375 542 q 356 532 356 542 l 356 250 l 967 250 l 967 0 l 539 0 q 424 48 472 0 q 375 164 375 96 q 365 174 375 174 q 356 164 356 174 q 308 48 356 96 q 192 0 260 0 l 49 0 l 49 250 l 94 250 q 104 260 104 250 l 104 538 q 153 653 104 606 q 271 701 201 701 q 279 711 279 701 q 271 721 279 721 l 49 721 l 49 971 l 967 971 l 967 721 m 406 1014 q 394 1072 400 1040 q 385 1113 388 1104 q 378 1156 382 1128 q 351 1293 374 1185 l 608 1293 l 644 1113 l 665 1014 l 406 1014 z "},"É":{"ha":1007,"x_min":49,"x_max":968,"o":"m 967 721 l 356 721 l 356 604 l 838 604 l 838 367 l 538 367 q 423 416 471 368 q 375 532 375 464 q 365 542 375 542 q 356 532 356 542 l 356 250 l 967 250 l 967 0 l 539 0 q 423 48 471 0 q 375 164 375 96 q 365 174 375 174 q 356 164 356 174 q 307 48 356 96 q 190 0 258 0 l 49 0 l 49 250 l 94 250 q 104 260 104 250 l 104 538 q 153 653 104 606 q 268 701 201 701 q 279 711 279 701 q 268 721 279 721 l 49 721 l 49 971 l 967 971 l 967 721 m 631 1113 q 611 1014 628 1096 l 351 1014 l 371 1113 l 408 1293 l 664 1293 q 638 1158 643 1185 q 631 1113 633 1131 z "},"Ê":{"ha":1007,"x_min":49,"x_max":968,"o":"m 967 721 l 354 721 l 354 604 l 838 604 l 838 367 l 538 367 q 422 417 471 368 q 374 532 374 465 q 364 542 374 542 q 354 532 354 542 l 354 250 l 967 250 l 967 0 l 539 0 q 456 22 494 0 q 396 82 418 44 q 374 164 374 119 q 364 174 374 174 q 354 164 354 174 q 306 48 354 96 q 190 0 258 0 l 49 0 l 49 250 l 94 250 q 104 260 104 250 l 104 538 q 152 653 104 606 q 268 701 200 701 q 278 711 278 701 q 268 721 278 721 l 49 721 l 49 971 l 967 971 l 967 721 m 483 1113 q 465 1014 482 1099 l 204 1014 l 225 1113 l 263 1293 l 753 1293 l 790 1113 l 811 1014 l 549 1014 q 538 1069 544 1036 q 531 1113 532 1101 q 524 1145 526 1135 q 522 1158 522 1156 q 518 1181 521 1161 q 508 1238 515 1200 q 483 1113 504 1221 z "},"Ë":{"ha":1006,"x_min":49,"x_max":965,"o":"m 965 721 l 354 721 l 354 604 l 838 604 l 838 367 l 538 367 q 422 416 469 368 q 374 532 374 464 q 364 542 374 542 q 354 532 354 542 l 354 250 l 965 250 l 965 0 l 538 0 q 422 48 471 0 q 374 164 374 96 q 364 174 374 174 q 354 164 354 174 q 306 48 354 96 q 190 0 258 0 l 49 0 l 49 250 l 93 250 q 104 260 101 250 l 104 538 q 152 653 104 606 q 268 701 200 701 q 278 711 278 701 q 268 721 278 721 l 49 721 l 49 971 l 965 971 l 965 721 m 592 1035 q 551 1051 568 1035 q 533 1093 533 1068 l 533 1213 q 551 1255 533 1238 q 592 1272 568 1272 l 757 1272 q 798 1255 781 1272 q 815 1213 815 1238 l 815 1093 q 798 1051 815 1068 q 757 1035 781 1035 l 592 1035 m 257 1035 q 216 1051 233 1035 q 199 1093 199 1068 l 199 1213 q 206 1243 199 1229 q 228 1265 214 1257 q 257 1272 242 1272 l 422 1272 q 463 1255 446 1272 q 481 1213 481 1238 l 481 1093 q 463 1051 481 1068 q 422 1035 446 1035 l 257 1035 z "},"Ì":{"ha":383,"x_min":10,"x_max":325,"o":"m 324 1014 l 64 1014 q 44 1113 47 1099 q 39 1142 40 1133 q 36 1156 38 1150 q 33 1172 35 1163 q 26 1212 32 1181 q 10 1293 19 1243 l 267 1293 l 303 1113 l 324 1014 m 64 721 l 64 971 l 315 971 l 315 0 l 64 0 l 64 538 q 113 653 64 606 q 229 701 161 701 q 239 711 239 701 q 229 721 239 721 l 64 721 z "},"Í":{"ha":381,"x_min":60,"x_max":375,"o":"m 117 1293 l 374 1293 q 339 1113 360 1221 q 319 1014 336 1099 l 60 1014 l 79 1113 l 117 1293 m 63 721 l 63 971 l 313 971 l 313 0 l 63 0 l 63 538 q 110 653 63 606 q 226 701 158 701 q 236 711 236 701 q 226 721 236 721 l 63 721 z "},"Î":{"ha":381,"x_min":-115,"x_max":492,"o":"m 165 1113 q 146 1014 163 1096 l -115 1014 l -94 1113 l -58 1293 l 433 1293 l 469 1113 l 490 1014 l 231 1014 q 211 1113 215 1093 q 188 1238 190 1221 q 174 1159 176 1176 q 165 1113 171 1142 m 63 721 l 63 971 l 314 971 l 314 0 l 63 0 l 63 538 q 111 653 63 606 q 228 701 160 701 q 238 711 238 701 q 228 721 238 721 l 63 721 z "},"Ï":{"ha":382,"x_min":-118,"x_max":497,"o":"m 163 1072 q 145 1031 163 1049 q 103 1014 128 1014 l -60 1014 q -101 1031 -83 1014 q -118 1072 -118 1049 l -118 1194 q -101 1235 -118 1218 q -60 1253 -83 1253 l 103 1253 q 145 1235 128 1253 q 163 1194 163 1218 l 163 1072 m 439 1253 q 480 1235 463 1253 q 497 1194 497 1218 l 497 1072 q 480 1031 497 1049 q 439 1014 463 1014 l 275 1014 q 234 1031 251 1014 q 217 1072 217 1049 l 217 1194 q 234 1235 217 1218 q 275 1253 251 1253 l 439 1253 m 64 721 l 64 971 l 315 971 l 315 0 l 64 0 l 64 538 q 113 653 64 606 q 229 701 161 701 q 239 711 239 701 q 229 721 239 721 l 64 721 z "},"Ð":{"ha":1029,"x_min":57,"x_max":976,"o":"m 726 971 q 903 897 829 971 q 976 721 976 824 l 976 250 q 956 153 976 199 q 903 74 936 107 q 823 20 869 40 q 726 0 776 0 l 549 0 q 432 48 481 0 q 383 164 383 96 q 374 174 383 174 q 364 164 364 174 q 316 48 364 96 q 200 0 268 0 l 58 0 l 58 250 l 104 250 q 114 260 114 250 l 114 397 l 58 397 l 58 574 l 118 574 q 176 665 131 629 q 278 701 221 701 q 288 711 288 701 q 278 721 288 721 l 58 721 l 58 971 l 726 971 m 725 250 l 725 721 l 364 721 l 364 574 l 603 574 l 603 397 l 364 397 l 364 250 l 725 250 z "},"Ñ":{"ha":1035,"x_min":49,"x_max":968,"o":"m 717 971 l 967 971 l 967 0 l 693 0 q 561 46 618 0 q 488 164 504 92 l 371 672 q 363 678 367 679 q 356 671 356 678 l 356 164 q 308 48 356 96 q 192 0 260 0 l 49 0 l 49 250 l 94 250 q 104 260 104 250 l 104 538 q 153 653 104 604 q 271 701 203 701 q 279 711 279 701 q 271 721 279 721 l 49 721 l 49 971 l 390 971 q 523 925 465 971 q 597 807 581 879 l 704 342 q 710 335 704 335 q 717 343 717 338 l 717 971 m 385 1178 l 385 1014 l 133 1014 l 133 1100 q 181 1216 133 1168 q 297 1264 229 1264 l 449 1264 q 565 1216 517 1264 q 613 1100 613 1168 q 622 1090 613 1090 q 632 1100 632 1090 l 632 1264 l 883 1264 l 883 1178 q 870 1115 883 1144 q 835 1063 857 1085 q 782 1027 813 1040 q 718 1014 751 1014 l 568 1014 q 485 1036 524 1014 q 426 1096 447 1058 q 404 1178 404 1133 q 394 1188 404 1188 q 385 1178 385 1188 z "},"Ò":{"ha":1085,"x_min":60,"x_max":1025,"o":"m 860 972 q 976 924 928 972 q 1024 807 1024 875 l 1024 164 q 976 48 1024 96 q 860 0 928 0 l 225 0 q 108 48 157 0 q 60 164 60 96 l 60 807 q 108 924 60 875 q 225 972 157 972 l 860 972 m 774 260 l 774 711 q 764 721 774 721 l 321 721 q 311 711 311 721 l 311 260 q 321 250 311 250 l 764 250 q 774 260 774 250 m 439 1014 q 419 1113 422 1099 q 412 1158 417 1131 q 386 1293 407 1186 l 642 1293 l 679 1113 l 699 1014 l 439 1014 z "},"Ó":{"ha":1085,"x_min":60,"x_max":1025,"o":"m 860 972 q 976 924 928 972 q 1024 807 1024 875 l 1024 164 q 976 48 1024 96 q 860 0 928 0 l 225 0 q 108 48 157 0 q 60 164 60 96 l 60 807 q 108 924 60 875 q 225 972 157 972 l 860 972 m 774 260 l 774 711 q 764 721 774 721 l 321 721 q 311 711 311 721 l 311 260 q 321 250 311 250 l 764 250 q 774 260 774 250 m 665 1113 q 646 1014 663 1093 l 386 1014 l 406 1113 l 442 1293 l 699 1293 q 680 1198 686 1229 q 674 1163 674 1167 q 672 1147 674 1158 q 665 1113 669 1136 z "},"Ô":{"ha":1086,"x_min":60,"x_max":1026,"o":"m 860 972 q 976 924 928 972 q 1025 807 1025 875 l 1025 164 q 976 48 1025 96 q 860 0 928 0 l 225 0 q 108 48 157 0 q 60 164 60 96 l 60 807 q 108 924 60 875 q 225 972 157 972 l 860 972 m 774 260 l 774 711 q 764 721 774 721 l 321 721 q 311 711 311 721 l 311 260 q 321 250 311 250 l 764 250 q 774 260 774 250 m 521 1113 q 500 1014 515 1093 l 240 1014 l 261 1113 l 297 1293 l 788 1293 l 825 1113 l 846 1014 l 586 1014 q 565 1113 569 1093 q 559 1144 561 1133 q 557 1158 557 1156 q 553 1180 557 1161 q 543 1238 550 1199 q 528 1156 531 1175 q 521 1113 525 1138 z "},"Õ":{"ha":1086,"x_min":60,"x_max":1026,"o":"m 860 972 q 976 924 928 972 q 1025 807 1025 875 l 1025 164 q 976 48 1025 96 q 860 0 928 0 l 225 0 q 108 48 157 0 q 60 164 60 96 l 60 807 q 108 924 60 875 q 225 972 157 972 l 860 972 m 774 260 l 774 711 q 764 721 774 721 l 321 721 q 311 711 311 721 l 311 260 q 321 250 311 250 l 764 250 q 774 260 774 250 m 418 1178 l 418 1014 l 168 1014 l 168 1100 q 216 1216 168 1168 q 332 1264 264 1264 l 482 1264 q 565 1242 526 1264 q 625 1182 603 1219 q 647 1100 647 1144 q 657 1090 647 1090 q 667 1100 667 1090 l 667 1264 l 917 1264 l 917 1178 q 869 1063 917 1111 q 753 1014 821 1014 l 603 1014 q 486 1063 535 1014 q 438 1178 438 1111 q 428 1188 438 1188 q 418 1178 418 1188 z "},"Ö":{"ha":1085,"x_min":60,"x_max":1025,"o":"m 858 972 q 975 924 926 972 q 1024 807 1024 875 l 1024 164 q 975 48 1024 96 q 858 0 926 0 l 224 0 q 108 48 156 0 q 60 164 60 96 l 60 807 q 108 924 60 875 q 224 972 156 972 l 858 972 m 772 260 l 772 711 q 763 721 772 721 l 319 721 q 310 711 310 721 l 310 260 q 319 250 310 250 l 763 250 q 772 260 772 250 m 628 1014 q 585 1031 603 1014 q 568 1072 568 1049 l 568 1194 q 585 1235 568 1218 q 628 1253 603 1253 l 790 1253 q 831 1235 814 1253 q 849 1194 849 1218 l 849 1072 q 831 1031 849 1049 q 790 1014 814 1014 l 628 1014 m 293 1014 q 251 1031 268 1014 q 233 1072 233 1049 l 233 1194 q 251 1235 233 1218 q 293 1253 268 1253 l 456 1253 q 497 1235 479 1253 q 514 1194 514 1218 l 514 1072 q 497 1031 514 1049 q 456 1014 479 1014 l 293 1014 z "},"×":{"ha":563,"x_min":47,"x_max":515,"o":"m 514 593 l 390 469 l 514 344 l 406 235 l 282 360 l 157 235 l 47 344 l 174 469 l 47 593 l 157 701 l 282 578 l 406 701 l 514 593 z "},"Ø":{"ha":1085,"x_min":60,"x_max":1025,"o":"m 882 969 q 983 915 942 961 q 1024 807 1024 868 l 1024 164 q 975 48 1024 96 q 858 0 926 0 l 322 0 l 239 -147 l 146 -93 l 200 3 q 100 57 140 11 q 60 164 60 103 l 60 807 q 108 924 60 875 q 224 972 156 972 l 761 972 l 846 1117 l 936 1065 l 882 969 m 319 250 l 344 250 l 615 721 l 319 721 q 310 711 310 721 l 310 260 q 319 250 310 250 m 772 260 q 772 486 772 336 q 772 711 772 636 q 763 721 772 721 l 738 721 l 467 250 l 763 250 q 772 260 772 250 z "},"Ù":{"ha":1121,"x_min":36,"x_max":1057,"o":"m 806 972 l 1056 972 l 1056 164 q 1008 48 1056 96 q 892 0 960 0 l 258 0 q 140 48 189 0 q 92 164 92 96 l 92 711 q 82 721 92 721 l 36 721 l 36 972 l 178 972 q 294 924 246 972 q 343 807 343 875 l 343 260 q 353 250 343 250 l 796 250 q 806 260 806 250 l 806 972 m 444 1014 q 435 1056 439 1035 q 428 1091 431 1076 q 424 1113 425 1106 q 416 1156 421 1128 q 390 1293 411 1185 l 646 1293 l 683 1113 l 704 1014 l 444 1014 z "},"Ú":{"ha":1121,"x_min":36,"x_max":1057,"o":"m 806 972 l 1056 972 l 1056 164 q 1008 48 1056 96 q 892 0 960 0 l 258 0 q 140 48 189 0 q 92 164 92 96 l 92 711 q 82 721 92 721 l 36 721 l 36 972 l 178 972 q 260 950 222 972 q 321 890 299 928 q 343 807 343 851 l 343 260 q 353 250 343 250 l 796 250 q 806 260 806 250 l 806 972 m 669 1113 q 650 1014 667 1099 l 390 1014 l 411 1113 l 447 1293 l 704 1293 q 685 1199 692 1232 q 678 1161 679 1165 q 676 1147 678 1157 q 669 1113 674 1138 z "},"Û":{"ha":1121,"x_min":35,"x_max":1057,"o":"m 806 972 l 1056 972 l 1056 164 q 1008 48 1056 96 q 892 0 960 0 l 257 0 q 174 22 213 0 q 114 82 136 44 q 92 164 92 119 l 92 711 q 82 721 92 721 l 36 721 l 36 972 l 178 972 q 294 924 246 972 q 343 807 343 875 l 343 260 q 353 250 343 250 l 796 250 q 806 260 806 250 l 806 972 m 524 1113 q 504 1014 522 1100 l 244 1014 l 264 1113 l 303 1293 l 792 1293 l 829 1113 l 849 1014 l 589 1014 q 569 1113 572 1099 q 546 1238 549 1221 q 532 1159 535 1176 q 524 1113 529 1142 z "},"Ü":{"ha":1122,"x_min":35,"x_max":1058,"o":"m 806 972 l 1058 972 l 1058 164 q 1009 48 1058 96 q 892 0 960 0 l 257 0 q 140 48 189 0 q 92 164 92 96 l 92 711 q 82 721 92 721 l 36 721 l 36 972 l 179 972 q 295 924 247 972 q 343 807 343 875 l 343 260 q 353 250 343 250 l 796 250 q 806 260 806 250 l 806 972 m 632 1035 q 591 1051 608 1035 q 574 1093 574 1068 l 574 1213 q 591 1255 574 1238 q 632 1272 608 1272 l 796 1272 q 838 1255 821 1272 q 856 1213 856 1238 l 856 1093 q 838 1051 856 1068 q 796 1035 821 1035 l 632 1035 m 297 1035 q 275 1039 286 1035 q 256 1051 264 1043 q 244 1070 249 1060 q 239 1093 239 1081 l 239 1213 q 256 1255 239 1238 q 297 1272 274 1272 l 461 1272 q 503 1255 486 1272 q 521 1213 521 1238 l 521 1093 q 513 1063 521 1076 q 491 1042 504 1050 q 461 1035 478 1035 l 297 1035 z "},"Ý":{"ha":997,"x_min":6,"x_max":992,"o":"m 796 971 l 990 971 l 990 721 l 839 721 l 624 289 l 624 0 l 372 0 l 372 289 l 157 721 l 6 721 l 6 971 l 200 971 q 292 947 250 971 q 358 876 335 922 l 485 571 q 498 561 488 561 q 511 571 508 561 l 639 876 q 796 971 690 971 m 621 1113 q 601 1014 618 1096 l 342 1014 l 361 1113 l 399 1293 l 654 1293 q 628 1158 633 1186 q 621 1113 624 1129 z "},"Þ":{"ha":890,"x_min":65,"x_max":853,"o":"m 689 790 q 804 742 756 790 q 853 626 853 693 l 853 294 q 804 178 853 226 q 689 129 756 129 l 501 129 q 385 178 433 129 q 336 294 336 226 q 326 304 336 304 q 317 294 317 304 l 317 0 l 67 0 l 67 971 l 317 971 l 317 626 q 326 615 317 615 q 336 626 336 615 q 385 742 336 693 q 501 790 433 790 l 689 790 m 603 390 l 603 529 q 593 539 603 539 l 326 539 q 317 529 317 539 l 317 390 q 326 381 317 381 l 593 381 q 603 390 603 381 z "},"ß":{"ha":985,"x_min":40,"x_max":946,"o":"m 781 496 q 774 493 776 496 q 774 479 767 486 q 781 476 776 476 q 897 428 849 476 q 946 313 946 381 l 946 250 q 898 103 946 168 q 774 13 850 38 q 694 1 738 1 q 631 1 674 1 q 567 0 588 0 q 479 31 518 4 q 422 101 440 58 q 410 164 410 132 l 410 251 l 694 251 l 694 368 l 410 368 l 410 606 l 694 606 l 694 721 l 293 721 l 293 0 l 43 0 l 43 242 q 90 358 40 311 l 215 479 q 218 486 218 483 q 207 496 218 496 q 92 544 140 496 q 43 660 43 592 l 43 722 q 117 899 43 825 q 293 972 190 972 l 694 972 q 774 960 732 972 q 898 869 850 935 q 946 722 946 804 l 946 660 q 923 577 946 615 q 863 517 900 539 q 781 496 825 496 z "},"à":{"ha":914,"x_min":40,"x_max":876,"o":"m 833 261 q 835 255 833 257 q 842 252 838 253 q 851 251 847 251 q 864 251 856 251 q 876 251 872 251 l 876 0 l 747 0 q 631 49 679 0 q 583 164 583 97 q 573 174 583 174 q 563 164 563 174 q 515 49 563 97 q 399 0 467 0 l 210 0 q 119 28 160 0 q 60 98 78 57 q 49 188 42 139 q 93 272 57 236 l 218 393 q 219 404 222 399 q 210 410 217 410 l 46 410 l 46 660 l 669 660 q 785 612 738 660 q 833 496 833 564 l 833 261 m 583 261 l 583 400 q 574 410 583 410 l 307 410 q 297 400 297 410 l 297 261 q 307 251 297 251 l 574 251 q 583 261 583 251 m 358 703 q 339 801 339 800 q 304 982 322 889 l 561 982 l 597 801 l 618 703 l 358 703 z "},"á":{"ha":915,"x_min":40,"x_max":878,"o":"m 832 261 q 834 255 832 257 q 842 252 836 253 q 851 251 847 251 q 864 251 856 251 q 876 251 872 251 l 876 0 l 746 0 q 631 49 679 0 q 582 164 582 97 q 572 174 582 174 q 563 164 563 174 q 514 49 563 97 q 399 0 465 0 l 211 0 q 119 28 160 0 q 60 98 78 57 q 49 188 42 139 q 93 272 56 236 l 217 393 q 219 404 222 399 q 211 410 217 410 l 46 410 l 46 660 l 668 660 q 785 612 738 660 q 832 496 832 564 l 832 261 m 582 261 l 582 400 q 572 410 582 410 l 306 410 q 297 400 297 410 l 297 261 q 306 251 297 251 l 572 251 q 582 261 582 251 m 567 801 q 563 785 565 794 q 559 765 561 775 q 553 736 557 754 q 547 703 550 718 l 288 703 l 308 801 l 344 982 l 601 982 q 576 855 581 879 q 567 801 572 831 z "},"â":{"ha":914,"x_min":40,"x_max":876,"o":"m 833 261 q 835 255 833 257 q 842 252 838 253 q 851 251 847 251 q 864 251 856 251 q 876 251 872 251 l 876 0 l 747 0 q 631 49 679 0 q 582 164 582 97 q 572 174 582 174 q 563 164 563 174 q 514 49 563 97 q 399 0 465 0 l 210 0 q 119 28 160 0 q 60 98 78 57 q 49 188 42 139 q 93 272 57 236 l 218 393 q 219 404 222 399 q 210 410 217 410 l 46 410 l 46 660 l 669 660 q 785 612 738 660 q 833 496 833 564 l 833 261 m 582 261 l 582 400 q 572 410 582 410 l 307 410 q 296 400 296 410 l 296 261 q 307 251 296 251 l 572 251 q 582 261 582 251 m 438 801 q 434 780 436 793 q 427 744 432 767 q 419 703 422 722 l 158 703 l 178 801 l 217 982 l 706 982 l 744 801 l 763 703 l 503 703 q 485 801 485 801 q 476 849 479 831 q 463 926 474 867 q 438 801 458 911 z "},"ã":{"ha":915,"x_min":40,"x_max":878,"o":"m 833 261 q 835 255 833 257 q 842 252 838 253 q 852 251 847 251 q 865 251 857 251 q 878 251 874 251 l 878 0 l 747 0 q 665 22 703 0 q 605 83 626 44 q 583 164 583 121 q 574 174 583 174 q 564 164 564 174 q 542 83 564 121 q 481 22 519 44 q 399 0 443 0 l 211 0 q 119 28 160 0 q 60 98 78 57 q 49 188 42 139 q 93 272 56 236 l 218 393 q 220 404 222 399 q 211 410 218 410 l 46 410 l 46 660 l 669 660 q 785 612 738 660 q 833 496 833 564 l 833 261 m 583 261 l 583 400 q 574 410 583 410 l 307 410 q 297 400 297 410 l 297 261 q 307 251 297 251 l 574 251 q 583 261 583 251 m 338 868 l 338 703 l 88 703 l 88 789 q 135 906 88 857 q 251 954 183 954 l 401 954 q 484 932 446 954 q 544 872 522 910 q 567 789 567 833 q 576 779 567 779 q 586 789 586 779 l 586 954 l 836 954 l 836 868 q 788 751 836 800 q 672 703 740 703 l 522 703 q 406 751 454 703 q 357 868 357 800 q 347 878 357 878 q 338 868 338 878 z "},"ä":{"ha":914,"x_min":40,"x_max":876,"o":"m 833 261 q 835 255 833 257 q 842 252 838 253 q 851 251 847 251 q 864 251 856 251 q 876 251 872 251 l 876 0 l 747 0 q 665 22 703 0 q 605 83 626 44 q 583 164 583 121 q 574 174 583 174 q 564 164 564 174 q 542 83 564 121 q 481 22 519 44 q 399 0 443 0 l 211 0 q 119 28 160 0 q 60 98 78 57 q 49 188 42 139 q 93 272 57 236 l 218 393 q 220 404 222 399 q 211 410 218 410 l 46 410 l 46 660 l 669 660 q 785 612 738 660 q 833 496 833 564 l 833 261 m 583 261 l 583 400 q 574 410 583 410 l 307 410 q 297 400 297 410 l 297 261 q 307 251 297 251 l 574 251 q 583 261 583 251 m 547 710 q 506 727 524 710 q 489 768 489 744 l 489 889 q 497 919 489 906 q 518 940 504 932 q 547 949 532 949 l 711 949 q 752 931 735 949 q 769 889 769 914 l 769 768 q 752 727 769 744 q 711 710 735 710 l 547 710 m 213 710 q 190 715 201 710 q 172 727 179 719 q 159 746 164 735 q 154 768 154 757 l 154 889 q 172 931 154 914 q 213 949 189 949 l 376 949 q 417 931 400 949 q 435 889 435 914 l 435 768 q 417 727 435 744 q 376 710 400 710 l 213 710 z "},"å":{"ha":915,"x_min":40,"x_max":878,"o":"m 833 261 q 835 255 833 257 q 842 252 838 253 q 851 251 847 251 q 864 251 856 251 q 876 251 872 251 l 876 0 l 746 0 q 631 49 679 0 q 582 164 582 97 q 572 174 582 174 q 563 164 563 174 q 514 49 563 97 q 399 0 465 0 l 211 0 q 119 28 160 0 q 60 98 78 57 q 49 188 42 139 q 93 272 56 236 l 217 393 q 219 404 222 399 q 211 410 217 410 l 46 410 l 46 660 l 668 660 q 785 612 738 660 q 833 496 833 564 l 833 261 m 582 261 l 582 400 q 572 410 582 410 l 306 410 q 297 400 297 410 l 297 261 q 306 251 297 251 l 572 251 q 582 261 582 251 m 461 703 q 383 724 418 703 q 326 781 347 744 q 306 860 306 817 q 351 969 306 924 q 460 1014 396 1014 q 571 969 525 1014 q 617 859 617 924 q 571 749 617 794 q 461 703 525 703 m 508 906 q 499 915 508 906 q 461 925 489 925 q 415 906 433 925 q 396 859 396 886 q 415 812 396 832 q 461 792 433 792 q 508 812 489 792 q 528 859 528 832 q 508 906 528 886 z "},"æ":{"ha":1417,"x_min":40,"x_max":1376,"o":"m 1204 250 l 1371 250 l 1371 0 l 747 0 q 631 48 679 0 q 583 164 583 96 q 574 174 583 174 q 564 164 564 174 q 542 83 564 121 q 481 22 519 44 q 399 0 443 0 l 211 0 q 135 18 171 0 q 79 67 100 36 q 50 133 58 97 q 53 206 42 168 q 93 272 64 243 l 218 393 q 220 404 222 399 q 211 410 218 410 l 46 410 l 46 660 l 1204 660 q 1294 633 1254 660 q 1354 564 1335 607 q 1367 472 1376 519 q 1322 389 1358 424 l 1199 268 q 1196 256 1193 263 q 1204 250 1199 250 m 583 261 l 583 400 q 574 410 583 410 l 307 410 q 297 400 297 410 l 297 261 q 307 251 297 251 l 574 251 q 583 261 583 251 m 1118 260 l 1118 400 q 1108 410 1118 410 l 843 410 q 833 400 833 410 l 833 260 q 843 250 833 250 l 1108 250 q 1118 260 1118 250 z "},"ç":{"ha":843,"x_min":50,"x_max":790,"o":"m 311 410 q 300 400 300 410 l 300 261 q 311 251 300 251 l 789 251 l 789 0 l 429 0 l 418 -29 l 481 -29 q 569 -66 532 -29 q 606 -154 606 -103 l 606 -185 q 569 -274 606 -236 q 481 -311 532 -311 l 468 -311 l 464 -311 l 451 -311 q 393 -286 418 -311 q 368 -228 368 -261 q 364 -224 368 -224 q 360 -228 360 -224 l 360 -311 l 233 -311 l 233 -154 l 360 -154 l 360 -185 l 481 -185 l 481 -119 l 297 -119 l 342 0 l 214 0 q 99 49 147 0 q 50 164 50 97 l 50 496 q 99 613 50 564 q 214 661 147 661 l 354 661 q 437 639 399 661 q 497 578 475 617 q 518 496 518 540 q 528 486 518 486 q 538 496 538 486 l 538 661 q 663 660 538 660 q 789 661 789 661 l 789 410 l 311 410 z "},"è":{"ha":883,"x_min":50,"x_max":844,"o":"m 674 250 l 838 250 l 838 0 l 203 0 q 94 52 139 4 q 50 164 50 100 l 50 496 q 99 612 50 564 q 215 660 147 660 l 674 660 q 762 633 721 660 q 824 564 803 607 q 834 472 843 519 q 789 389 825 424 l 665 268 q 664 256 661 263 q 674 250 667 250 m 588 260 l 588 400 q 578 410 588 410 l 311 410 q 301 400 301 410 l 301 260 q 311 250 301 250 l 578 250 q 588 260 588 250 m 340 703 q 321 801 321 799 q 314 847 318 818 q 288 983 310 876 l 544 983 l 581 801 l 601 703 l 340 703 z "},"é":{"ha":883,"x_min":50,"x_max":844,"o":"m 674 250 l 838 250 l 838 0 l 203 0 q 94 52 139 4 q 50 164 50 100 l 50 496 q 99 612 50 564 q 215 660 147 660 l 674 660 q 735 647 706 660 q 788 613 765 635 q 824 564 810 592 q 834 472 843 519 q 790 389 825 424 l 667 268 q 665 256 663 263 q 674 250 667 250 m 588 260 l 588 400 q 578 410 588 410 l 311 410 q 301 400 301 410 l 301 260 q 311 250 301 250 l 578 250 q 588 260 588 250 m 567 801 q 563 780 565 793 q 556 744 560 767 q 547 703 551 722 l 288 703 l 308 801 l 344 982 l 601 982 q 576 856 581 881 q 567 801 572 831 z "},"ê":{"ha":886,"x_min":51,"x_max":844,"o":"m 667 268 q 665 256 663 263 q 674 250 667 250 l 838 250 l 838 0 l 203 0 q 95 52 139 4 q 51 164 51 100 l 51 496 q 99 612 51 564 q 215 660 147 660 l 674 660 q 763 633 722 660 q 822 564 803 607 q 835 471 844 518 q 790 389 826 424 l 667 268 m 588 260 l 588 400 q 578 410 588 410 l 311 410 q 301 400 301 410 l 301 260 q 311 250 301 250 l 578 250 q 588 260 588 250 m 421 801 q 401 703 421 801 l 142 704 l 161 801 l 200 983 l 689 983 l 728 801 l 746 704 l 486 703 q 468 801 468 801 q 460 849 463 831 q 444 926 457 867 q 421 801 442 913 z "},"ë":{"ha":883,"x_min":50,"x_max":843,"o":"m 672 250 l 838 250 l 838 0 l 203 0 q 94 52 139 4 q 50 164 50 100 l 50 496 q 98 612 50 564 q 214 660 146 660 l 672 660 q 761 633 721 660 q 821 564 801 607 q 834 472 843 519 q 789 389 825 424 l 665 268 q 663 256 661 263 q 672 250 665 250 m 586 260 l 586 400 q 576 410 586 410 l 310 410 q 300 400 300 410 l 300 260 q 310 250 300 250 l 576 250 q 586 260 586 250 m 529 724 q 488 741 506 724 q 471 782 471 758 l 471 904 q 478 933 471 919 q 500 955 486 947 q 529 963 514 963 l 692 963 q 734 945 717 963 q 751 904 751 928 l 751 782 q 734 741 751 758 q 692 724 717 724 l 529 724 m 193 724 q 153 741 169 724 q 136 782 136 758 l 136 904 q 144 933 136 919 q 165 955 151 947 q 193 963 178 963 l 357 963 q 399 945 382 963 q 417 904 417 928 l 417 782 q 399 741 417 758 q 357 724 382 724 l 193 724 z "},"ì":{"ha":372,"x_min":-4,"x_max":313,"o":"m 311 0 l 60 0 l 60 661 l 311 661 l 311 0 m 290 801 l 311 703 l 51 703 q 32 801 32 801 q 22 856 26 831 q -3 982 18 881 l 254 982 l 290 801 z "},"í":{"ha":369,"x_min":51,"x_max":364,"o":"m 310 0 l 60 0 l 60 661 l 310 661 l 310 0 m 108 983 l 364 983 q 338 847 342 876 q 331 801 333 818 q 311 703 331 801 l 51 704 l 71 801 l 108 983 z "},"î":{"ha":368,"x_min":-118,"x_max":486,"o":"m 310 0 l 58 0 l 58 661 l 310 661 l 310 0 m 161 801 q 142 703 161 801 l -118 704 l -99 801 l -61 983 l 429 983 l 467 801 l 486 704 l 226 703 q 207 801 207 801 q 199 849 201 831 q 185 926 196 867 q 161 801 182 913 z "},"ï":{"ha":371,"x_min":-124,"x_max":493,"o":"m 310 0 l 60 0 l 60 661 l 310 661 l 310 0 m 435 942 q 475 924 458 942 q 492 883 492 907 l 492 763 q 475 720 492 738 q 435 703 458 703 l 269 703 q 228 720 246 703 q 211 763 211 738 l 211 883 q 228 924 211 907 q 269 942 246 942 l 435 942 m 157 763 q 140 720 157 738 q 100 703 124 703 l -65 703 q -106 720 -89 703 q -124 763 -124 738 l -124 883 q -106 924 -124 907 q -65 942 -89 942 l 100 942 q 140 924 124 942 q 157 883 157 907 l 157 763 z "},"ð":{"ha":886,"x_min":49,"x_max":836,"o":"m 807 589 q 836 496 836 547 l 836 164 q 814 83 836 121 q 754 22 792 44 q 672 0 717 0 l 214 0 q 98 49 146 0 q 50 164 50 97 l 50 496 q 98 613 50 564 q 214 661 146 661 l 514 661 l 422 769 l 260 706 l 228 786 l 364 839 l 253 971 l 489 971 l 540 908 l 692 969 l 724 888 l 599 839 l 807 590 l 807 589 m 585 261 l 585 400 q 576 410 585 410 l 310 410 q 300 400 300 410 l 300 261 q 310 251 300 251 l 576 251 q 585 261 585 251 z "},"ñ":{"ha":903,"x_min":58,"x_max":847,"o":"m 682 661 q 799 613 750 661 q 847 496 847 564 l 847 0 l 596 0 l 596 400 q 586 410 596 410 l 319 410 q 310 400 310 410 l 310 0 l 60 0 l 60 661 l 310 661 l 310 496 q 319 486 310 486 q 329 496 329 486 q 381 615 329 569 q 494 661 433 661 l 682 661 m 329 868 l 329 703 l 79 703 l 79 789 q 127 906 79 857 q 243 954 175 954 l 393 954 q 509 906 461 954 q 557 789 557 857 l 557 797 q 558 789 558 794 q 568 779 558 779 q 578 789 578 779 l 578 954 l 828 954 l 828 868 q 806 785 828 824 q 747 725 785 747 q 664 703 708 703 l 513 703 q 397 751 444 703 q 349 868 349 800 q 339 878 349 878 q 329 868 329 878 z "},"ò":{"ha":888,"x_min":50,"x_max":838,"o":"m 672 661 q 755 639 717 661 q 815 578 793 617 q 838 496 838 540 l 838 164 q 789 49 838 97 q 672 0 740 0 l 214 0 q 98 49 146 0 q 50 164 50 97 l 50 496 q 72 578 50 540 q 132 639 94 617 q 214 661 169 661 l 672 661 m 586 261 l 586 400 q 576 410 586 410 l 310 410 q 300 400 300 410 l 300 261 q 310 251 300 251 l 576 251 q 586 261 586 251 m 340 703 q 321 801 321 801 q 311 856 315 831 q 286 982 307 881 l 543 982 l 579 801 l 600 703 l 340 703 z "},"ó":{"ha":888,"x_min":50,"x_max":838,"o":"m 674 661 q 756 639 718 661 q 815 578 793 617 q 838 496 838 540 l 838 164 q 815 83 838 121 q 756 22 793 44 q 674 0 718 0 l 215 0 q 99 49 147 0 q 50 164 50 97 l 50 496 q 99 613 50 564 q 215 661 147 661 l 674 661 m 588 261 l 588 400 q 578 410 588 410 l 311 410 q 301 400 301 410 l 301 261 q 311 251 301 251 l 578 251 q 588 261 588 251 m 567 801 q 547 703 567 801 l 288 703 l 308 801 l 344 982 l 601 982 q 567 801 582 889 z "},"ô":{"ha":888,"x_min":50,"x_max":838,"o":"m 674 661 q 755 639 717 661 q 815 578 793 617 q 838 496 838 540 l 838 164 q 789 49 838 97 q 674 0 740 0 l 214 0 q 99 49 147 0 q 50 164 50 97 l 50 496 q 99 613 50 564 q 214 661 147 661 l 674 661 m 586 261 l 586 400 q 576 410 586 410 l 311 410 q 300 400 300 410 l 300 261 q 311 251 300 251 l 576 251 q 586 261 586 251 m 421 801 q 400 703 414 772 l 140 703 l 161 801 l 199 982 l 689 982 l 726 801 l 746 703 l 486 703 q 474 761 481 729 q 467 801 468 793 q 460 834 463 824 q 458 848 458 844 q 455 870 458 851 q 443 926 451 889 q 433 870 436 889 q 429 848 429 851 q 427 834 429 844 q 421 801 425 824 z "},"õ":{"ha":888,"x_min":50,"x_max":838,"o":"m 672 661 q 789 613 740 661 q 838 496 838 564 l 838 164 q 789 49 838 97 q 672 0 740 0 l 214 0 q 98 49 146 0 q 50 164 50 97 l 50 496 q 98 613 50 564 q 214 661 146 661 l 672 661 m 586 261 l 586 400 q 576 410 586 410 l 310 410 q 300 400 300 410 l 300 261 q 310 251 300 251 l 576 251 q 586 261 586 251 m 319 868 l 319 703 l 68 703 l 68 789 q 117 906 68 857 q 233 954 165 954 l 383 954 q 499 906 451 954 q 547 789 547 857 q 558 779 547 779 q 568 789 568 779 l 568 954 l 818 954 l 818 868 q 770 751 818 800 q 654 703 722 703 l 503 703 q 387 751 435 703 q 339 868 339 800 q 329 878 339 878 q 319 868 319 878 z "},"ö":{"ha":888,"x_min":50,"x_max":838,"o":"m 674 661 q 790 613 742 661 q 838 496 838 564 l 838 164 q 815 83 838 121 q 756 22 793 44 q 674 0 718 0 l 215 0 q 99 49 147 0 q 50 164 50 97 l 50 496 q 99 613 50 564 q 215 661 147 661 l 674 661 m 588 261 l 588 400 q 578 410 588 410 l 311 410 q 301 400 301 410 l 301 261 q 311 251 301 251 l 578 251 q 588 261 588 251 m 529 710 q 488 727 506 710 q 471 768 471 744 l 471 889 q 488 931 471 914 q 529 949 506 949 l 694 949 q 735 931 718 949 q 751 889 751 914 l 751 768 q 735 727 751 744 q 694 710 718 710 l 529 710 m 194 710 q 166 717 179 710 q 144 739 153 725 q 136 768 136 753 l 136 889 q 153 931 136 914 q 194 949 171 949 l 357 949 q 399 931 382 949 q 417 889 417 914 l 417 768 q 399 727 417 744 q 357 710 382 710 l 194 710 z "},"÷":{"ha":740,"x_min":39,"x_max":701,"o":"m 299 606 q 263 620 278 606 q 249 656 249 635 l 249 760 q 263 796 249 781 q 299 811 278 811 l 440 811 q 466 804 454 811 q 485 785 478 797 q 492 760 492 774 l 492 656 q 476 620 492 635 q 440 606 461 606 l 299 606 m 700 410 l 39 410 l 39 563 l 700 563 l 700 410 m 440 367 q 466 360 454 367 q 485 341 478 353 q 492 315 492 329 l 492 211 q 476 175 492 190 q 440 160 461 160 l 299 160 q 274 167 285 160 q 256 185 263 174 q 249 211 249 197 l 249 315 q 263 351 249 336 q 299 367 278 367 l 440 367 z "},"ø":{"ha":888,"x_min":50,"x_max":838,"o":"m 694 660 q 797 604 756 651 q 838 496 838 557 l 838 164 q 789 49 838 97 q 674 0 740 0 l 314 0 l 213 -175 l 119 -122 l 192 3 q 91 57 132 11 q 50 164 50 103 l 50 496 q 98 613 50 564 q 214 661 146 661 l 574 661 l 675 836 l 767 785 l 694 660 m 310 251 l 336 251 l 428 410 l 310 410 q 300 400 300 410 l 300 261 q 310 251 300 251 m 586 261 l 586 400 q 576 410 586 410 l 551 410 l 460 251 l 576 251 q 586 261 586 251 z "},"ù":{"ha":901,"x_min":53,"x_max":842,"o":"m 592 661 l 842 661 l 842 0 l 592 0 l 592 165 q 582 175 592 175 q 572 165 572 175 q 520 45 572 90 q 407 0 468 0 l 219 0 q 103 49 151 0 q 54 164 54 97 l 54 661 l 306 661 l 306 261 q 315 251 306 251 l 582 251 q 592 261 592 251 l 592 661 m 344 703 q 336 744 340 721 q 330 781 332 768 q 325 801 328 793 q 317 847 322 818 q 292 983 313 876 l 549 983 l 585 801 l 606 703 l 344 703 z "},"ú":{"ha":901,"x_min":53,"x_max":842,"o":"m 592 661 l 842 661 l 842 0 l 592 0 l 592 165 q 582 175 592 175 q 572 165 572 175 q 546 76 572 115 q 483 19 519 38 q 407 0 446 0 l 219 0 q 103 49 151 0 q 54 164 54 97 l 54 661 l 306 661 l 306 261 q 315 251 306 251 l 582 251 q 592 261 592 251 l 592 661 m 571 801 q 567 780 569 793 q 560 744 564 767 q 551 703 556 722 l 292 703 l 313 801 l 349 982 l 606 982 q 581 855 585 879 q 571 801 576 831 z "},"û":{"ha":900,"x_min":53,"x_max":840,"o":"m 590 661 l 840 661 l 840 0 l 590 0 l 590 165 q 581 175 590 175 q 571 165 571 175 q 519 45 571 90 q 404 0 467 0 l 218 0 q 102 49 150 0 q 54 164 54 97 l 54 661 l 304 661 l 304 261 q 314 251 304 251 l 581 251 q 590 261 590 251 l 590 661 m 424 801 q 404 703 424 801 l 144 703 l 164 801 l 203 982 l 692 982 l 731 801 l 749 703 l 489 703 q 469 801 471 801 q 446 926 450 911 q 432 849 435 867 q 424 801 429 831 z "},"ü":{"ha":900,"x_min":53,"x_max":840,"o":"m 590 661 l 840 661 l 840 0 l 590 0 l 590 165 q 581 175 590 175 q 571 165 571 175 q 519 45 571 90 q 407 0 468 0 l 218 0 q 102 49 150 0 q 54 164 54 97 l 54 661 l 304 661 l 304 261 q 314 251 304 251 l 581 251 q 590 261 590 251 l 590 661 m 532 703 q 492 720 508 703 q 475 763 475 738 l 475 883 q 483 913 475 899 q 503 934 490 926 q 532 942 517 942 l 696 942 q 738 924 721 942 q 756 883 756 907 l 756 763 q 738 720 756 738 q 696 703 721 703 l 532 703 m 197 703 q 168 711 182 703 q 147 733 154 719 q 139 763 139 746 l 139 883 q 156 924 139 907 q 197 942 174 942 l 363 942 q 403 924 386 942 q 421 883 421 907 l 421 763 q 403 720 421 738 q 363 703 386 703 l 197 703 z "},"ý":{"ha":903,"x_min":54,"x_max":843,"o":"m 593 661 l 843 661 l 843 -144 q 794 -262 843 -212 q 679 -311 746 -311 l 56 -311 l 56 -58 l 583 -58 q 593 -50 593 -58 l 593 164 q 583 175 593 175 q 572 164 572 175 q 524 49 572 97 q 408 0 475 0 l 221 0 q 104 49 153 0 q 56 164 56 97 l 56 661 l 307 661 l 307 261 q 317 251 307 251 l 583 251 q 593 261 593 251 l 593 661 m 572 801 q 568 780 571 793 q 561 744 565 767 q 553 703 557 722 l 293 703 l 313 801 l 350 982 l 607 982 q 572 801 589 889 z "},"þ":{"ha":899,"x_min":60,"x_max":847,"o":"m 683 661 q 799 613 751 661 q 847 496 847 564 l 847 164 q 799 49 847 97 q 683 0 751 0 l 494 0 q 378 49 426 0 q 331 164 331 97 q 321 175 331 175 q 311 164 311 175 l 311 -311 l 60 -311 l 60 971 l 311 971 l 311 496 q 321 486 311 486 q 331 496 331 486 q 378 613 331 564 q 494 661 426 661 l 683 661 m 597 261 l 597 400 q 588 410 597 410 l 321 410 q 311 400 311 410 l 311 261 q 321 251 311 251 l 588 251 q 597 261 597 251 z "},"ÿ":{"ha":903,"x_min":54,"x_max":843,"o":"m 592 661 l 843 661 l 843 -144 q 794 -262 843 -212 q 679 -311 746 -311 l 56 -311 l 56 -58 l 582 -58 q 592 -50 592 -58 l 592 164 q 582 175 592 175 q 572 164 572 175 q 524 49 572 97 q 408 0 475 0 l 219 0 q 104 49 153 0 q 56 164 56 97 l 56 661 l 306 661 l 306 261 q 317 251 306 251 l 582 251 q 592 261 592 251 l 592 661 m 535 703 q 494 720 511 703 q 476 763 476 738 l 476 883 q 494 924 476 907 q 535 942 511 942 l 699 942 q 740 924 722 942 q 757 883 757 907 l 757 763 q 740 720 757 738 q 699 703 722 703 l 535 703 m 200 703 q 159 720 176 703 q 142 763 142 738 l 142 883 q 159 924 142 907 q 200 942 176 942 l 364 942 q 405 924 388 942 q 422 883 422 907 l 422 763 q 405 720 422 738 q 364 703 388 703 l 200 703 z "},"Ā":{"ha":1013,"x_min":24,"x_max":1001,"o":"m 835 813 l 1000 0 l 740 0 l 690 257 l 531 257 q 422 305 463 257 q 394 421 382 353 q 385 431 394 431 q 376 421 376 431 l 313 107 q 267 30 304 60 q 183 0 231 0 l 24 0 l 24 251 l 51 251 q 78 260 67 251 q 92 285 90 269 q 143 538 131 471 q 218 660 158 615 q 344 701 269 701 q 354 711 354 701 q 344 721 354 721 l 117 721 l 117 971 l 642 971 q 767 926 713 971 q 835 813 821 882 m 393 507 l 640 507 l 600 704 q 581 721 599 721 l 435 721 l 393 507 m 786 1081 l 240 1081 l 240 1257 l 786 1257 l 786 1081 z "},"ā":{"ha":914,"x_min":40,"x_max":876,"o":"m 833 261 q 835 255 833 257 q 842 252 838 253 q 851 251 847 251 q 864 251 856 251 q 876 251 872 251 l 876 0 l 747 0 q 631 49 679 0 q 583 164 583 97 q 573 174 583 174 q 563 164 563 174 q 515 49 563 97 q 399 0 467 0 l 210 0 q 119 28 160 0 q 60 98 78 57 q 49 188 42 139 q 93 272 57 236 l 218 393 q 219 404 222 399 q 210 410 217 410 l 46 410 l 46 660 l 669 660 q 785 612 738 660 q 833 496 833 564 l 833 261 m 583 261 l 583 400 q 572 410 583 410 l 307 410 q 297 400 297 410 l 297 261 q 307 251 297 251 l 572 251 q 583 261 583 251 m 713 769 l 167 769 l 167 949 l 713 949 l 713 769 z "},"Ă":{"ha":1014,"x_min":25,"x_max":1003,"o":"m 835 813 l 1001 0 l 742 0 l 690 257 l 531 257 q 452 278 486 257 q 402 338 418 300 q 394 421 386 375 q 385 431 394 431 q 375 421 375 431 l 314 107 q 267 30 304 60 q 183 0 231 0 l 25 0 l 25 251 l 53 251 q 78 260 67 251 q 93 285 90 269 q 118 410 101 326 q 143 538 135 494 q 218 660 158 615 q 346 701 269 701 q 356 711 356 701 q 346 721 356 721 l 115 721 l 115 971 l 642 971 q 709 959 676 971 q 767 926 742 947 q 810 876 793 906 q 835 813 828 847 m 393 507 l 640 507 l 600 704 q 579 721 597 721 l 436 721 l 393 507 m 364 1014 q 276 1049 313 1014 q 239 1136 239 1085 l 239 1293 l 426 1293 l 426 1208 q 433 1200 426 1200 l 593 1200 q 600 1208 600 1200 l 600 1293 l 788 1293 l 788 1136 q 751 1049 788 1085 q 663 1014 714 1014 l 364 1014 z "},"ă":{"ha":915,"x_min":43,"x_max":878,"o":"m 832 261 q 834 255 832 257 q 842 252 836 253 q 851 251 847 251 q 864 251 856 251 q 876 251 872 251 l 876 0 l 746 0 q 631 49 679 0 q 582 164 582 97 q 572 174 582 174 q 563 164 563 174 q 514 49 563 97 q 397 0 465 0 l 211 0 q 146 13 176 0 q 94 48 115 26 q 60 98 74 69 q 46 156 47 126 q 56 217 44 186 q 93 272 68 247 l 217 393 q 219 404 222 399 q 211 410 217 410 l 46 410 l 46 660 l 668 660 q 751 638 714 660 q 810 578 789 615 q 832 496 832 540 l 832 261 m 582 261 l 582 400 q 572 410 582 410 l 306 410 q 297 400 297 410 l 297 261 q 306 251 297 251 l 572 251 q 582 261 582 251 m 313 703 q 223 738 260 703 q 186 825 186 774 l 186 983 l 375 983 l 375 897 q 381 892 375 892 l 540 892 q 549 897 549 892 l 549 983 l 735 983 l 735 825 q 699 739 735 775 q 611 703 663 703 l 313 703 z "},"Ą":{"ha":1014,"x_min":25,"x_max":1003,"o":"m 876 -185 q 876 -154 876 -179 l 1001 -154 l 1001 -311 l 876 -311 l 876 -228 q 872 -224 876 -224 q 867 -228 867 -224 q 856 -269 867 -250 q 825 -300 844 -289 q 783 -311 806 -311 l 771 -311 l 768 -311 l 756 -311 q 667 -274 704 -311 q 629 -185 629 -236 l 629 -154 q 667 -66 629 -103 q 756 -29 704 -29 l 847 -29 l 847 0 l 742 0 l 692 257 l 532 257 q 422 304 463 257 q 394 421 382 351 q 385 431 394 431 q 375 421 375 431 l 314 107 q 267 30 304 60 q 183 0 231 0 l 25 0 l 25 251 l 53 251 q 78 260 67 251 q 93 285 90 269 q 144 538 107 353 q 218 660 160 617 q 346 701 269 701 q 356 711 356 701 q 346 721 356 721 l 115 721 l 115 971 l 642 971 q 767 926 714 971 q 835 813 821 882 l 1001 0 l 939 0 l 939 -119 q 847 -120 882 -119 q 756 -121 811 -121 l 756 -185 l 876 -185 m 393 507 l 640 507 l 600 704 q 579 721 597 721 l 436 721 l 393 507 z "},"ą":{"ha":915,"x_min":40,"x_max":876,"o":"m 813 -119 q 722 -119 757 -119 q 629 -119 686 -119 l 629 -185 l 750 -185 l 750 -154 l 876 -154 l 876 -311 l 750 -311 l 750 -228 q 745 -224 750 -224 q 740 -228 740 -224 q 716 -286 740 -261 q 658 -311 692 -311 l 646 -311 l 643 -311 l 642 -311 l 629 -311 q 567 -294 596 -311 q 520 -247 538 -276 q 503 -185 503 -218 l 503 -154 q 520 -91 503 -119 q 567 -46 538 -62 q 629 -29 596 -29 l 722 -29 l 722 3 q 622 58 663 13 q 582 164 582 104 q 572 174 582 174 q 563 164 563 174 q 514 49 563 97 q 399 0 465 0 l 210 0 q 119 28 160 0 q 60 98 78 57 q 49 188 42 139 q 93 272 57 236 l 217 393 q 219 404 221 399 q 210 410 217 410 l 46 410 l 46 660 l 669 660 q 785 612 738 660 q 833 496 833 564 l 833 261 q 835 255 833 257 q 842 252 838 253 q 851 251 847 251 q 864 251 856 251 q 876 251 872 251 l 876 0 l 813 0 l 813 -119 m 582 261 l 582 400 q 572 410 582 410 l 306 410 q 296 400 296 410 l 296 261 q 306 251 296 251 l 572 251 q 582 261 582 251 z "},"Ć":{"ha":1022,"x_min":51,"x_max":971,"o":"m 971 564 l 721 564 l 721 721 l 303 721 l 303 250 l 971 250 l 971 0 l 303 0 q 126 74 200 0 q 53 250 53 147 l 53 721 q 126 897 53 824 q 303 971 200 971 l 536 971 q 619 949 581 971 q 679 889 657 926 q 701 807 701 851 q 711 797 701 797 q 721 807 721 797 l 721 971 l 971 971 l 971 564 m 635 1113 q 615 1014 632 1096 l 356 1014 l 375 1113 l 413 1293 l 669 1293 q 635 1113 650 1199 z "},"ć":{"ha":843,"x_min":50,"x_max":790,"o":"m 310 410 q 300 400 300 410 l 300 261 q 310 251 300 251 l 789 251 l 789 0 l 214 0 q 98 49 146 0 q 50 164 50 97 l 50 496 q 98 613 50 564 q 214 661 146 661 l 354 661 q 436 639 399 661 q 496 578 474 617 q 518 496 518 540 q 528 486 518 486 q 538 496 538 486 l 538 661 q 663 660 538 660 q 789 661 789 661 l 789 410 l 310 410 m 543 801 q 534 761 540 793 q 522 703 528 729 l 263 703 l 283 801 l 319 982 l 576 982 q 558 888 564 919 q 551 852 551 857 q 549 836 550 847 q 543 801 547 825 z "},"Ĉ":{"ha":1024,"x_min":51,"x_max":972,"o":"m 971 564 l 719 564 l 719 721 l 303 721 l 303 250 l 971 250 l 971 0 l 303 0 q 126 74 200 0 q 53 250 53 147 l 53 721 q 126 897 53 824 q 303 971 200 971 l 536 971 q 652 923 604 971 q 700 807 700 875 q 710 797 700 797 q 719 807 719 797 l 719 971 l 971 971 l 971 564 m 489 1113 q 469 1014 485 1094 l 208 1014 l 229 1113 l 267 1293 l 757 1293 l 794 1113 l 815 1014 l 553 1014 q 546 1055 550 1033 q 539 1090 542 1076 q 535 1113 536 1104 q 526 1160 529 1142 q 513 1238 524 1178 q 497 1156 499 1175 q 489 1113 494 1138 z "},"ĉ":{"ha":842,"x_min":50,"x_max":789,"o":"m 310 410 q 300 400 300 410 l 300 261 q 310 251 300 251 l 788 251 l 788 0 l 214 0 q 98 49 146 0 q 50 164 50 97 l 50 496 q 98 613 50 564 q 214 661 146 661 l 353 661 q 435 639 397 661 q 496 578 474 617 q 518 496 518 540 q 528 486 518 486 q 538 496 538 486 l 538 661 l 788 661 l 788 410 l 310 410 m 396 801 q 376 703 394 797 l 117 703 l 136 801 l 174 982 l 664 982 l 701 801 l 721 703 l 461 703 q 442 801 442 801 q 418 926 421 911 q 404 849 407 867 q 396 801 401 831 z "},"Ċ":{"ha":1024,"x_min":51,"x_max":972,"o":"m 971 564 l 719 564 l 719 721 l 303 721 l 303 250 l 971 250 l 971 0 l 303 0 q 177 34 235 0 q 86 126 119 68 q 53 250 53 183 l 53 721 q 126 898 53 825 q 303 971 199 971 l 536 971 q 617 949 579 971 q 678 889 656 926 q 700 807 700 851 q 710 797 700 797 q 719 807 719 797 l 719 971 l 971 971 l 971 564 m 429 1035 q 387 1051 404 1035 q 369 1093 369 1068 l 369 1214 q 388 1256 369 1239 q 429 1272 406 1272 l 593 1272 q 635 1256 617 1272 q 653 1214 653 1239 l 653 1093 q 635 1051 653 1068 q 593 1035 617 1035 l 429 1035 z "},"ċ":{"ha":843,"x_min":49,"x_max":790,"o":"m 311 410 q 301 400 301 410 l 301 261 q 311 251 301 251 l 789 251 l 789 0 l 215 0 q 99 49 147 0 q 50 164 50 97 l 50 496 q 99 613 50 564 q 215 661 147 661 l 354 661 q 470 613 422 661 q 518 496 518 564 q 528 486 518 486 q 539 496 539 486 l 539 661 q 789 661 539 661 l 789 410 l 311 410 m 339 703 q 297 720 314 703 q 279 763 279 738 l 279 883 q 297 924 279 907 q 339 942 314 942 l 501 942 q 543 924 526 942 q 560 883 560 907 l 560 763 q 543 720 560 738 q 501 703 526 703 l 339 703 z "},"Č":{"ha":1022,"x_min":51,"x_max":971,"o":"m 971 564 l 721 564 l 721 721 l 303 721 l 303 250 l 971 250 l 971 0 l 303 0 q 126 74 200 0 q 53 250 53 147 l 53 721 q 126 897 53 824 q 303 971 200 971 l 536 971 q 619 949 581 971 q 679 889 657 926 q 701 807 701 851 q 711 797 701 797 q 721 807 721 797 l 721 971 l 971 971 l 971 564 m 267 1014 l 229 1194 l 208 1293 l 471 1293 q 478 1252 474 1274 q 485 1217 482 1231 q 489 1194 488 1203 q 497 1147 494 1164 q 511 1069 500 1129 q 528 1151 525 1132 q 536 1194 532 1171 q 554 1293 538 1208 l 815 1293 l 794 1194 l 757 1014 l 267 1014 z "},"č":{"ha":842,"x_min":49,"x_max":789,"o":"m 310 410 q 300 400 300 410 l 300 261 q 310 251 300 251 l 788 251 l 788 0 l 214 0 q 98 49 146 0 q 50 164 50 97 l 50 496 q 98 613 50 564 q 214 661 146 661 l 354 661 q 469 613 421 661 q 518 496 518 564 q 528 486 518 486 q 538 496 538 486 l 538 661 q 617 661 575 661 q 709 661 658 661 q 788 661 760 661 l 788 410 l 310 410 m 175 703 l 136 885 l 117 982 l 376 983 q 396 885 396 885 q 419 760 417 772 q 430 816 426 797 q 434 838 433 835 q 436 852 435 842 q 442 885 438 863 q 461 983 442 885 l 721 982 l 701 885 l 664 703 l 175 703 z "},"Ď":{"ha":1019,"x_min":47,"x_max":967,"o":"m 717 971 q 893 897 819 971 q 967 721 967 824 l 967 250 q 893 74 967 147 q 717 0 819 0 l 539 0 q 422 48 471 0 q 374 164 374 96 q 364 174 374 174 q 354 164 354 174 q 306 48 354 96 q 190 0 258 0 l 49 0 l 49 250 l 94 250 q 104 260 104 250 l 104 538 q 152 653 104 606 q 268 701 200 701 q 278 711 278 701 q 268 721 278 721 l 49 721 l 49 971 l 717 971 m 715 250 l 715 721 l 354 721 l 354 250 l 715 250 m 263 1014 l 225 1194 l 204 1293 l 465 1293 q 483 1194 482 1208 q 491 1151 488 1171 q 508 1069 494 1132 q 522 1147 519 1129 q 531 1194 524 1164 q 549 1293 532 1208 l 808 1293 l 790 1194 l 753 1014 l 263 1014 z "},"ď":{"ha":1156,"x_min":49,"x_max":1161,"o":"m 838 261 q 847 251 838 251 l 881 251 l 881 0 l 751 0 q 635 48 683 0 q 588 164 588 96 q 576 175 588 175 q 567 164 567 175 q 518 49 567 97 q 403 0 469 0 l 214 0 q 99 49 147 0 q 50 164 50 97 l 50 496 q 99 613 50 564 q 214 661 147 661 l 403 661 q 519 613 471 661 q 567 496 567 564 q 576 486 567 486 q 588 496 588 486 l 588 908 l 819 968 q 832 964 826 968 q 838 953 838 960 l 838 261 m 588 261 l 588 400 q 576 410 588 410 l 311 410 q 300 400 300 410 l 300 261 q 311 251 300 251 l 576 251 q 588 261 588 251 m 1104 971 q 1133 963 1119 971 q 1153 942 1146 956 q 1161 914 1161 929 l 1161 792 l 1161 733 l 1161 678 q 1144 635 1161 653 q 1101 617 1126 617 l 988 617 l 988 708 l 1067 708 q 1069 713 1069 708 l 1069 790 q 1067 794 1069 794 q 1063 790 1063 794 q 1051 755 1063 771 q 1022 733 1040 739 l 939 733 q 898 751 915 733 q 881 792 881 768 l 881 914 q 888 942 881 929 q 910 963 896 956 q 939 971 924 971 l 1104 971 z "},"đ":{"ha":922,"x_min":50,"x_max":975,"o":"m 975 883 l 975 704 l 838 704 l 838 261 q 847 251 838 251 l 882 251 l 882 0 l 751 0 q 636 48 685 0 q 588 164 588 96 q 578 175 588 175 q 568 164 568 175 q 519 49 568 97 q 403 0 471 0 l 215 0 q 99 49 147 0 q 50 164 50 97 l 50 496 q 99 613 50 564 q 215 661 147 661 l 403 661 q 519 613 471 661 q 568 496 568 564 q 578 486 568 486 q 588 496 588 486 l 588 704 l 428 704 l 428 883 l 588 883 l 588 908 l 819 968 q 832 964 826 968 q 838 953 838 960 l 838 883 l 975 883 m 588 261 l 588 400 q 578 410 588 410 l 311 410 q 301 400 301 410 l 301 261 q 311 251 301 251 l 578 251 q 588 261 588 251 z "},"Ē":{"ha":1007,"x_min":49,"x_max":968,"o":"m 967 721 l 354 721 l 354 604 l 838 604 l 838 367 l 538 367 q 423 416 471 368 q 375 532 375 464 q 364 542 375 542 q 354 532 354 542 l 354 250 l 967 250 l 967 0 l 539 0 q 423 48 471 0 q 375 164 375 96 q 364 174 375 174 q 354 164 354 174 q 306 48 354 96 q 190 0 258 0 l 49 0 l 49 250 l 94 250 q 104 260 104 250 l 104 538 q 152 653 104 606 q 268 701 200 701 q 278 711 278 701 q 268 721 278 721 l 49 721 l 49 971 l 967 971 l 967 721 m 781 1065 l 235 1065 l 235 1242 l 781 1242 l 781 1065 z "},"ē":{"ha":883,"x_min":50,"x_max":844,"o":"m 674 250 l 838 250 l 838 0 l 203 0 q 94 52 139 4 q 50 164 50 100 l 50 496 q 99 612 50 564 q 215 660 147 660 l 674 660 q 762 633 721 660 q 824 564 803 607 q 834 472 843 519 q 789 389 825 424 l 665 268 q 664 256 661 263 q 674 250 667 250 m 588 260 l 588 400 q 578 410 588 410 l 311 410 q 301 400 301 410 l 301 260 q 311 250 301 250 l 578 250 q 588 260 588 250 m 717 754 l 171 754 l 171 932 l 717 932 l 717 754 z "},"Ĕ":{"ha":1007,"x_min":49,"x_max":968,"o":"m 967 721 l 354 721 l 354 604 l 838 604 l 838 367 l 538 367 q 422 416 469 368 q 374 532 374 464 q 364 542 374 542 q 354 532 354 542 l 354 250 l 967 250 l 967 0 l 539 0 q 456 22 494 0 q 396 82 418 44 q 374 164 374 119 q 364 174 374 174 q 354 164 354 174 q 306 48 354 96 q 190 0 258 0 l 49 0 l 49 250 l 94 250 q 104 260 104 250 l 104 538 q 152 653 104 606 q 268 701 200 701 q 278 711 278 701 q 268 721 278 721 l 49 721 l 49 971 l 967 971 l 967 721 m 358 1014 q 295 1030 324 1014 q 250 1074 267 1046 q 233 1136 233 1103 l 233 1293 l 419 1293 l 419 1208 q 428 1200 419 1200 l 588 1200 q 593 1208 593 1200 l 593 1293 l 782 1293 l 782 1136 q 744 1049 782 1085 q 656 1014 707 1014 l 358 1014 z "},"ĕ":{"ha":883,"x_min":50,"x_max":844,"o":"m 674 250 l 838 250 l 838 0 l 203 0 q 94 52 139 4 q 50 164 50 100 l 50 496 q 99 612 50 564 q 215 660 147 660 l 674 660 q 763 633 722 660 q 824 564 804 607 q 834 472 843 519 q 790 389 825 424 l 667 268 q 665 256 663 263 q 674 250 667 250 m 588 260 l 588 400 q 578 410 588 410 l 311 410 q 301 400 301 410 l 301 260 q 311 250 301 250 l 578 250 q 588 260 588 250 m 296 703 q 207 739 244 703 q 169 825 169 775 l 169 983 l 358 983 l 358 897 q 364 892 358 892 l 524 892 q 532 897 532 892 l 532 983 l 718 983 l 718 825 q 682 739 718 775 q 593 703 646 703 l 296 703 z "},"Ė":{"ha":1008,"x_min":49,"x_max":968,"o":"m 967 721 l 356 721 l 356 604 l 839 604 l 839 367 l 539 367 q 423 416 471 368 q 375 532 375 464 q 365 542 375 542 q 356 532 356 542 l 356 250 l 967 250 l 967 0 l 539 0 q 424 48 472 0 q 375 164 375 96 q 365 174 375 174 q 356 164 356 174 q 307 48 356 96 q 190 0 258 0 l 49 0 l 49 250 l 94 250 q 104 260 104 250 l 104 538 q 153 653 104 606 q 271 701 201 701 q 279 711 279 701 q 271 721 279 721 l 49 721 l 49 971 l 967 971 l 967 721 m 426 1035 q 385 1051 403 1035 q 368 1093 368 1068 l 368 1213 q 385 1255 368 1238 q 426 1272 403 1272 l 590 1272 q 632 1255 615 1272 q 649 1213 649 1238 l 649 1093 q 640 1063 649 1076 q 619 1042 632 1050 q 590 1035 607 1035 l 426 1035 z "},"ė":{"ha":886,"x_min":51,"x_max":844,"o":"m 667 268 q 665 256 663 263 q 674 250 667 250 l 838 250 l 838 0 l 203 0 q 95 52 139 4 q 51 164 51 100 l 51 496 q 99 612 51 564 q 215 660 147 660 l 674 660 q 763 633 722 660 q 822 564 803 607 q 835 471 844 518 q 790 389 826 424 l 667 268 m 588 260 l 588 400 q 578 410 588 410 l 311 410 q 301 400 301 410 l 301 260 q 311 250 301 250 l 578 250 q 588 260 588 250 m 363 724 q 333 732 346 724 q 311 753 319 740 q 303 782 303 767 l 303 904 q 321 945 303 928 q 363 963 339 963 l 526 963 q 567 945 550 963 q 585 904 585 928 l 585 782 q 567 741 585 758 q 526 724 550 724 l 363 724 z "},"Ę":{"ha":1007,"x_min":49,"x_max":967,"o":"m 967 971 l 967 721 l 356 721 l 356 604 l 839 604 l 839 367 l 539 367 q 423 416 471 368 q 375 532 375 464 q 365 542 375 542 q 356 532 356 542 l 356 250 l 967 250 l 967 0 l 904 0 l 904 -119 q 812 -120 847 -119 q 721 -121 776 -121 l 721 -185 l 840 -185 l 840 -154 l 967 -154 l 967 -311 l 840 -311 l 840 -228 q 835 -224 840 -224 q 831 -228 831 -224 q 824 -260 831 -244 q 807 -286 818 -275 q 781 -304 796 -297 q 749 -311 765 -311 l 736 -311 l 733 -311 l 719 -311 q 632 -274 668 -311 q 596 -185 596 -236 l 596 -154 q 632 -66 596 -103 q 719 -29 668 -29 l 813 -29 l 813 0 l 539 0 q 423 48 471 0 q 375 164 375 96 q 365 174 375 174 q 356 164 356 174 q 307 48 356 96 q 190 0 258 0 l 49 0 l 49 250 l 94 250 q 104 260 104 250 l 104 538 q 153 653 104 606 q 271 701 201 701 q 279 711 279 701 q 271 721 279 721 l 49 721 l 49 971 l 967 971 z "},"ę":{"ha":885,"x_min":50,"x_max":844,"o":"m 567 -119 q 383 -119 494 -119 l 383 -185 l 504 -185 l 504 -154 l 631 -154 l 631 -311 l 504 -311 l 504 -228 q 499 -224 504 -224 q 494 -228 494 -224 q 483 -269 494 -250 q 453 -300 472 -289 q 411 -311 433 -311 l 399 -311 q 396 -311 394 -311 l 383 -311 q 294 -274 332 -311 q 257 -185 257 -236 l 257 -154 q 274 -92 257 -121 q 320 -46 292 -62 q 383 -29 349 -29 l 475 -29 l 475 0 l 203 0 q 94 52 139 4 q 50 164 50 100 l 50 496 q 99 612 50 564 q 214 660 147 660 l 674 660 q 762 633 721 660 q 824 564 803 607 q 834 472 843 519 q 790 389 825 424 l 665 268 q 664 256 661 263 q 674 250 667 250 l 838 250 l 838 0 l 567 0 l 567 -119 m 300 260 q 310 250 300 250 l 576 250 q 586 260 586 250 l 586 400 q 576 410 586 410 l 310 410 q 300 400 300 410 l 300 260 z "},"Ě":{"ha":1007,"x_min":49,"x_max":968,"o":"m 967 721 l 356 721 l 356 604 l 838 604 l 838 367 l 538 367 q 423 416 471 368 q 375 532 375 464 q 365 542 375 542 q 356 532 356 542 l 356 250 l 967 250 l 967 0 l 539 0 q 423 48 471 0 q 375 164 375 96 q 365 174 375 174 q 356 164 356 174 q 307 48 356 96 q 190 0 258 0 l 49 0 l 49 250 l 94 250 q 104 260 104 250 l 104 538 q 153 653 104 606 q 268 701 201 701 q 279 711 279 701 q 268 721 279 721 l 49 721 l 49 971 l 967 971 l 967 721 m 263 1014 l 225 1194 l 204 1293 l 465 1293 q 477 1233 471 1265 q 485 1194 483 1200 q 493 1149 490 1168 q 508 1069 496 1131 q 516 1113 513 1096 q 521 1136 519 1129 q 523 1149 522 1143 q 524 1157 524 1154 q 525 1169 524 1160 q 531 1194 526 1179 q 551 1293 536 1224 l 811 1293 l 790 1194 l 753 1014 l 263 1014 z "},"ě":{"ha":883,"x_min":50,"x_max":843,"o":"m 672 250 l 838 250 l 838 0 l 203 0 q 94 52 139 4 q 50 164 50 100 l 50 496 q 98 612 50 564 q 214 660 146 660 l 672 660 q 719 653 696 660 q 763 633 743 646 q 797 603 782 621 q 821 564 813 585 q 834 472 843 519 q 789 389 825 424 l 665 268 q 663 256 661 263 q 672 250 665 250 m 586 260 l 586 400 q 576 410 586 410 l 310 410 q 300 400 300 410 l 300 260 q 310 250 300 250 l 576 250 q 586 260 586 250 m 199 703 l 161 885 l 140 982 l 401 983 q 419 885 419 885 q 444 760 440 778 q 458 838 456 819 q 467 885 461 857 q 469 902 467 892 q 473 922 471 913 q 478 950 475 932 q 485 983 482 968 l 747 982 l 726 885 l 689 703 l 199 703 z "},"Ĝ":{"ha":1031,"x_min":53,"x_max":972,"o":"m 971 721 q 304 721 515 721 l 304 250 l 721 250 l 721 344 q 711 354 721 354 l 421 354 l 421 604 l 807 604 q 923 556 875 604 q 971 440 971 508 l 971 0 l 721 0 l 721 164 q 711 174 721 174 q 701 164 701 174 q 653 48 701 96 q 536 0 604 0 l 303 0 q 126 74 200 0 q 53 250 53 147 l 53 721 q 126 897 53 824 q 303 971 200 971 l 971 971 l 971 721 m 489 1113 q 471 1014 486 1094 l 208 1014 l 229 1113 l 267 1293 l 757 1293 l 794 1113 l 814 1014 l 554 1014 q 536 1113 539 1093 q 511 1238 515 1222 q 497 1159 500 1176 q 489 1113 494 1142 z "},"ĝ":{"ha":885,"x_min":50,"x_max":838,"o":"m 674 410 q 664 400 664 410 q 674 390 664 390 q 755 369 717 390 q 815 309 793 347 q 838 226 838 271 l 838 201 q 788 86 836 133 q 674 39 740 39 q 664 29 664 39 q 674 19 664 19 q 755 -3 717 19 q 815 -62 793 -25 q 838 -144 838 -100 q 789 -262 838 -212 q 674 -311 740 -311 l 50 -311 l 50 -58 l 576 -58 q 588 -50 588 -58 l 588 0 l 214 0 q 98 49 146 1 q 50 164 50 97 l 50 496 q 99 613 50 564 q 214 661 147 661 l 838 661 l 838 410 l 674 410 m 588 261 l 588 400 q 576 410 588 410 l 311 410 q 301 400 301 410 l 301 261 q 311 251 301 251 l 576 251 q 588 261 588 251 m 421 801 q 413 761 419 793 q 400 703 407 729 l 140 703 l 161 801 l 199 982 l 689 982 l 726 801 l 746 703 l 486 703 q 467 801 472 775 q 460 834 463 824 q 458 848 458 844 q 455 870 458 851 q 443 926 451 889 q 433 870 436 889 q 429 848 429 851 q 427 834 429 844 q 421 801 425 824 z "},"Ğ":{"ha":1029,"x_min":53,"x_max":971,"o":"m 971 721 q 304 721 515 721 l 304 250 l 721 250 l 721 344 q 711 354 721 354 l 421 354 l 421 604 l 807 604 q 923 556 875 604 q 971 440 971 508 l 971 0 l 721 0 l 721 164 q 711 174 721 174 q 701 164 701 174 q 653 48 701 96 q 536 0 604 0 l 303 0 q 178 33 236 0 q 87 124 121 67 q 53 250 53 182 l 53 721 q 126 897 53 824 q 303 971 200 971 l 971 971 l 971 721 m 364 1014 q 275 1049 313 1014 q 238 1136 238 1085 l 238 1293 l 425 1293 l 425 1208 q 432 1200 425 1200 l 592 1200 q 600 1208 600 1200 l 600 1293 l 786 1293 l 786 1136 q 749 1049 786 1085 q 661 1014 713 1014 l 364 1014 z "},"ğ":{"ha":885,"x_min":50,"x_max":838,"o":"m 674 410 q 664 400 664 410 q 674 390 664 390 q 790 342 742 390 q 838 226 838 294 l 838 201 q 788 86 836 133 q 674 39 740 39 q 664 29 664 39 q 674 19 664 19 q 755 -3 717 19 q 815 -62 793 -25 q 838 -144 838 -100 q 789 -262 838 -212 q 674 -311 740 -311 l 50 -311 l 50 -58 l 578 -58 q 588 -50 588 -58 l 588 0 l 214 0 q 98 49 146 1 q 50 164 50 97 l 50 496 q 99 613 50 564 q 215 661 147 661 l 838 661 l 838 410 l 674 410 m 588 261 l 588 400 q 578 410 588 410 l 311 410 q 301 400 301 410 l 301 261 q 311 251 301 251 l 578 251 q 588 261 588 251 m 296 703 q 207 739 244 703 q 169 825 169 775 l 169 983 l 357 983 l 357 897 q 364 892 357 892 l 524 892 q 532 897 532 892 l 532 983 l 718 983 l 718 825 q 681 739 718 775 q 593 703 644 703 l 296 703 z "},"Ġ":{"ha":1029,"x_min":53,"x_max":971,"o":"m 971 721 q 304 721 515 721 l 304 250 l 721 250 l 721 344 q 711 354 721 354 l 421 354 l 421 604 l 807 604 q 923 556 875 604 q 971 440 971 508 l 971 0 l 721 0 l 721 164 q 711 174 721 174 q 701 164 701 174 q 653 48 701 96 q 536 0 604 0 l 303 0 q 126 74 200 0 q 53 250 53 147 l 53 721 q 126 897 53 824 q 303 971 200 971 l 971 971 l 971 721 m 431 1035 q 401 1042 415 1035 q 380 1063 388 1050 q 372 1093 372 1076 l 372 1213 q 390 1255 372 1238 q 431 1272 407 1272 l 594 1272 q 635 1255 618 1272 q 653 1213 653 1238 l 653 1093 q 644 1063 653 1076 q 624 1042 636 1050 q 594 1035 611 1035 l 431 1035 z "},"ġ":{"ha":885,"x_min":50,"x_max":838,"o":"m 672 39 q 663 34 665 39 q 663 24 661 29 q 672 19 665 19 q 788 -28 740 19 q 836 -145 836 -76 q 788 -262 836 -214 q 672 -311 740 -311 l 50 -311 l 50 -58 l 576 -58 q 586 -50 586 -58 l 586 0 l 213 0 q 98 49 146 1 q 50 164 50 97 l 50 496 q 98 613 50 564 q 214 661 146 661 l 836 661 l 836 410 l 672 410 q 663 400 663 410 q 672 390 663 390 q 788 342 740 390 q 836 226 836 294 q 836 219 836 224 q 836 213 836 215 q 836 207 836 210 q 836 201 836 204 q 788 87 836 135 q 672 39 739 39 m 586 261 l 586 400 q 576 410 586 410 l 310 410 q 300 400 300 410 l 300 261 q 310 251 300 251 l 576 251 q 586 261 586 251 m 361 703 q 332 711 346 703 q 310 733 318 719 q 303 763 303 746 l 303 883 q 310 913 303 899 q 332 934 318 926 q 361 942 346 942 l 525 942 q 566 924 549 942 q 583 883 583 907 l 583 763 q 566 720 583 738 q 525 703 549 703 l 361 703 z "},"Ĥ":{"ha":1033,"x_min":47,"x_max":967,"o":"m 717 971 l 967 971 l 967 0 l 717 0 l 717 367 l 356 367 l 356 164 q 307 48 356 96 q 190 0 258 0 l 49 0 l 49 250 l 94 250 q 104 260 104 250 l 104 538 q 153 653 104 606 q 268 701 201 701 q 279 711 279 701 q 268 721 279 721 l 49 721 l 49 971 l 356 971 l 356 440 q 365 431 356 431 q 375 440 375 431 q 397 522 375 483 q 457 582 419 560 q 538 604 494 604 l 717 604 l 717 971 m 485 1113 q 477 1072 483 1104 q 464 1014 471 1040 l 204 1014 l 225 1113 l 263 1293 l 753 1293 l 790 1113 l 811 1014 l 550 1014 q 531 1113 535 1094 q 523 1156 525 1138 q 507 1238 521 1175 q 492 1156 494 1175 q 485 1113 490 1138 z "},"ĥ":{"ha":903,"x_min":60,"x_max":847,"o":"m 683 661 q 799 613 751 661 q 847 496 847 564 l 847 0 l 597 0 l 597 400 q 588 410 597 410 l 321 410 q 311 400 311 410 l 311 0 l 60 0 l 60 908 l 294 968 q 306 964 300 968 q 311 953 311 960 l 311 496 q 321 486 311 486 q 331 496 331 486 q 353 578 331 540 q 413 639 375 617 q 494 661 450 661 l 683 661 m 431 1113 q 413 1014 431 1113 l 150 1014 l 171 1113 l 208 1293 l 699 1293 l 736 1113 l 757 1014 l 496 1014 q 488 1055 493 1032 q 481 1091 483 1078 q 478 1113 479 1104 q 453 1238 458 1214 q 439 1160 442 1178 q 431 1113 436 1142 z "},"Ĩ":{"ha":381,"x_min":-186,"x_max":565,"o":"m 314 1264 l 565 1264 l 565 1178 q 517 1063 565 1111 q 400 1014 468 1014 l 249 1014 q 133 1063 181 1014 q 85 1178 85 1111 q 75 1188 85 1188 q 65 1178 65 1188 l 65 1014 l -186 1014 l -186 1100 q -137 1216 -186 1168 q -21 1264 -89 1264 l 129 1264 q 245 1216 197 1264 q 293 1100 293 1168 q 303 1090 293 1090 q 314 1100 314 1090 l 314 1264 m 64 721 l 64 971 l 314 971 l 314 0 l 64 0 l 64 538 q 112 653 64 606 q 228 701 160 701 q 238 711 238 701 q 228 721 238 721 l 64 721 z "},"ĩ":{"ha":372,"x_min":-189,"x_max":561,"o":"m 311 0 l 60 0 l 60 661 l 311 661 l 311 0 m 310 954 l 560 954 l 560 868 q 512 751 560 800 q 396 703 464 703 l 246 703 q 129 751 178 703 q 81 868 81 800 q 71 878 81 878 q 61 868 61 878 l 61 703 l -189 703 l -189 789 q -141 906 -189 857 q -25 954 -93 954 l 126 954 q 208 932 171 954 q 268 872 246 910 q 290 789 290 833 q 300 779 290 779 q 310 789 310 779 l 310 954 z "},"Ī":{"ha":381,"x_min":-85,"x_max":463,"o":"m 463 1050 l -85 1050 l -85 1229 l 463 1229 l 463 1050 m 64 721 l 64 971 l 314 971 l 314 0 l 64 0 l 64 538 q 112 653 64 606 q 228 701 160 701 q 238 711 238 701 q 228 721 238 721 l 64 721 z "},"ī":{"ha":371,"x_min":-87,"x_max":458,"o":"m 311 0 l 60 0 l 60 661 l 311 661 l 311 0 m 457 739 l -87 739 l -87 918 l 457 918 l 457 739 z "},"Ĭ":{"ha":382,"x_min":-85,"x_max":464,"o":"m 278 1293 l 464 1293 l 464 1136 q 447 1074 464 1103 q 402 1030 431 1046 q 339 1014 374 1014 l 40 1014 q -49 1049 -12 1014 q -85 1136 -85 1085 l -85 1293 l 103 1293 l 103 1208 q 110 1200 103 1200 l 269 1200 q 274 1203 271 1200 q 278 1208 278 1206 l 278 1293 m 64 721 l 64 971 l 315 971 l 315 0 l 64 0 l 64 538 q 113 653 64 606 q 229 701 161 701 q 239 711 239 701 q 229 721 239 721 l 64 721 z "},"ĭ":{"ha":369,"x_min":-89,"x_max":460,"o":"m 310 0 l 60 0 l 60 661 l 310 661 l 310 0 m 271 983 l 460 983 l 460 825 q 442 763 460 792 q 396 719 425 735 q 333 703 367 703 l 36 703 q -53 739 -17 703 q -89 825 -89 775 l -89 983 l 97 983 l 97 897 q 106 892 97 892 l 265 892 q 271 897 271 892 l 271 983 z "},"İ":{"ha":379,"x_min":49,"x_max":329,"o":"m 269 1253 q 312 1235 294 1253 q 329 1194 329 1218 l 329 1072 q 312 1031 329 1049 q 269 1014 294 1014 l 106 1014 q 65 1031 82 1014 q 49 1072 49 1049 l 49 1194 q 65 1235 49 1218 q 106 1253 82 1253 l 269 1253 m 63 721 l 63 971 l 313 971 l 313 0 l 63 0 l 63 538 q 111 653 63 606 q 228 701 160 701 q 236 711 236 701 q 228 721 236 721 l 63 721 z "},"ı":{"ha":371,"x_min":60,"x_max":311,"o":"m 310 0 l 60 0 l 60 661 l 310 661 l 310 0 z "},"Ĵ":{"ha":979,"x_min":56,"x_max":919,"o":"m 492 971 q 919 971 788 971 l 919 250 q 885 126 919 183 q 794 34 851 68 q 669 0 736 0 l 307 0 q 131 74 204 0 q 57 250 57 147 l 57 433 l 307 433 l 307 250 l 669 250 l 669 538 q 717 653 669 604 q 833 701 765 701 q 843 711 843 701 q 833 721 843 721 l 307 721 l 307 564 l 57 564 l 57 971 l 307 971 l 307 807 q 318 797 307 797 q 328 807 328 797 q 376 923 328 875 q 492 971 424 971 m 465 1113 q 446 1014 461 1093 l 186 1014 l 206 1113 l 243 1293 l 733 1293 l 771 1113 l 790 1014 l 531 1014 q 511 1113 514 1093 q 488 1238 490 1221 q 474 1159 476 1176 q 465 1113 471 1142 z "},"ĵ":{"ha":371,"x_min":-119,"x_max":488,"o":"m 60 -50 l 60 661 l 310 661 l 310 -144 q 274 -248 310 -203 q 182 -306 238 -293 q 146 -311 163 -311 l -54 -311 l -54 -58 l 49 -58 q 60 -50 60 -58 m 161 801 q 142 703 161 801 l -119 703 l -99 801 l -62 982 l 429 982 l 465 801 l 486 703 l 226 703 q 207 801 207 801 q 183 926 188 904 q 173 869 176 889 q 169 847 169 850 q 167 834 169 844 q 161 801 165 824 z "},"Ĺ":{"ha":939,"x_min":47,"x_max":931,"o":"m 679 260 l 679 306 l 931 306 l 931 164 q 926 128 931 154 q 894 61 918 90 q 838 16 871 32 q 765 0 804 0 l 524 0 q 449 24 483 0 q 394 85 414 47 q 374 164 374 122 q 364 174 374 174 q 354 164 354 174 q 306 48 354 96 q 190 0 258 0 l 49 0 l 49 250 l 94 250 q 104 260 104 250 l 104 538 q 152 653 104 604 q 268 701 200 701 q 278 711 278 701 q 268 721 278 721 l 49 721 l 49 971 l 354 971 l 354 250 l 671 250 q 679 260 679 250 m 611 1113 q 592 1014 610 1099 l 332 1014 l 353 1113 l 390 1293 l 646 1293 q 622 1167 626 1190 q 611 1113 618 1143 z "},"ĺ":{"ha":371,"x_min":51,"x_max":367,"o":"m 292 968 q 306 964 301 968 q 310 953 310 960 l 310 0 l 60 0 l 60 908 l 292 968 m 108 1293 l 365 1293 q 347 1199 353 1229 q 340 1163 340 1168 q 338 1147 340 1158 q 332 1113 336 1136 q 311 1014 325 1085 l 51 1014 l 72 1113 l 108 1293 z "},"Ľ":{"ha":976,"x_min":47,"x_max":931,"o":"m 679 260 l 679 306 l 931 306 l 931 164 q 926 128 931 154 q 869 36 914 72 q 765 0 824 0 l 524 0 q 418 50 463 0 q 374 164 374 100 q 364 174 374 174 q 354 164 354 174 q 306 48 354 96 q 190 0 258 0 l 49 0 l 49 250 l 94 250 q 104 260 104 250 l 104 538 q 152 653 104 604 q 268 701 200 701 q 278 711 278 701 q 268 721 278 721 l 49 721 l 49 971 l 354 971 l 354 250 l 671 250 q 679 260 679 250 m 871 971 q 913 953 896 971 q 931 911 931 936 l 931 792 l 931 733 l 931 676 q 913 634 931 651 q 869 617 894 617 l 757 617 l 757 707 l 835 707 q 839 711 839 707 l 839 789 q 835 793 839 793 q 831 789 831 793 q 819 754 831 769 q 790 733 808 739 l 708 733 q 667 750 685 733 q 650 792 650 767 l 650 911 q 667 953 650 936 q 708 971 685 971 l 871 971 z "},"ľ":{"ha":654,"x_min":60,"x_max":660,"o":"m 293 968 q 306 964 300 968 q 310 953 310 960 l 310 0 l 60 0 l 60 908 l 293 968 m 600 971 q 629 963 615 971 q 651 942 643 956 q 660 914 660 929 l 660 792 l 660 733 l 660 678 q 642 635 660 653 q 599 617 624 617 l 483 617 l 483 708 l 564 708 q 567 713 567 708 l 567 790 q 563 794 567 794 q 560 790 560 794 q 549 755 560 771 q 519 733 538 739 l 436 733 q 394 751 413 733 q 376 792 376 768 l 376 914 q 394 954 376 938 q 436 971 413 971 l 600 971 z "},"Ŀ":{"ha":940,"x_min":47,"x_max":932,"o":"m 679 260 l 679 306 l 932 306 l 932 164 q 926 128 932 147 q 869 35 914 71 q 765 0 824 0 l 525 0 q 449 24 485 0 q 394 85 414 47 q 375 164 375 122 q 365 174 375 174 q 356 164 356 174 q 307 48 356 96 q 190 0 258 0 l 49 0 l 49 250 l 94 250 q 104 260 104 250 l 104 538 q 153 653 104 604 q 268 701 201 701 q 279 711 279 701 q 268 721 279 721 l 49 721 l 49 971 l 356 971 l 356 250 l 671 250 q 679 260 679 250 m 524 422 q 482 440 500 422 q 464 482 464 457 l 464 603 q 472 631 464 618 q 494 652 481 644 q 524 660 508 660 l 688 660 q 728 643 711 660 q 744 603 744 626 l 744 482 q 728 440 744 457 q 688 422 711 422 l 524 422 z "},"ŀ":{"ha":701,"x_min":60,"x_max":681,"o":"m 293 968 q 306 964 301 968 q 310 953 310 960 l 310 0 l 60 0 l 60 908 l 293 968 m 621 603 q 662 586 644 603 q 679 544 679 569 l 679 424 q 662 382 679 399 q 621 365 644 365 l 457 365 q 415 382 432 365 q 397 424 397 399 l 397 544 q 415 586 397 569 q 457 603 432 603 l 621 603 z "},"Ł":{"ha":1033,"x_min":4,"x_max":1025,"o":"m 774 260 l 774 306 l 1024 306 l 1024 164 q 1019 128 1024 147 q 961 35 1006 71 q 860 0 917 0 l 618 0 q 558 14 586 0 q 511 51 531 28 q 480 103 492 74 q 468 164 468 133 q 458 174 468 174 q 449 164 449 174 q 400 48 449 96 q 283 0 351 0 l 142 0 l 142 250 l 188 250 q 197 260 197 250 l 197 436 l 93 376 l 6 531 l 335 721 l 142 721 l 142 971 l 449 971 l 449 786 l 553 846 l 640 692 l 449 582 l 449 250 l 764 250 q 774 260 774 250 z "},"ł":{"ha":572,"x_min":7,"x_max":568,"o":"m 479 699 l 568 543 l 414 454 l 414 0 l 161 0 l 161 310 l 96 271 l 7 424 l 161 515 l 161 908 l 396 968 q 407 964 404 968 q 414 953 414 960 l 414 658 l 479 699 z "},"Ń":{"ha":1035,"x_min":49,"x_max":968,"o":"m 717 971 l 967 971 l 967 0 l 692 0 q 560 46 617 0 q 485 164 503 92 l 369 672 q 361 678 365 679 q 354 671 354 678 l 354 164 q 306 48 354 96 q 190 0 258 0 l 49 0 l 49 250 l 94 250 q 104 260 104 250 l 104 538 q 153 653 104 604 q 268 701 201 701 q 278 711 278 701 q 268 721 278 721 l 49 721 l 49 971 l 390 971 q 522 925 464 971 q 596 807 579 879 l 701 342 q 710 335 701 335 q 717 343 717 338 l 717 971 m 631 1113 q 627 1095 629 1106 q 623 1074 625 1085 q 617 1047 621 1064 q 611 1014 614 1029 l 350 1014 l 371 1113 l 407 1293 l 664 1293 q 645 1198 651 1229 q 639 1163 639 1167 q 637 1147 639 1158 q 631 1113 635 1136 z "},"ń":{"ha":903,"x_min":58,"x_max":847,"o":"m 683 661 q 799 613 751 661 q 847 496 847 564 l 847 0 l 597 0 l 597 400 q 588 410 597 410 l 321 410 q 311 400 311 410 l 311 0 l 60 0 l 60 661 l 311 661 l 311 496 q 321 486 311 486 q 331 496 331 486 q 382 615 331 569 q 494 661 433 661 l 683 661 m 576 801 q 572 781 575 793 q 565 744 569 768 q 557 703 561 721 l 297 704 l 317 801 l 354 983 l 611 983 q 576 801 594 900 z "},"Ň":{"ha":1035,"x_min":49,"x_max":968,"o":"m 717 971 l 967 971 l 967 0 l 693 0 q 560 46 617 0 q 488 164 503 92 l 369 672 q 367 677 369 675 q 363 678 365 679 q 356 671 356 678 l 356 164 q 307 48 356 96 q 190 0 258 0 l 49 0 l 49 250 l 94 250 q 104 260 104 250 l 104 538 q 153 653 104 604 q 271 701 203 701 q 279 711 279 701 q 271 721 279 721 l 49 721 l 49 971 l 390 971 q 522 925 465 971 q 596 807 579 879 l 703 342 q 710 335 706 335 q 717 343 717 338 l 717 971 m 263 1014 l 225 1194 l 204 1293 l 467 1293 q 474 1252 469 1274 q 481 1217 478 1231 q 485 1194 483 1203 q 494 1146 492 1164 q 508 1069 497 1128 q 519 1126 515 1107 q 523 1148 522 1144 q 526 1163 524 1151 q 532 1194 528 1174 q 551 1293 533 1208 l 811 1293 l 790 1194 l 753 1014 l 263 1014 z "},"ň":{"ha":903,"x_min":58,"x_max":847,"o":"m 682 661 q 799 613 750 661 q 847 496 847 564 l 847 0 l 596 0 l 596 400 q 586 410 596 410 l 319 410 q 310 400 310 410 l 310 0 l 60 0 l 60 661 l 310 661 l 310 496 q 319 486 310 486 q 329 496 329 486 q 381 615 329 569 q 494 661 433 661 l 682 661 m 208 703 l 169 885 l 150 982 l 410 983 q 429 885 429 886 q 453 760 450 778 q 468 838 465 819 q 476 885 471 857 q 478 897 476 890 q 481 914 479 904 q 485 933 483 924 q 489 956 486 942 q 494 983 492 971 l 754 982 l 736 885 l 697 703 l 208 703 z "},"Ō":{"ha":1085,"x_min":60,"x_max":1025,"o":"m 858 972 q 922 959 892 972 q 975 924 953 946 q 1010 871 997 901 q 1024 807 1024 840 l 1024 164 q 975 48 1024 96 q 858 0 926 0 l 224 0 q 108 48 156 0 q 60 164 60 96 l 60 807 q 108 924 60 875 q 224 972 156 972 l 858 972 m 772 260 l 772 711 q 763 721 772 721 l 319 721 q 310 711 310 721 l 310 260 q 319 250 310 250 l 763 250 q 772 260 772 250 m 814 1044 l 268 1044 l 268 1222 l 814 1222 l 814 1044 z "},"ō":{"ha":888,"x_min":50,"x_max":838,"o":"m 674 661 q 789 613 740 661 q 838 496 838 564 l 838 164 q 789 49 838 97 q 674 0 740 0 l 214 0 q 99 49 147 0 q 50 164 50 97 l 50 496 q 99 613 50 564 q 214 661 147 661 l 674 661 m 586 261 l 586 400 q 576 410 586 410 l 311 410 q 300 400 300 410 l 300 261 q 311 251 300 251 l 576 251 q 586 261 586 251 m 717 739 l 171 739 l 171 918 l 717 918 l 717 739 z "},"Ŏ":{"ha":1085,"x_min":60,"x_max":1025,"o":"m 858 972 q 975 924 926 972 q 1024 807 1024 875 l 1024 164 q 975 48 1024 96 q 858 0 926 0 l 224 0 q 108 48 156 0 q 60 164 60 96 l 60 807 q 108 924 60 875 q 224 972 156 972 l 858 972 m 772 260 l 772 711 q 763 721 772 721 l 319 721 q 310 711 310 721 l 310 260 q 319 250 310 250 l 763 250 q 772 260 772 250 m 392 1014 q 303 1049 340 1014 q 267 1136 267 1085 l 267 1293 l 456 1293 l 456 1208 q 461 1200 456 1200 l 621 1200 q 629 1208 629 1200 l 629 1293 l 815 1293 l 815 1136 q 779 1049 815 1085 q 690 1014 743 1014 l 392 1014 z "},"ŏ":{"ha":888,"x_min":50,"x_max":838,"o":"m 674 661 q 790 613 742 661 q 838 496 838 564 l 838 164 q 790 49 838 97 q 674 0 742 0 l 215 0 q 99 49 147 0 q 50 164 50 97 l 50 496 q 99 613 50 564 q 215 661 147 661 l 674 661 m 588 261 l 588 400 q 578 410 588 410 l 311 410 q 301 400 301 410 l 301 261 q 311 251 301 251 l 578 251 q 588 261 588 251 m 296 703 q 207 739 244 703 q 169 825 169 775 l 169 983 l 357 983 l 357 897 q 364 892 357 892 l 524 892 q 532 897 532 892 l 532 983 l 718 983 l 718 825 q 681 739 718 775 q 593 703 644 703 l 296 703 z "},"Ő":{"ha":1085,"x_min":60,"x_max":1025,"o":"m 858 972 q 975 924 926 972 q 1024 807 1024 875 l 1024 164 q 975 48 1024 96 q 858 0 926 0 l 224 0 q 108 48 156 0 q 60 164 60 96 l 60 807 q 108 924 60 875 q 224 972 156 972 l 858 972 m 772 260 l 772 711 q 763 721 772 721 l 319 721 q 310 711 310 721 l 310 260 q 319 250 310 250 l 763 250 q 772 260 772 250 m 801 1014 l 542 1014 l 561 1113 l 599 1293 l 856 1293 q 837 1198 843 1229 q 830 1163 831 1167 q 828 1147 829 1158 q 822 1113 826 1136 q 801 1014 815 1082 m 507 1113 q 499 1074 506 1106 q 488 1014 493 1042 l 228 1014 l 247 1113 l 285 1293 l 542 1293 q 522 1198 528 1229 q 516 1163 517 1167 q 514 1147 515 1158 q 507 1113 513 1136 z "},"ő":{"ha":888,"x_min":50,"x_max":838,"o":"m 672 661 q 789 613 740 661 q 838 496 838 564 l 838 164 q 788 49 838 97 q 672 0 739 0 l 214 0 q 98 49 146 0 q 50 164 50 97 l 50 496 q 98 613 50 564 q 214 661 146 661 l 672 661 m 586 261 l 586 400 q 576 410 586 410 l 310 410 q 300 400 300 410 l 300 261 q 310 251 300 251 l 576 251 q 586 261 586 251 m 703 703 l 443 703 l 463 801 l 501 982 l 756 982 q 738 888 743 919 q 731 852 732 857 q 728 836 731 847 q 722 801 726 825 q 703 703 722 801 m 408 801 q 404 780 407 793 q 397 744 401 767 q 389 703 393 722 l 129 703 l 149 801 l 188 982 l 443 982 q 408 801 425 889 z "},"Œ":{"ha":1676,"x_min":60,"x_max":1636,"o":"m 1636 971 l 1636 721 l 1024 721 l 1024 604 l 1507 604 l 1507 367 l 1207 367 q 1092 416 1140 368 q 1043 532 1043 464 q 1033 542 1043 542 q 1024 532 1024 542 l 1024 250 l 1636 250 l 1636 0 l 1208 0 q 1092 49 1140 0 q 1043 164 1043 97 q 1033 175 1043 175 q 1024 164 1024 175 q 976 48 1024 96 q 860 0 928 0 l 225 0 q 108 48 157 0 q 60 164 60 96 l 60 807 q 108 924 60 875 q 225 972 157 972 q 931 972 461 972 q 1636 971 1401 971 m 938 701 q 947 711 947 701 q 938 721 947 721 l 321 721 q 311 711 311 721 l 311 260 q 321 250 311 250 l 764 251 q 774 260 774 251 l 774 538 q 822 653 774 606 q 938 701 869 701 z "},"œ":{"ha":1422,"x_min":50,"x_max":1381,"o":"m 1208 250 l 1375 250 l 1375 0 l 215 0 q 99 49 147 0 q 50 164 50 97 l 50 496 q 99 613 50 564 q 215 661 147 661 q 713 660 382 661 q 1208 660 1043 660 q 1299 634 1258 660 q 1358 564 1339 608 q 1372 472 1381 519 q 1326 389 1363 424 l 1203 268 q 1200 256 1197 263 q 1208 250 1203 250 m 588 261 l 588 400 q 578 410 588 410 l 311 410 q 301 400 301 410 l 301 261 q 311 250 301 250 l 578 250 q 588 261 588 250 m 1122 260 l 1122 400 q 1114 410 1122 410 l 847 410 q 840 407 843 410 q 838 400 838 404 l 838 260 q 840 253 838 257 q 847 250 843 250 l 1114 250 q 1122 260 1122 250 z "},"Ŕ":{"ha":1008,"x_min":49,"x_max":968,"o":"m 790 399 q 850 250 846 261 l 967 250 l 967 0 l 764 0 q 686 23 721 0 q 635 85 651 46 q 599 168 619 121 q 559 263 579 215 q 524 346 539 310 q 497 377 515 365 q 458 389 479 389 l 356 389 l 356 164 q 307 48 356 96 q 190 0 258 0 l 49 0 l 49 250 l 94 250 q 104 260 104 250 l 104 538 q 153 653 104 604 q 268 701 201 701 q 279 711 279 701 q 268 721 279 721 l 49 721 l 49 971 l 729 971 q 898 900 828 971 q 967 731 968 829 q 896 564 965 632 q 729 496 826 496 l 665 496 q 656 485 656 496 q 665 475 656 475 l 672 475 q 722 466 699 475 q 762 440 744 457 q 790 399 779 422 m 365 597 q 517 597 417 597 q 665 597 617 597 q 697 606 683 597 q 719 628 711 614 q 728 658 728 642 l 728 660 l 728 661 q 720 692 728 678 q 699 713 713 706 q 671 721 686 721 l 365 721 q 356 710 356 721 l 356 607 q 365 597 356 597 m 631 1113 q 611 1014 628 1097 l 351 1014 l 371 1113 l 408 1293 l 664 1293 q 639 1162 643 1188 q 631 1113 635 1136 z "},"ŕ":{"ha":746,"x_min":60,"x_max":724,"o":"m 494 661 l 722 661 l 722 410 l 321 410 q 311 400 311 410 l 311 0 l 60 0 l 60 661 l 311 661 l 311 496 q 321 486 311 486 q 331 496 331 486 q 383 615 331 569 q 494 661 435 661 m 514 801 q 510 780 513 793 q 503 744 507 767 q 494 703 499 722 l 235 703 l 254 801 l 293 982 l 547 982 q 522 847 526 875 q 514 801 517 818 z "},"Ř":{"ha":1008,"x_min":49,"x_max":968,"o":"m 790 399 q 850 250 847 258 l 967 250 l 967 0 l 764 0 q 686 23 721 0 q 635 85 651 46 q 524 346 581 208 q 497 377 515 365 q 458 389 479 389 l 354 389 l 354 164 q 306 48 354 96 q 190 0 258 0 l 49 0 l 49 250 l 94 250 q 104 260 104 250 l 104 538 q 153 653 104 604 q 268 701 201 701 q 278 711 278 701 q 268 721 278 721 l 49 721 l 49 971 l 729 971 q 898 900 828 971 q 967 731 968 829 q 896 564 965 632 q 729 496 826 496 l 665 496 q 656 485 656 496 q 665 475 656 475 l 672 475 q 742 455 711 475 q 790 399 774 435 m 365 597 q 517 597 417 597 q 665 597 617 597 q 697 606 683 597 q 719 628 711 614 q 728 658 728 642 l 728 660 l 728 661 q 710 703 728 686 q 668 721 693 721 l 365 721 q 354 710 354 721 l 354 607 q 365 597 354 597 m 263 1014 l 225 1194 l 204 1293 l 465 1293 q 477 1235 471 1267 q 485 1194 483 1203 q 491 1162 489 1172 q 493 1148 493 1151 q 497 1126 493 1144 q 508 1069 500 1107 q 523 1150 521 1132 q 531 1194 525 1168 q 551 1293 538 1221 l 811 1293 l 790 1194 l 753 1014 l 263 1014 z "},"ř":{"ha":744,"x_min":58,"x_max":722,"o":"m 494 661 l 721 661 l 721 410 l 319 410 q 310 400 310 410 l 310 0 l 60 0 l 60 661 l 310 661 l 310 496 q 320 486 310 486 q 331 496 331 486 q 382 615 331 569 q 494 661 433 661 m 146 703 l 110 885 l 89 982 l 349 983 q 367 885 367 885 q 392 760 389 772 q 402 816 399 797 q 406 838 406 835 q 408 852 406 842 q 414 885 410 863 q 432 983 414 885 l 693 982 l 674 885 l 636 703 l 146 703 z "},"Ś":{"ha":1025,"x_min":53,"x_max":972,"o":"m 971 565 l 719 565 l 719 721 l 303 721 l 303 597 l 497 597 q 636 571 571 597 l 650 565 l 828 496 q 932 414 893 471 q 971 285 971 357 q 958 175 971 215 q 872 53 935 101 q 731 0 810 4 l 486 0 q 371 48 419 0 q 322 164 322 96 q 313 174 322 174 q 303 164 303 174 l 303 0 l 53 0 l 53 407 l 303 407 l 303 250 l 719 250 l 719 375 l 525 375 q 386 400 453 375 q 319 424 367 407 q 235 456 271 442 q 171 486 200 471 q 122 522 143 501 q 85 568 100 543 q 61 623 69 593 q 53 685 53 653 q 64 796 53 763 q 150 919 88 871 q 292 971 213 968 l 536 971 q 652 923 604 971 q 700 807 700 875 q 710 797 700 797 q 719 807 719 797 l 719 971 l 971 971 l 971 565 m 635 1113 q 614 1014 629 1093 l 354 1014 l 375 1113 l 411 1293 l 668 1293 q 649 1198 656 1229 q 643 1163 643 1167 q 641 1147 643 1158 q 635 1113 639 1136 z "},"ś":{"ha":890,"x_min":51,"x_max":839,"o":"m 675 410 q 665 400 665 410 q 675 390 665 390 q 791 342 743 390 q 839 226 839 294 l 839 164 q 791 49 839 97 q 675 0 743 0 l 51 0 l 51 251 l 217 251 q 226 261 226 251 q 217 271 226 271 q 100 319 149 271 q 51 435 51 367 l 51 496 q 100 613 51 564 q 217 661 149 661 l 839 661 l 839 410 l 675 410 m 589 261 l 589 400 q 579 410 589 410 l 313 410 q 303 400 303 410 l 303 261 q 313 251 303 251 l 579 251 q 589 261 589 251 m 568 801 q 549 703 568 801 l 289 703 l 308 801 l 346 982 l 603 982 q 568 801 585 889 z "},"Ŝ":{"ha":1025,"x_min":51,"x_max":971,"o":"m 971 285 q 960 175 971 210 q 911 88 944 126 q 831 26 878 49 q 732 0 785 3 l 488 0 q 372 48 419 0 q 324 164 324 96 q 314 174 324 174 q 304 164 304 174 l 304 0 l 53 0 l 53 407 l 304 407 l 304 250 l 721 250 l 721 375 l 526 375 q 388 400 454 375 q 321 424 372 406 q 235 457 269 443 q 171 486 201 471 q 108 536 135 506 q 67 605 81 567 q 53 685 53 643 q 65 796 53 757 q 151 919 89 871 q 293 971 214 968 l 536 971 q 619 949 581 971 q 679 889 657 926 q 701 807 701 851 q 711 797 701 797 q 721 807 721 797 l 721 971 l 971 971 l 971 565 l 721 565 l 721 721 l 304 721 l 304 597 l 499 597 q 638 571 572 597 l 651 565 l 829 496 q 904 448 872 479 q 953 374 936 417 q 971 285 971 332 m 489 1113 q 471 1014 486 1092 l 211 1014 l 229 1113 l 267 1293 l 757 1293 l 794 1113 l 815 1014 l 554 1014 q 536 1113 539 1093 q 511 1238 515 1221 q 501 1181 504 1200 q 498 1158 499 1161 q 495 1145 497 1156 q 489 1113 493 1135 z "},"ŝ":{"ha":889,"x_min":51,"x_max":839,"o":"m 674 410 q 664 400 664 410 q 674 390 664 390 q 790 342 742 390 q 839 226 839 294 l 839 164 q 790 49 839 97 q 674 0 742 0 l 51 0 l 51 251 l 215 251 q 225 261 225 251 q 215 271 225 271 q 99 319 147 271 q 51 435 51 367 l 51 496 q 74 578 51 540 q 133 639 96 617 q 215 661 171 661 l 839 661 l 839 410 l 674 410 m 588 261 l 588 400 q 578 410 588 410 l 311 410 q 301 400 301 410 l 301 261 q 311 251 301 251 l 578 251 q 588 261 588 251 m 421 801 q 401 703 421 799 l 142 703 l 163 801 l 200 982 l 690 982 l 728 801 l 746 703 l 486 703 q 468 801 468 801 q 460 849 463 831 q 444 926 457 867 q 421 801 442 913 z "},"Ş":{"ha":1025,"x_min":54,"x_max":972,"o":"m 972 285 q 961 175 972 210 q 913 88 946 126 q 833 26 879 49 q 733 0 786 3 l 582 0 l 571 -29 l 633 -29 q 722 -66 685 -29 q 758 -154 758 -103 l 758 -185 q 722 -274 758 -236 q 633 -311 685 -311 l 621 -311 l 619 -311 l 617 -311 l 604 -311 q 546 -287 571 -311 q 521 -228 521 -262 q 516 -224 521 -224 q 511 -228 511 -224 l 511 -311 l 386 -311 l 386 -154 l 511 -154 l 511 -185 l 633 -185 l 633 -121 q 541 -120 576 -121 q 450 -119 506 -119 l 493 0 l 489 0 q 373 48 421 0 q 325 164 325 96 q 314 174 325 174 q 304 164 304 174 l 304 0 l 54 0 l 54 407 l 304 407 l 304 250 l 722 250 l 722 375 l 526 375 q 388 400 454 375 q 319 424 368 407 q 236 456 271 442 q 172 486 201 471 q 109 536 136 506 q 68 605 82 567 q 54 685 54 643 q 65 796 54 763 q 152 919 90 871 q 293 971 214 968 l 538 971 q 653 923 606 971 q 701 807 701 875 q 711 797 701 797 q 722 807 722 797 l 722 971 l 972 971 l 972 565 l 722 565 l 722 721 l 304 721 l 304 597 l 499 597 q 639 571 574 597 l 651 565 l 829 496 q 933 414 893 471 q 972 285 972 357 z "},"ş":{"ha":890,"x_min":51,"x_max":839,"o":"m 672 410 q 664 400 664 410 q 674 390 664 390 q 790 342 742 390 q 839 226 839 294 l 839 164 q 790 49 839 97 q 674 0 742 0 l 453 0 l 442 -29 l 506 -29 q 594 -65 557 -29 q 631 -154 631 -101 l 631 -185 q 594 -274 631 -236 q 506 -311 557 -311 l 493 -311 l 492 -311 l 489 -311 l 476 -311 q 419 -286 443 -311 q 394 -228 394 -261 q 390 -224 394 -224 q 385 -228 385 -224 l 385 -311 l 258 -311 l 258 -154 l 385 -154 l 385 -185 l 504 -185 l 504 -119 l 321 -119 l 367 0 l 51 0 l 51 251 l 215 251 q 225 261 225 251 q 215 271 225 271 q 99 319 147 271 q 51 435 51 367 l 51 496 q 99 613 51 564 q 215 661 147 661 l 839 661 l 839 410 l 672 410 m 588 261 l 588 400 q 578 410 588 410 l 311 410 q 301 400 301 410 l 301 261 q 311 251 301 251 l 578 251 q 588 261 588 251 z "},"Š":{"ha":1025,"x_min":51,"x_max":972,"o":"m 971 285 q 960 175 971 210 q 911 88 944 126 q 831 26 878 49 q 732 0 785 3 l 488 0 q 372 48 419 0 q 324 164 324 96 q 314 174 324 174 q 304 164 304 174 l 304 0 l 53 0 l 53 407 l 304 407 l 304 250 l 721 250 l 721 375 l 526 375 q 386 400 456 375 q 318 424 367 407 q 235 456 269 442 q 171 486 200 471 q 84 569 115 517 q 53 685 53 621 q 64 796 53 757 q 151 919 89 871 q 293 971 214 968 l 536 971 q 619 949 581 971 q 679 889 657 926 q 701 807 701 851 q 711 797 701 797 q 721 807 721 797 l 721 971 l 971 971 l 971 565 l 721 565 l 721 721 l 303 721 l 303 597 l 499 597 q 638 571 572 597 l 650 565 l 828 496 q 903 448 871 479 q 953 375 936 417 q 971 285 971 333 m 267 1014 l 229 1194 l 208 1293 l 471 1293 q 481 1238 475 1271 q 489 1194 488 1204 q 498 1147 496 1164 q 511 1069 500 1129 q 528 1151 525 1132 q 536 1194 532 1171 q 554 1293 538 1208 l 815 1293 l 794 1194 l 757 1014 l 267 1014 z "},"š":{"ha":890,"x_min":51,"x_max":839,"o":"m 675 410 q 665 400 665 410 q 675 390 665 390 q 791 342 743 390 q 839 226 839 294 l 839 164 q 817 83 839 121 q 757 22 794 44 q 675 0 719 0 l 51 0 l 51 251 l 217 251 q 226 261 226 251 q 217 271 226 271 q 100 319 149 271 q 51 435 51 367 l 51 496 q 100 613 51 564 q 217 661 149 661 l 839 661 l 839 410 l 675 410 m 589 261 l 589 400 q 579 410 589 410 l 313 410 q 303 400 303 410 l 303 261 q 313 251 303 251 l 579 251 q 589 261 589 251 m 200 703 l 163 885 l 142 982 l 404 983 q 411 942 407 965 q 418 906 415 919 q 422 885 421 893 q 431 838 428 857 q 444 760 433 819 q 456 816 453 797 q 460 838 460 835 q 462 852 460 842 q 469 885 464 863 q 473 906 471 893 q 480 942 475 919 q 488 983 485 965 l 749 982 l 728 885 l 690 703 l 200 703 z "},"Ţ":{"ha":967,"x_min":6,"x_max":961,"o":"m 6 971 q 960 971 649 971 l 960 721 l 578 721 l 578 164 q 542 62 578 107 q 450 6 506 17 q 414 0 431 0 l 389 0 l 379 -29 l 440 -29 q 530 -66 493 -29 q 567 -154 567 -103 l 567 -185 q 530 -274 567 -236 q 440 -311 493 -311 l 429 -311 l 425 -311 l 414 -311 q 355 -287 379 -311 q 331 -228 331 -262 q 326 -224 331 -224 q 321 -228 321 -224 l 321 -311 l 193 -311 l 193 -154 l 321 -154 l 321 -185 l 440 -185 l 440 -121 q 349 -120 385 -121 q 257 -119 313 -119 l 303 0 l 272 0 l 272 250 l 317 250 q 328 260 328 250 l 328 721 l 6 721 l 6 971 z "},"ţ":{"ha":851,"x_min":40,"x_max":799,"o":"m 314 410 q 296 400 296 410 l 296 261 q 307 251 296 251 l 799 251 l 799 0 l 431 0 l 421 -29 l 482 -29 q 545 -46 517 -29 q 591 -92 574 -62 q 608 -154 608 -121 l 608 -185 q 592 -247 608 -218 q 546 -294 575 -276 q 482 -311 517 -311 l 469 -311 l 467 -311 l 454 -311 q 396 -286 421 -311 q 371 -228 371 -261 q 366 -224 371 -224 q 361 -228 361 -224 l 361 -311 l 236 -311 l 236 -154 l 361 -154 l 361 -185 l 482 -185 l 482 -119 l 299 -119 l 343 0 l 210 0 q 119 28 160 0 q 60 98 78 57 q 49 188 42 139 q 93 272 57 236 l 218 393 q 219 404 222 399 q 210 410 217 410 l 46 410 l 46 661 l 279 661 l 279 857 l 513 915 q 525 913 519 917 q 531 903 531 910 l 531 661 l 799 661 l 799 410 l 314 410 z "},"Ť":{"ha":967,"x_min":6,"x_max":961,"o":"m 6 971 q 960 971 658 971 l 960 721 l 579 721 l 579 164 q 543 62 579 107 q 450 4 507 17 q 414 0 433 0 l 272 0 l 272 250 l 318 250 q 328 260 328 250 l 328 721 l 6 721 l 6 971 m 239 1014 l 201 1194 l 181 1293 l 440 1293 q 460 1194 458 1207 q 467 1151 464 1171 q 483 1069 471 1132 q 497 1147 494 1129 q 506 1194 500 1164 q 515 1238 508 1204 q 525 1293 521 1271 l 786 1293 l 765 1194 l 729 1014 l 239 1014 z "},"ť":{"ha":1035,"x_min":40,"x_max":1032,"o":"m 531 903 l 531 661 l 799 661 l 799 410 l 314 410 q 297 400 297 410 l 297 261 q 307 251 297 251 l 799 251 l 799 0 l 211 0 q 135 18 171 0 q 79 67 100 36 q 50 133 58 97 q 53 206 42 168 q 93 272 64 243 l 218 393 q 220 404 222 399 q 211 410 218 410 l 46 410 l 46 661 l 281 661 l 281 857 l 513 915 q 525 913 519 917 q 531 903 531 910 m 972 925 q 1014 908 997 925 q 1031 865 1031 890 l 1031 744 l 1031 685 l 1031 629 q 1013 587 1031 604 q 972 569 996 569 l 857 569 l 857 661 l 938 661 q 940 665 940 661 l 940 743 q 938 746 940 746 q 932 743 932 746 q 921 708 932 724 q 892 685 910 692 l 810 685 q 768 703 786 685 q 750 744 750 721 l 750 865 q 768 907 750 889 q 810 925 786 925 l 972 925 z "},"Ũ":{"ha":1122,"x_min":35,"x_max":1058,"o":"m 806 972 l 1058 972 l 1058 164 q 1009 48 1058 96 q 892 0 960 0 l 257 0 q 141 48 189 0 q 93 164 93 96 l 93 711 q 82 721 92 721 l 36 721 l 36 972 l 179 972 q 295 924 247 972 q 343 807 343 875 l 343 260 q 353 250 343 250 l 796 250 q 806 260 806 250 l 806 972 m 424 1178 l 424 1014 l 171 1014 l 171 1100 q 220 1216 171 1168 q 338 1264 269 1264 l 488 1264 q 603 1216 556 1264 q 651 1100 651 1168 q 661 1090 651 1090 q 671 1100 671 1090 l 671 1264 l 922 1264 l 922 1178 q 874 1063 922 1111 q 757 1014 825 1014 l 607 1014 q 491 1063 539 1014 q 443 1178 443 1111 q 433 1188 443 1188 q 424 1178 424 1188 z "},"ũ":{"ha":901,"x_min":53,"x_max":842,"o":"m 590 661 l 842 661 l 842 0 l 590 0 l 590 165 q 581 175 590 175 q 571 165 571 175 q 519 45 571 90 q 407 0 467 0 l 218 0 q 102 49 150 0 q 54 164 54 97 l 54 661 l 304 661 l 304 261 q 314 251 304 251 l 581 251 q 590 261 590 251 l 590 661 m 324 868 l 324 703 l 72 703 l 72 789 q 121 906 72 857 q 238 954 169 954 l 388 954 q 503 906 456 954 q 551 789 551 857 l 551 797 q 552 793 551 796 q 553 789 553 790 q 563 779 553 779 q 572 789 572 779 l 572 954 l 822 954 l 822 868 q 774 751 822 800 q 658 703 726 703 l 507 703 q 391 751 439 703 q 343 868 343 800 q 333 878 343 878 q 324 868 324 878 z "},"Ū":{"ha":1121,"x_min":35,"x_max":1057,"o":"m 804 972 l 1056 972 l 1056 164 q 1007 48 1056 96 q 890 0 958 0 l 256 0 q 140 48 188 0 q 92 164 92 96 l 92 711 q 81 721 89 721 l 36 721 l 36 972 l 178 972 q 293 924 244 972 q 342 807 342 875 l 342 260 q 351 250 342 250 l 794 250 q 804 260 804 250 l 804 972 m 818 1050 l 272 1050 l 272 1229 l 818 1229 l 818 1050 z "},"ū":{"ha":901,"x_min":53,"x_max":842,"o":"m 590 661 l 842 661 l 842 0 l 590 0 l 590 165 q 581 175 590 175 q 571 165 571 175 q 519 45 571 90 q 407 0 468 0 l 218 0 q 102 49 150 0 q 54 164 54 97 l 54 661 l 304 661 l 304 261 q 314 251 304 251 l 581 251 q 590 261 590 251 l 590 661 m 721 739 l 175 739 l 175 918 l 721 918 l 721 739 z "},"Ŭ":{"ha":1121,"x_min":36,"x_max":1057,"o":"m 804 972 l 1056 972 l 1056 164 q 1007 48 1056 96 q 890 0 958 0 l 256 0 q 140 48 188 0 q 92 164 92 96 l 92 711 q 81 721 89 721 l 36 721 l 36 972 l 178 972 q 293 924 244 972 q 342 807 342 875 l 342 260 q 351 250 342 250 l 794 250 q 804 260 804 250 l 804 972 m 396 1014 q 308 1049 344 1014 q 272 1136 272 1085 l 272 1293 l 458 1293 l 458 1208 q 467 1200 458 1200 l 626 1200 q 632 1208 632 1200 l 632 1293 l 821 1293 l 821 1136 q 783 1049 821 1085 q 694 1014 746 1014 l 396 1014 z "},"ŭ":{"ha":901,"x_min":53,"x_max":842,"o":"m 590 661 l 842 661 l 842 0 l 590 0 l 590 165 q 581 175 590 175 q 571 165 571 175 q 519 45 571 90 q 407 0 468 0 l 218 0 q 103 49 151 0 q 54 164 54 97 l 54 661 l 304 661 l 304 261 q 315 251 304 251 l 581 251 q 590 261 590 251 l 590 661 m 299 703 q 210 739 246 703 q 174 825 174 775 l 174 983 l 360 983 l 360 897 q 368 892 360 892 l 528 892 q 533 897 533 892 l 533 983 l 722 983 l 722 825 q 685 739 722 775 q 597 703 649 703 l 299 703 z "},"Ů":{"ha":1121,"x_min":36,"x_max":1057,"o":"m 804 972 l 1056 972 l 1056 164 q 1007 48 1056 96 q 890 0 958 0 l 256 0 q 140 48 188 0 q 92 164 92 96 l 92 711 q 82 721 92 721 l 36 721 l 36 972 l 178 972 q 293 924 244 972 q 342 807 342 875 l 342 260 q 351 250 342 250 l 794 250 q 804 260 804 250 l 804 972 m 546 1014 q 436 1059 482 1014 q 390 1168 390 1104 q 436 1279 390 1233 q 546 1325 482 1325 q 656 1279 610 1325 q 701 1168 701 1233 q 656 1060 701 1106 q 546 1014 610 1014 m 592 1215 q 583 1225 592 1215 q 546 1235 574 1235 q 499 1215 518 1235 q 479 1168 479 1196 q 499 1122 479 1140 q 546 1103 518 1103 q 579 1112 564 1103 q 603 1135 594 1121 q 611 1168 611 1150 q 592 1215 611 1196 z "},"ů":{"ha":901,"x_min":54,"x_max":842,"o":"m 592 661 l 842 661 l 842 0 l 592 0 l 592 165 q 581 175 592 175 q 571 165 571 175 q 519 45 571 90 q 407 0 468 0 l 218 0 q 103 49 151 0 q 54 164 54 97 l 54 661 l 306 661 l 306 261 q 315 251 306 251 l 581 251 q 592 261 592 251 l 592 661 m 449 703 q 338 749 383 703 q 293 859 293 794 q 338 969 293 924 q 448 1014 383 1014 q 558 969 513 1014 q 603 860 603 924 q 582 781 603 817 q 526 724 561 744 q 449 703 490 703 m 495 906 q 485 915 495 906 q 448 925 475 925 q 401 906 421 925 q 381 859 381 886 q 401 812 381 832 q 448 792 421 792 q 495 812 475 792 q 515 859 515 832 q 495 906 515 886 z "},"Ű":{"ha":1121,"x_min":36,"x_max":1057,"o":"m 804 972 l 1056 972 l 1056 164 q 1007 48 1056 96 q 890 0 958 0 l 256 0 q 140 48 188 0 q 92 164 92 96 l 92 711 q 82 721 92 721 l 36 721 l 36 972 l 178 972 q 293 924 244 972 q 342 807 342 875 l 342 260 q 351 250 342 250 l 794 250 q 804 260 804 250 l 804 972 m 806 1014 l 546 1014 l 565 1113 l 604 1293 l 860 1293 q 825 1113 839 1188 q 806 1014 822 1094 m 511 1113 q 492 1014 508 1093 l 232 1014 l 253 1113 l 290 1293 l 546 1293 q 511 1113 525 1189 z "},"ű":{"ha":901,"x_min":53,"x_max":842,"o":"m 592 661 l 842 661 l 842 0 l 592 0 l 592 165 q 582 175 592 175 q 572 165 572 175 q 520 45 572 90 q 407 0 468 0 l 219 0 q 103 49 151 0 q 54 164 54 97 l 54 661 l 306 661 l 306 261 q 315 251 306 251 l 582 251 q 592 261 592 251 l 592 661 m 708 703 l 447 703 l 468 801 l 506 983 l 763 983 q 736 847 740 876 q 728 801 732 818 q 708 703 721 774 m 414 801 q 396 703 414 801 l 133 703 l 154 801 l 192 983 l 447 983 q 422 847 426 876 q 414 801 418 818 z "},"Ų":{"ha":1121,"x_min":36,"x_max":1057,"o":"m 804 972 l 1056 972 l 1056 164 q 1007 48 1056 96 q 890 0 958 0 l 669 0 l 669 -119 q 577 -120 613 -119 q 486 -121 542 -121 l 486 -185 l 607 -185 l 607 -154 l 733 -154 l 733 -311 l 607 -311 l 607 -228 q 600 -224 607 -224 q 596 -228 596 -224 q 572 -287 596 -262 q 513 -311 547 -311 l 501 -311 l 499 -311 l 497 -311 l 486 -311 q 422 -294 451 -311 q 376 -247 393 -276 q 360 -185 360 -218 l 360 -154 q 376 -92 360 -121 q 422 -46 393 -62 q 486 -29 451 -29 l 578 -29 l 578 0 l 256 0 q 140 48 188 0 q 92 164 92 96 l 92 711 q 82 721 92 721 l 36 721 l 36 972 l 178 972 q 294 924 246 972 q 342 807 342 875 l 342 260 q 351 250 342 250 l 794 250 q 804 260 804 250 l 804 972 z "},"ų":{"ha":903,"x_min":54,"x_max":843,"o":"m 781 -119 q 597 -119 707 -119 l 597 -185 l 717 -185 l 717 -154 l 843 -154 l 843 -311 l 717 -311 l 717 -228 q 712 -224 717 -224 q 707 -228 707 -224 q 701 -260 707 -244 q 683 -286 694 -275 q 657 -304 672 -297 q 625 -311 642 -311 l 613 -311 l 610 -311 l 596 -311 q 533 -294 563 -311 q 488 -247 504 -276 q 471 -185 471 -218 l 471 -154 q 508 -66 471 -103 q 596 -29 544 -29 l 689 -29 l 689 0 l 593 0 l 593 165 q 583 175 593 175 q 574 165 574 175 q 547 76 574 115 q 484 19 521 38 q 408 0 447 0 l 221 0 q 104 49 153 0 q 56 164 56 97 l 56 661 l 307 661 l 307 261 q 317 251 307 251 l 583 251 q 593 261 593 251 l 593 661 l 843 661 l 843 0 l 781 0 l 781 -119 z "},"Ŵ":{"ha":1665,"x_min":8,"x_max":1642,"o":"m 1482 971 l 1640 971 l 1640 721 l 1613 721 q 1587 711 1599 721 q 1572 688 1575 701 q 1521 433 1556 601 q 1447 311 1506 354 q 1319 269 1396 269 q 1310 260 1310 269 q 1319 250 1310 250 l 1550 250 l 1550 0 l 1154 0 q 1066 20 1107 0 q 997 76 1025 40 q 960 160 969 113 l 851 697 q 822 718 847 722 q 789 688 796 714 q 773 606 782 651 q 755 515 764 560 q 738 433 746 469 q 665 311 722 354 q 538 269 611 269 q 528 260 528 269 q 538 250 528 250 l 765 250 l 765 0 l 369 0 q 246 44 300 0 q 178 160 192 89 l 10 971 l 271 971 q 411 268 360 519 q 432 250 414 250 l 446 250 q 569 864 486 458 q 615 941 579 911 q 699 971 650 971 l 967 971 q 1016 955 993 971 q 1053 915 1039 939 q 1075 864 1068 892 q 1135 564 1094 763 q 1194 268 1175 365 q 1201 256 1194 261 q 1215 250 1207 250 l 1229 250 q 1268 447 1246 332 q 1312 669 1290 561 q 1351 864 1333 776 q 1398 941 1361 911 q 1482 971 1435 971 m 801 1113 q 782 1014 799 1092 l 522 1014 l 543 1113 l 581 1293 l 1071 1293 l 1108 1113 l 1129 1014 l 867 1014 q 860 1055 864 1033 q 853 1090 856 1076 q 849 1113 850 1104 q 842 1145 844 1135 q 840 1158 840 1156 q 835 1181 839 1161 q 825 1238 832 1200 q 801 1113 822 1222 z "},"ŵ":{"ha":1242,"x_min":53,"x_max":1182,"o":"m 931 661 l 1181 661 l 1181 0 l 931 0 l 931 165 q 921 175 931 175 q 911 165 911 175 q 863 49 911 97 q 746 0 814 0 l 657 0 q 541 49 589 0 q 493 165 493 97 q 483 175 493 175 q 474 165 474 175 q 425 49 474 97 q 310 0 376 0 l 219 0 q 103 49 151 0 q 54 164 54 97 l 54 661 l 306 661 l 306 261 q 315 251 306 251 l 483 251 q 493 261 493 251 l 493 661 l 743 661 l 743 261 q 754 251 743 251 l 921 251 q 931 261 931 251 l 931 661 m 594 801 q 590 781 593 793 q 583 744 588 768 q 575 703 579 721 l 315 703 l 336 801 l 372 982 l 864 982 l 900 801 l 921 703 l 660 703 q 653 736 657 718 q 648 765 650 754 q 644 785 646 775 q 640 801 642 794 q 635 834 636 824 q 633 847 633 844 q 628 869 632 850 q 618 926 625 889 q 594 801 615 911 z "},"Ŷ":{"ha":997,"x_min":6,"x_max":992,"o":"m 796 971 l 990 971 l 990 721 l 839 721 l 624 289 l 624 0 l 372 0 l 372 289 l 157 721 l 6 721 l 6 971 l 200 971 q 292 947 250 971 q 358 876 335 922 l 485 571 q 498 561 488 561 q 511 571 508 561 l 639 876 q 796 971 690 971 m 476 1113 q 467 1072 474 1104 q 456 1014 461 1040 l 196 1014 l 215 1113 l 253 1293 l 743 1293 l 781 1113 l 801 1014 l 542 1014 q 521 1113 525 1094 q 513 1156 515 1138 q 499 1238 511 1175 q 483 1156 486 1175 q 476 1113 481 1138 z "},"ŷ":{"ha":903,"x_min":56,"x_max":843,"o":"m 593 661 l 843 661 l 843 -144 q 821 -228 843 -190 q 760 -289 799 -267 q 679 -311 722 -311 l 56 -311 l 56 -58 l 582 -58 q 593 -50 593 -58 l 593 164 q 582 175 593 175 q 572 164 572 175 q 524 49 572 97 q 408 0 475 0 l 219 0 q 104 49 153 0 q 56 164 56 97 l 56 661 l 307 661 l 307 261 q 317 251 307 251 l 582 251 q 593 261 593 251 l 593 661 m 426 801 q 419 761 425 793 q 407 703 413 729 l 147 703 l 167 801 l 204 982 l 694 982 l 732 801 l 753 703 l 493 703 q 472 801 478 775 q 466 834 468 824 q 464 848 464 844 q 460 870 464 851 q 450 926 457 889 q 438 870 442 889 q 435 848 435 851 q 433 834 435 844 q 426 801 431 824 z "},"Ÿ":{"ha":997,"x_min":6,"x_max":992,"o":"m 796 971 l 990 971 l 990 721 l 839 721 l 624 289 l 624 0 l 372 0 l 372 289 l 157 721 l 6 721 l 6 971 l 200 971 q 292 947 250 971 q 358 876 335 922 l 485 571 q 498 561 488 561 q 511 571 508 561 l 639 876 q 796 971 690 971 m 585 1014 q 555 1022 568 1014 q 533 1043 542 1029 q 525 1072 525 1057 l 525 1194 q 542 1235 525 1218 q 585 1253 560 1253 l 747 1253 q 788 1235 771 1253 q 806 1194 806 1218 l 806 1072 q 788 1031 806 1049 q 747 1014 771 1014 l 585 1014 m 250 1014 q 220 1022 233 1014 q 199 1043 207 1029 q 190 1072 190 1057 l 190 1194 q 208 1235 190 1218 q 250 1253 225 1253 l 413 1253 q 453 1235 436 1253 q 471 1194 471 1218 l 471 1072 q 463 1043 471 1057 q 442 1022 456 1029 q 413 1014 428 1014 l 250 1014 z "},"Ź":{"ha":1019,"x_min":50,"x_max":969,"o":"m 50 971 l 968 971 l 968 685 q 935 568 968 621 q 847 486 903 515 q 817 472 842 482 l 697 424 l 635 400 l 306 271 q 299 258 299 269 q 310 250 301 250 l 968 250 l 968 0 l 50 0 l 50 285 q 82 403 50 350 q 169 486 114 457 q 200 499 189 496 l 319 547 l 382 571 l 711 700 q 718 713 718 704 q 707 721 715 721 l 50 721 l 50 971 m 632 1113 q 611 1014 628 1094 l 351 1014 l 372 1113 l 408 1293 l 665 1293 q 647 1198 653 1229 q 640 1163 640 1167 q 638 1147 640 1158 q 632 1113 636 1136 z "},"ź":{"ha":889,"x_min":50,"x_max":838,"o":"m 792 389 l 667 268 q 665 256 663 263 q 674 250 667 250 l 838 250 l 838 0 l 50 0 l 50 161 q 97 271 50 225 l 222 393 q 224 404 226 399 q 215 410 222 410 l 50 410 l 50 660 q 444 660 182 660 q 838 661 706 661 l 838 500 q 792 389 838 435 m 588 261 l 588 400 q 578 410 588 410 l 311 410 q 301 400 301 410 l 301 261 q 311 250 301 250 l 578 250 q 588 261 588 250 m 567 801 q 563 785 565 794 q 559 765 561 775 q 553 736 557 754 q 547 703 550 718 l 288 703 l 308 801 l 344 983 l 601 983 q 567 801 585 900 z "},"Ż":{"ha":1019,"x_min":50,"x_max":969,"o":"m 50 971 l 968 971 l 968 685 q 954 604 968 643 q 913 535 940 565 q 849 486 886 506 q 818 472 843 482 l 699 424 l 636 400 l 307 271 q 300 258 297 268 q 311 250 303 250 l 968 250 l 968 0 l 50 0 l 50 285 q 83 403 50 350 q 171 486 115 456 q 201 499 190 496 l 321 547 l 383 571 l 713 700 q 719 713 719 704 q 708 721 717 721 l 50 721 l 50 971 m 428 1014 q 387 1031 404 1014 q 369 1072 369 1049 l 369 1194 q 387 1235 369 1218 q 428 1253 404 1253 l 592 1253 q 621 1244 607 1253 q 642 1223 635 1236 q 650 1194 650 1210 l 650 1072 q 642 1043 650 1057 q 621 1022 635 1029 q 592 1014 607 1014 l 428 1014 z "},"ż":{"ha":890,"x_min":51,"x_max":839,"o":"m 790 389 l 667 268 q 665 256 663 263 q 674 250 667 250 l 839 250 l 839 0 l 51 0 l 51 161 q 97 271 51 225 l 222 393 q 224 404 226 399 q 215 410 222 410 l 51 410 l 51 660 q 445 660 183 660 q 839 661 707 661 l 839 500 q 790 389 839 435 m 588 261 l 588 400 q 578 410 588 410 l 311 410 q 301 400 301 410 l 301 261 q 311 250 301 250 l 578 250 q 588 261 588 250 m 364 703 q 322 720 339 703 q 304 763 304 738 l 304 883 q 309 906 304 894 q 322 924 314 917 q 340 937 329 932 q 364 942 351 942 l 526 942 q 567 924 550 942 q 585 883 585 907 l 585 763 q 567 720 585 738 q 526 703 550 703 l 364 703 z "},"Ž":{"ha":1019,"x_min":50,"x_max":969,"o":"m 50 971 l 968 971 l 968 685 q 953 604 968 643 q 912 535 939 565 q 849 486 885 506 q 832 477 843 482 q 818 472 821 472 l 699 424 l 636 400 l 307 271 q 300 258 297 268 q 310 250 300 250 l 968 250 l 968 0 l 50 0 l 50 285 q 82 403 50 350 q 169 486 114 456 q 200 499 186 494 l 321 547 l 383 571 l 711 700 q 718 713 721 706 q 708 721 718 721 l 50 721 l 50 971 m 264 1014 l 226 1194 l 206 1293 l 468 1293 q 478 1238 472 1271 q 486 1194 485 1204 q 494 1147 492 1165 q 510 1069 497 1129 q 524 1145 521 1128 q 533 1194 526 1163 q 551 1293 535 1208 l 813 1293 l 792 1194 l 754 1014 l 264 1014 z "},"ž":{"ha":889,"x_min":50,"x_max":838,"o":"m 792 389 l 667 268 q 665 256 663 263 q 674 250 667 250 l 838 250 l 838 0 l 50 0 l 50 161 q 97 271 50 225 l 222 393 q 224 404 226 399 q 215 410 222 410 l 50 410 l 50 660 q 444 660 182 660 q 838 661 706 661 l 838 500 q 792 389 838 435 m 588 261 l 588 400 q 578 410 588 410 l 311 410 q 301 400 301 410 l 301 261 q 311 250 301 250 l 578 250 q 588 261 588 250 m 199 703 l 161 885 l 143 982 l 403 983 q 421 885 421 885 q 429 838 426 857 q 444 760 432 819 q 468 885 446 774 q 472 906 469 893 q 478 942 474 919 q 486 983 483 965 l 747 982 l 726 885 l 689 703 l 199 703 z "},"ƒ":{"ha":625,"x_min":-301,"x_max":839,"o":"m 753 715 l 531 715 l 485 581 l 614 581 l 528 331 l 397 331 l 207 -221 q 171 -274 196 -253 q 115 -306 146 -296 q 49 -315 85 -315 l -301 -315 l -215 -65 l 8 -65 l 143 331 l 25 331 l 111 581 l 229 581 l 329 872 q 390 942 346 918 q 488 967 433 967 l 839 967 l 753 715 z "},"Ȧ":{"ha":1013,"x_min":24,"x_max":1001,"o":"m 835 813 l 1000 0 l 740 0 l 690 257 l 531 257 q 421 305 461 257 q 394 421 381 353 q 383 431 394 431 q 374 421 374 431 l 313 107 q 267 30 303 60 q 183 0 231 0 l 24 0 l 24 251 l 51 251 q 92 285 85 251 q 143 538 106 353 q 217 660 158 617 q 344 701 268 701 q 354 711 354 701 q 344 721 354 721 l 117 721 l 117 971 l 640 971 q 767 926 713 971 q 835 813 821 882 m 392 507 l 639 507 l 600 704 q 579 721 596 721 l 435 721 l 392 507 m 431 1035 q 388 1051 406 1035 q 371 1093 371 1068 l 371 1214 q 388 1256 371 1239 q 431 1272 406 1272 l 594 1272 q 635 1256 618 1272 q 653 1214 653 1239 l 653 1093 q 635 1051 653 1068 q 594 1035 618 1035 l 431 1035 z "},"ȧ":{"ha":914,"x_min":40,"x_max":876,"o":"m 833 261 q 835 255 833 257 q 842 252 838 253 q 851 251 847 251 q 864 251 856 251 q 876 251 872 251 l 876 0 l 747 0 q 631 49 679 0 q 582 164 582 97 q 572 174 582 174 q 563 164 563 174 q 514 49 563 97 q 399 0 465 0 l 210 0 q 119 28 160 0 q 60 98 78 57 q 49 188 42 139 q 93 272 57 236 l 218 393 q 219 404 222 399 q 210 410 217 410 l 46 410 l 46 660 l 669 660 q 785 612 738 660 q 833 496 833 564 l 833 261 m 582 261 l 582 400 q 572 410 582 410 l 306 410 q 296 400 296 410 l 296 261 q 306 251 296 251 l 572 251 q 582 261 582 251 m 379 724 q 338 741 356 724 q 321 782 321 758 l 321 904 q 326 926 321 915 q 338 945 331 938 q 356 958 346 953 q 379 963 367 963 l 543 963 q 565 958 554 963 q 585 945 576 953 q 597 926 593 938 q 601 904 601 915 l 601 782 q 584 741 601 758 q 543 724 567 724 l 379 724 z "},"ˆ":{"ha":693,"x_min":43,"x_max":650,"o":"m 628 792 l 649 693 l 389 692 q 369 792 371 783 q 362 833 365 814 q 346 915 358 853 q 332 839 335 857 q 324 792 329 821 q 319 769 321 782 q 313 733 317 756 q 304 692 308 711 l 43 693 l 64 792 l 100 972 l 592 972 l 628 792 z "},"ˇ":{"ha":693,"x_min":42,"x_max":650,"o":"m 389 972 l 649 972 l 628 872 l 592 692 l 100 692 l 64 872 l 43 972 l 303 972 q 312 930 307 951 q 319 894 317 908 q 324 872 322 881 q 331 828 328 847 q 346 749 333 810 q 361 828 358 810 q 368 872 364 847 q 389 972 375 901 z "},"˘":{"ha":643,"x_min":47,"x_max":596,"o":"m 410 972 l 596 972 l 596 815 q 560 728 596 764 q 471 692 524 692 l 174 692 q 84 728 121 692 q 47 815 47 764 l 47 972 l 235 972 l 235 886 q 242 879 235 879 l 401 879 q 410 886 410 879 l 410 972 z "},"˙":{"ha":375,"x_min":46,"x_max":329,"o":"m 269 931 q 310 913 293 931 q 328 871 328 896 l 328 750 q 310 709 328 726 q 269 692 293 692 l 104 692 q 76 699 89 692 q 54 721 63 707 q 46 750 46 735 l 46 871 q 63 913 46 896 q 104 931 81 931 l 269 931 z "},"˛":{"ha":143,"x_min":-192,"x_max":181,"o":"m 54 -160 l 179 -160 l 179 -315 l 54 -315 l 54 -235 q 49 -228 54 -228 q 44 -235 44 -228 q 20 -292 44 -268 q -39 -315 -4 -315 l -50 -315 l -53 -315 l -54 -315 l -65 -315 q -155 -279 -118 -315 q -192 -192 -192 -243 l -192 -160 q -155 -72 -192 -108 q -65 -35 -118 -35 l 25 -35 l 25 21 l 118 21 l 118 -126 l -65 -126 l -65 -189 l 54 -189 l 54 -160 z "},"˜":{"ha":840,"x_min":44,"x_max":796,"o":"m 544 972 l 794 972 l 794 886 q 747 768 794 817 q 631 719 699 719 l 479 719 q 363 768 411 719 q 315 886 315 817 q 306 896 315 896 q 296 886 296 896 l 296 719 l 44 719 l 44 806 q 48 839 44 822 q 58 870 51 856 q 73 898 64 885 q 93 923 82 911 q 118 944 104 935 q 147 959 132 953 q 177 969 161 965 q 210 972 193 972 l 360 972 q 476 923 428 972 q 524 806 524 874 q 534 796 524 796 q 544 806 544 796 l 544 972 z "},"Δ":{"ha":1046,"x_min":-4,"x_max":1049,"o":"m 1036 93 q 1026 29 1049 61 q 1011 14 1019 21 q 992 3 1003 7 q 969 0 982 0 l 75 0 q 18 29 40 0 q 8 93 -4 58 q 144 486 54 225 q 279 878 235 747 q 340 948 296 924 q 438 972 383 972 l 608 972 q 706 948 663 972 q 765 878 750 924 q 901 486 811 747 q 1036 93 990 225 m 317 251 l 728 251 l 567 721 l 479 721 l 317 251 z "},"Π":{"ha":1092,"x_min":58,"x_max":1032,"o":"m 782 971 q 958 897 885 971 q 1032 721 1032 824 q 1031 306 1032 451 q 1031 0 1031 160 l 781 0 l 781 721 l 310 721 l 310 0 l 60 0 l 60 721 q 133 897 60 824 q 310 971 207 971 l 782 971 z "},"Σ":{"ha":908,"x_min":58,"x_max":871,"o":"m 358 721 q 338 706 343 721 q 347 682 335 689 l 683 486 l 347 289 q 338 265 335 282 q 358 251 342 251 l 869 251 l 869 0 l 58 0 l 58 286 q 136 457 58 392 l 186 486 l 136 514 q 58 685 58 581 l 58 972 l 869 972 l 869 721 l 358 721 z "},"Ω":{"ha":1086,"x_min":56,"x_max":1029,"o":"m 864 271 q 854 261 854 271 q 864 251 854 251 l 1028 251 l 1028 0 l 667 0 l 667 251 l 778 251 l 778 721 l 307 721 l 307 251 l 417 251 l 417 0 l 57 0 l 57 251 l 221 251 q 232 261 232 251 q 221 271 232 271 q 106 319 154 271 q 57 435 57 368 l 57 721 q 131 898 57 824 q 307 972 204 972 l 779 972 q 876 952 829 972 q 956 898 922 932 q 1009 818 989 864 q 1029 721 1029 772 q 1028 578 1029 682 q 1028 435 1028 474 q 1015 372 1028 401 q 980 319 1001 342 q 928 284 958 297 q 864 271 897 271 z "},"μ":{"ha":907,"x_min":58,"x_max":847,"o":"m 596 256 l 596 656 l 847 656 l 847 -6 l 596 -6 l 596 160 q 586 169 596 169 q 576 160 576 169 q 525 40 576 86 q 413 -6 474 -6 l 310 -6 l 310 -315 l 60 -315 l 60 656 l 310 656 l 310 256 q 319 246 310 246 l 586 246 q 596 256 596 246 z "},"π":{"ha":1356,"x_min":22,"x_max":1333,"o":"m 22 661 q 1332 661 896 661 l 1332 411 l 1081 411 l 1081 165 q 1045 62 1081 107 q 953 4 1010 17 q 917 0 936 0 l 775 0 l 775 251 l 821 251 q 831 261 831 251 l 831 336 l 831 411 l 524 411 l 524 165 q 488 63 524 108 q 397 4 451 18 q 358 0 378 0 l 217 0 l 217 251 l 263 251 q 272 261 272 251 l 272 336 l 272 411 l 22 411 l 22 661 z "},"Ẁ":{"ha":1665,"x_min":10,"x_max":1642,"o":"m 1482 971 l 1642 971 l 1642 721 l 1614 721 q 1587 711 1599 721 q 1574 688 1575 701 q 1522 433 1539 522 q 1447 311 1507 356 q 1321 269 1396 269 q 1311 260 1311 269 q 1321 250 1311 250 l 1549 250 l 1549 0 l 1154 0 q 1028 44 1082 0 q 961 160 974 89 l 853 697 q 821 718 847 722 q 789 688 794 714 q 764 561 781 646 q 739 433 747 476 q 664 311 724 356 q 538 269 613 269 q 528 260 528 269 q 538 250 528 250 l 767 250 l 767 0 l 371 0 q 283 20 324 0 q 214 76 242 40 q 176 160 186 113 l 11 971 l 271 971 q 340 622 293 856 q 411 268 388 388 q 432 250 417 250 l 446 250 q 569 864 540 715 q 615 941 579 911 q 700 971 651 971 l 968 971 q 1037 939 1007 971 q 1076 864 1067 907 q 1194 268 1163 429 q 1214 250 1200 250 l 1231 250 q 1293 569 1251 363 q 1351 864 1335 775 q 1377 920 1358 896 q 1423 958 1396 944 q 1482 971 1450 971 m 722 1014 q 714 1055 718 1033 q 708 1090 710 1076 q 703 1113 706 1104 q 696 1156 700 1128 q 669 1293 692 1185 l 926 1293 l 963 1113 l 983 1014 l 722 1014 z "},"ẁ":{"ha":1242,"x_min":53,"x_max":1182,"o":"m 929 661 l 1181 661 l 1181 0 l 929 0 l 929 165 q 919 175 929 175 q 910 165 910 175 q 888 83 910 121 q 828 22 867 44 q 746 0 790 0 l 657 0 q 541 49 589 0 q 493 165 493 97 q 483 175 493 175 q 472 165 472 175 q 424 49 472 97 q 307 0 375 0 l 218 0 q 102 49 150 0 q 54 164 54 97 l 54 661 l 304 661 l 304 261 q 314 251 304 251 l 482 251 q 493 261 493 251 l 493 661 l 743 661 l 743 261 q 753 251 743 251 l 919 251 q 929 261 929 251 l 929 661 m 513 703 q 506 744 510 721 q 499 781 501 768 q 494 801 496 793 q 486 847 490 818 q 461 983 482 876 l 717 983 l 754 801 l 775 704 l 513 703 z "},"Ẃ":{"ha":1665,"x_min":8,"x_max":1642,"o":"m 1482 971 l 1640 971 l 1640 721 l 1613 721 q 1587 711 1599 721 q 1572 688 1575 701 q 1521 433 1556 601 q 1447 311 1506 354 q 1319 269 1396 269 q 1310 260 1310 269 q 1319 250 1310 250 l 1550 250 l 1550 0 l 1153 0 q 1028 44 1082 0 q 960 160 974 89 l 851 697 q 822 718 847 722 q 789 688 796 714 q 773 606 782 651 q 755 515 764 560 q 738 433 746 469 q 665 311 722 354 q 538 269 611 269 q 528 260 528 269 q 538 250 528 250 l 765 250 l 765 0 l 369 0 q 246 44 300 0 q 178 160 192 89 l 10 971 l 269 971 q 341 617 294 851 q 411 268 388 383 q 432 250 414 250 l 446 250 q 569 864 488 458 q 615 941 579 911 q 699 971 650 971 l 967 971 q 1016 955 993 971 q 1053 915 1039 939 q 1075 864 1068 892 q 1134 567 1094 765 q 1194 268 1174 368 q 1201 256 1196 261 q 1215 250 1207 250 l 1229 250 q 1260 403 1243 317 q 1290 558 1276 490 q 1321 710 1304 626 q 1351 864 1338 794 q 1376 920 1358 896 q 1422 958 1394 944 q 1482 971 1450 971 m 949 1113 q 944 1090 946 1104 q 938 1055 942 1076 q 929 1014 933 1033 l 668 1014 l 689 1113 l 725 1293 l 982 1293 q 963 1198 969 1229 q 957 1163 957 1167 q 955 1147 957 1158 q 949 1113 953 1136 z "},"ẃ":{"ha":1242,"x_min":53,"x_max":1182,"o":"m 931 661 l 1181 661 l 1181 0 l 931 0 l 931 165 q 921 175 931 175 q 911 165 911 175 q 863 49 911 97 q 746 0 814 0 l 657 0 q 541 49 589 0 q 493 165 493 97 q 483 175 493 175 q 474 165 474 175 q 425 49 474 97 q 307 0 376 0 l 218 0 q 103 49 151 0 q 54 164 54 97 l 54 661 l 304 661 l 304 261 q 315 251 304 251 l 483 251 q 493 261 493 251 l 493 661 l 743 661 l 743 261 q 753 251 743 251 l 921 251 q 931 261 931 251 l 931 661 m 742 801 q 733 761 739 793 q 721 703 726 729 l 461 704 l 482 801 l 518 983 l 775 983 q 749 847 753 876 q 742 801 744 818 z "},"Ẅ":{"ha":1665,"x_min":10,"x_max":1642,"o":"m 1482 971 l 1642 971 l 1642 721 l 1614 721 q 1587 711 1599 721 q 1574 688 1575 701 q 1522 433 1538 519 q 1447 311 1507 356 q 1321 269 1396 269 q 1311 260 1311 269 q 1321 250 1311 250 l 1549 250 l 1549 0 l 1154 0 q 1028 44 1082 0 q 961 160 974 89 l 853 697 q 821 718 847 722 q 789 688 794 714 q 764 561 781 646 q 739 433 747 476 q 664 311 724 356 q 538 269 613 269 q 528 260 528 269 q 538 250 528 250 l 767 250 l 767 0 l 371 0 q 246 44 300 0 q 176 160 192 89 l 11 971 l 271 971 q 340 622 293 856 q 411 268 388 388 q 419 256 413 261 q 432 250 425 250 l 446 250 q 569 864 540 715 q 615 941 579 911 q 700 971 651 971 l 968 971 q 1037 939 1007 971 q 1076 864 1067 907 q 1135 567 1096 765 q 1193 268 1174 368 q 1214 250 1200 250 l 1229 250 q 1351 864 1322 713 q 1377 920 1358 896 q 1423 958 1396 944 q 1482 971 1450 971 m 911 1035 q 870 1051 888 1035 q 853 1093 853 1068 l 853 1213 q 870 1255 853 1238 q 911 1272 888 1272 l 1074 1272 q 1117 1255 1100 1272 q 1133 1213 1133 1238 l 1133 1093 q 1126 1063 1133 1076 q 1104 1042 1118 1050 q 1074 1035 1090 1035 l 911 1035 m 576 1035 q 535 1051 553 1035 q 518 1093 518 1068 l 518 1213 q 535 1255 518 1238 q 576 1272 553 1272 l 739 1272 q 781 1255 764 1272 q 799 1213 799 1238 l 799 1093 q 791 1063 799 1076 q 769 1042 783 1050 q 739 1035 756 1035 l 576 1035 z "},"ẅ":{"ha":1242,"x_min":54,"x_max":1182,"o":"m 929 661 l 1181 661 l 1181 0 l 929 0 l 929 165 q 919 175 929 175 q 910 165 910 175 q 888 83 910 121 q 828 22 865 44 q 746 0 790 0 l 657 0 q 574 22 613 0 q 513 83 536 44 q 490 165 490 121 q 481 175 490 175 q 472 165 472 175 q 424 49 472 97 q 307 0 375 0 l 218 0 q 102 49 150 0 q 54 164 54 97 l 54 661 l 304 661 l 304 261 q 314 251 304 251 l 482 251 q 490 261 490 251 l 490 661 l 743 661 l 743 261 q 753 251 743 251 l 919 251 q 929 261 929 251 l 929 661 m 703 703 q 662 720 679 703 q 644 763 644 738 l 644 883 q 662 924 644 907 q 703 942 679 942 l 865 942 q 908 924 890 942 q 925 883 925 907 l 925 763 q 908 720 925 738 q 865 703 890 703 l 703 703 m 368 703 q 327 720 344 703 q 310 763 310 738 l 310 883 q 327 924 310 907 q 368 942 344 942 l 531 942 q 573 924 556 942 q 590 883 590 907 l 590 763 q 573 720 590 738 q 531 703 556 703 l 368 703 z "},"Ẽ":{"ha":1007,"x_min":49,"x_max":968,"o":"m 967 721 l 354 721 l 354 604 l 838 604 l 838 367 l 538 367 q 422 417 471 368 q 374 532 374 465 q 364 542 374 542 q 354 532 354 542 l 354 250 l 967 250 l 967 0 l 539 0 q 456 22 494 0 q 396 82 418 44 q 374 164 374 119 q 364 174 374 174 q 354 164 354 174 q 306 48 354 96 q 190 0 258 0 l 49 0 l 49 250 l 94 250 q 104 260 104 250 l 104 538 q 152 653 104 606 q 268 701 200 701 q 278 711 278 701 q 268 721 278 721 l 49 721 l 49 971 l 967 971 l 967 721 m 383 1178 l 383 1014 l 133 1014 l 133 1100 q 181 1216 133 1168 q 297 1264 229 1264 l 447 1264 q 563 1216 515 1264 q 611 1100 611 1168 l 611 1108 q 613 1100 613 1104 q 622 1090 613 1090 q 632 1100 632 1090 l 632 1264 l 882 1264 l 882 1178 q 834 1063 882 1111 q 718 1014 786 1014 l 567 1014 q 484 1036 522 1014 q 424 1096 446 1058 q 403 1178 403 1133 q 393 1188 403 1188 q 383 1178 383 1188 z "},"ẽ":{"ha":883,"x_min":50,"x_max":843,"o":"m 672 250 l 838 250 l 838 0 l 203 0 q 94 52 139 4 q 50 164 50 100 l 50 496 q 98 612 50 564 q 214 660 146 660 l 672 660 q 719 653 696 660 q 763 633 743 646 q 797 603 782 621 q 821 564 813 585 q 834 472 843 519 q 789 389 825 424 l 665 268 q 663 256 661 263 q 672 250 665 250 m 586 260 l 586 400 q 576 410 586 410 l 310 410 q 300 400 300 410 l 300 260 q 310 250 300 250 l 576 250 q 586 260 586 250 m 319 868 l 319 703 l 69 703 l 69 789 q 117 906 69 857 q 233 954 165 954 l 383 954 q 500 906 451 954 q 549 789 549 857 q 558 779 549 779 q 568 789 568 779 l 568 954 l 818 954 l 818 868 q 797 785 818 824 q 737 725 775 747 q 654 703 699 703 l 504 703 q 388 751 436 703 q 339 868 339 800 q 329 878 339 878 q 319 868 319 878 z "},"Ỳ":{"ha":997,"x_min":6,"x_max":992,"o":"m 796 971 l 990 971 l 990 721 l 839 721 l 624 289 l 624 0 l 372 0 l 372 289 l 157 721 l 6 721 l 6 971 l 200 971 q 292 947 250 971 q 358 876 335 922 l 485 571 q 498 561 488 561 q 511 571 508 561 l 639 876 q 796 971 690 971 m 394 1014 q 386 1055 390 1033 q 380 1090 382 1076 q 375 1113 378 1104 q 368 1158 372 1131 q 342 1293 364 1186 l 599 1293 l 635 1113 l 656 1014 l 394 1014 z "},"ỳ":{"ha":903,"x_min":54,"x_max":843,"o":"m 592 661 l 843 661 l 843 -144 q 794 -262 843 -212 q 678 -311 746 -311 l 56 -311 l 56 -58 l 582 -58 q 592 -50 592 -58 l 592 164 q 582 175 592 175 q 572 164 572 175 q 524 49 572 97 q 408 0 475 0 l 219 0 q 103 49 151 0 q 56 164 56 97 l 56 661 l 306 661 l 306 261 q 315 251 306 251 l 582 251 q 592 261 592 251 l 592 661 m 346 703 q 326 801 326 799 q 292 982 310 894 l 549 982 l 586 801 l 606 703 l 346 703 z "},"–":{"ha":882,"x_min":47,"x_max":835,"o":"m 835 206 l 47 206 l 47 456 l 835 456 l 835 206 z "},"—":{"ha":1465,"x_min":47,"x_max":1418,"o":"m 1418 206 l 47 206 l 47 456 l 1418 456 l 1418 206 z "},"‘":{"ha":381,"x_min":51,"x_max":332,"o":"m 272 858 q 296 853 285 858 q 315 841 307 849 q 327 822 322 833 q 332 800 332 811 l 332 678 q 315 637 332 654 q 274 619 297 619 l 110 619 q 69 637 86 619 q 51 678 51 654 l 51 800 l 51 858 l 51 914 q 69 957 51 939 q 113 975 88 975 l 225 975 l 225 882 l 147 882 q 144 879 144 882 l 144 801 q 147 797 144 797 q 150 801 150 797 q 162 837 150 821 q 192 858 174 853 l 272 858 z "},"‚":{"ha":375,"x_min":46,"x_max":329,"o":"m 269 236 q 310 219 293 236 q 328 176 328 201 l 328 56 l 328 -85 l 328 -142 q 319 -172 328 -158 q 297 -194 311 -186 q 267 -203 283 -203 l 153 -203 l 153 -110 l 232 -110 q 236 -24 236 -110 l 236 54 q 233 60 236 60 q 229 54 229 60 q 217 20 229 36 q 188 -1 206 4 l 104 -1 q 63 15 81 -1 q 46 56 46 32 l 46 178 q 63 219 46 201 q 104 236 81 236 l 269 236 z "},"‛":{"ha":381,"x_min":51,"x_max":333,"o":"m 272 975 q 303 967 289 975 q 324 945 317 958 q 332 915 332 932 l 332 794 q 315 752 332 769 q 274 735 297 735 l 192 735 q 170 747 179 739 q 156 767 161 756 q 150 793 150 779 q 147 796 150 796 q 144 793 144 796 l 144 715 q 147 711 144 711 l 225 711 l 225 619 l 113 619 q 69 637 88 619 q 51 679 51 654 l 51 735 l 51 915 q 69 957 51 939 q 110 975 86 975 l 272 975 z "},"“":{"ha":703,"x_min":51,"x_max":656,"o":"m 274 857 q 315 840 297 857 q 332 797 332 822 l 332 676 q 315 636 332 653 q 274 619 297 619 l 110 619 q 68 636 85 619 q 51 676 51 653 l 51 797 l 51 857 l 51 914 q 69 956 51 938 q 113 974 88 974 l 225 974 l 225 882 l 147 882 q 142 879 142 882 l 142 800 q 147 796 142 796 q 150 800 150 796 q 162 835 150 819 q 192 857 174 850 l 274 857 m 596 857 q 638 840 621 857 q 656 797 656 822 l 656 676 q 638 636 656 653 q 596 619 621 619 l 432 619 q 391 636 408 619 q 374 676 374 653 l 374 797 l 374 857 l 374 914 q 391 956 374 938 q 433 974 408 974 l 547 974 l 547 882 l 469 882 q 465 879 465 882 l 465 800 q 469 796 465 796 q 472 800 472 796 q 478 824 472 813 q 492 844 483 836 q 514 857 501 853 l 596 857 z "},"”":{"ha":703,"x_min":47,"x_max":651,"o":"m 269 974 q 298 966 285 974 q 319 944 311 958 q 328 914 328 931 l 328 794 l 328 736 l 328 678 q 319 649 328 663 q 297 627 311 635 q 267 619 283 619 l 154 619 l 154 710 l 232 710 q 235 714 235 710 l 235 793 q 232 796 235 796 q 229 793 229 796 q 217 758 229 774 q 188 736 206 742 l 106 736 q 64 753 81 736 q 47 794 47 769 l 47 914 q 64 956 47 939 q 106 974 81 974 l 269 974 m 592 974 q 634 956 617 974 q 651 914 651 939 l 651 794 l 651 736 l 651 678 q 633 637 651 654 q 590 619 615 619 l 476 619 l 476 710 l 556 710 q 558 714 558 710 l 558 793 q 556 796 558 796 q 553 793 553 796 q 541 758 553 774 q 511 736 529 742 l 428 736 q 387 753 404 736 q 369 794 369 769 l 369 914 q 387 956 369 939 q 428 974 404 974 l 592 974 z "},"„":{"ha":694,"x_min":46,"x_max":649,"o":"m 268 236 q 309 219 292 236 q 326 178 326 201 l 326 56 l 326 -1 l 326 -58 q 318 -89 326 -75 q 296 -111 310 -103 q 265 -119 282 -119 l 153 -119 l 153 -26 l 231 -26 q 233 -24 233 -26 l 233 54 q 231 60 233 60 q 228 54 228 60 q 216 20 228 36 q 186 -1 204 4 l 103 -1 q 63 15 79 -1 q 46 56 46 32 l 46 178 q 63 219 46 201 q 103 236 79 236 l 268 236 m 592 236 q 609 233 600 236 q 625 225 618 231 q 638 212 632 219 q 646 195 643 204 q 649 178 649 186 l 649 56 l 649 -1 l 649 -58 q 640 -89 649 -75 q 619 -111 632 -103 q 589 -119 606 -119 l 475 -119 l 475 -26 l 554 -26 q 557 -24 557 -26 l 557 54 q 554 60 557 60 q 550 54 550 60 q 539 19 550 35 q 510 -1 528 4 l 426 -1 q 385 15 403 -1 q 368 56 368 32 l 368 178 q 385 219 368 201 q 426 236 403 236 l 592 236 z "},"†":{"ha":875,"x_min":43,"x_max":831,"o":"m 563 656 l 831 656 l 831 406 l 563 406 l 563 -315 l 313 -315 l 313 406 l 44 406 l 44 656 l 313 656 l 313 967 l 563 967 l 563 656 z "},"‡":{"ha":904,"x_min":57,"x_max":846,"o":"m 846 406 l 578 406 l 578 246 l 846 246 l 846 -6 l 578 -6 l 578 -315 l 326 -315 l 326 -6 l 58 -6 l 58 246 l 326 246 l 326 406 l 58 406 l 58 656 l 326 656 l 326 967 l 578 967 l 578 656 l 846 656 l 846 406 z "},"‰":{"ha":1672,"x_min":47,"x_max":1625,"o":"m 675 972 l 790 972 l 469 0 l 356 0 l 675 972 m 535 653 q 518 591 535 619 q 473 547 501 563 q 411 531 444 531 l 171 531 q 83 566 119 531 q 47 653 47 601 l 47 849 q 83 935 47 899 q 171 972 119 972 l 413 972 q 473 956 444 972 q 518 910 501 939 q 535 849 535 882 l 535 653 m 349 725 l 349 776 q 340 783 349 783 l 242 783 q 233 776 233 783 l 233 725 q 242 718 233 718 l 340 718 q 349 725 349 718 m 976 440 q 1063 404 1026 440 q 1099 318 1099 368 l 1099 124 q 1062 35 1099 71 q 974 0 1025 0 l 736 0 q 647 35 685 0 q 610 124 610 71 l 610 318 q 647 404 610 368 q 735 440 683 440 l 976 440 m 911 194 l 911 246 q 904 254 911 254 l 804 254 q 797 246 797 254 l 797 194 q 804 188 797 188 l 904 188 q 911 194 911 188 m 1500 440 q 1587 404 1550 440 q 1624 318 1624 368 l 1624 124 q 1587 35 1624 71 q 1497 0 1550 0 l 1260 0 q 1172 36 1208 0 q 1135 124 1135 72 l 1135 318 q 1151 380 1135 351 q 1197 424 1168 408 q 1257 440 1225 440 l 1500 440 m 1436 194 l 1436 246 q 1429 254 1436 254 l 1329 254 q 1322 246 1322 254 l 1322 194 q 1329 188 1322 188 l 1429 188 q 1436 194 1436 188 z "},"‹":{"ha":417,"x_min":46,"x_max":369,"o":"m 369 661 l 231 321 l 369 0 l 185 0 l 47 321 l 185 661 l 369 661 z "},"›":{"ha":418,"x_min":47,"x_max":371,"o":"m 231 661 l 371 321 l 231 0 l 47 0 l 186 321 l 47 661 l 231 661 z "},"⁄":{"ha":1086,"x_min":67,"x_max":1021,"o":"m 769 972 l 1019 972 l 318 0 l 67 0 l 769 972 z "},"€":{"ha":888,"x_min":51,"x_max":826,"o":"m 826 661 l 576 661 l 576 721 l 393 721 l 393 611 l 679 611 l 679 496 l 393 496 l 393 476 l 679 476 l 679 361 l 393 361 l 393 251 l 576 251 l 576 310 l 826 310 l 826 0 l 576 0 l 576 165 q 567 175 576 175 q 557 165 557 175 q 463 14 557 53 q 276 26 374 -21 q 146 199 167 81 q 140 250 140 224 l 140 361 l 51 361 l 51 476 l 140 476 l 140 496 l 51 496 l 51 611 l 140 611 l 140 721 q 250 929 140 857 q 436 965 340 989 q 551 851 531 942 q 557 806 557 831 q 567 796 557 796 q 576 806 576 796 l 576 972 l 826 972 l 826 661 z "},"™":{"ha":1150,"x_min":42,"x_max":1096,"o":"m 190 856 l 42 856 l 42 972 l 482 972 l 482 856 l 307 856 l 307 600 q 290 553 307 574 q 247 525 272 532 q 239 524 244 525 q 229 524 233 524 l 164 524 l 164 640 l 186 640 q 190 643 190 640 l 190 856 m 969 972 l 1096 972 l 1096 524 l 981 524 l 981 840 q 977 844 981 844 q 974 840 974 844 l 925 575 q 903 538 919 553 q 864 524 886 524 l 774 524 q 733 538 750 524 q 713 575 717 553 l 661 840 q 658 844 661 844 q 656 840 656 844 l 656 600 q 645 562 656 579 q 618 534 635 544 q 581 524 601 524 l 515 524 l 515 640 l 536 640 q 540 643 540 640 l 540 771 q 563 825 540 803 q 617 847 585 847 q 621 851 621 847 q 617 856 621 856 l 515 856 l 515 972 l 667 972 q 715 960 693 972 q 752 929 738 949 q 772 883 767 910 l 811 671 q 818 665 814 665 q 824 671 824 665 l 864 883 q 901 947 871 922 q 969 972 931 972 z "},"∂":{"ha":850,"x_min":50,"x_max":794,"o":"m 386 807 q 501 957 401 919 q 683 944 593 993 q 792 771 786 889 q 790 721 793 747 l 783 665 l 783 661 q 751 409 769 554 q 719 167 732 264 q 658 49 711 99 q 535 0 604 0 l 203 0 q 92 49 135 0 q 60 165 50 97 l 97 456 q 135 545 103 504 q 211 606 167 586 q 306 616 260 625 q 383 572 353 607 l 489 449 q 499 447 492 444 q 506 456 506 449 l 532 661 l 540 721 l 357 721 l 349 661 l 99 661 l 138 972 l 389 972 l 368 807 q 375 797 365 797 q 386 807 386 797 m 481 261 l 493 360 q 492 366 494 363 q 486 369 489 369 l 346 369 q 336 360 336 369 l 322 261 q 325 254 322 257 q 331 251 328 251 l 471 251 q 481 261 481 251 z "},"√":{"ha":826,"x_min":36,"x_max":803,"o":"m 553 972 l 803 972 l 521 1 l 413 1 l 246 0 l 36 661 l 201 661 l 339 233 l 553 972 z "},"∞":{"ha":1374,"x_min":54,"x_max":1319,"o":"m 1139 749 q 1266 697 1214 749 q 1318 569 1318 644 l 1318 403 q 1266 275 1318 328 q 1139 222 1214 222 l 586 222 l 586 353 q 578 361 586 361 q 571 353 571 361 q 532 261 571 300 q 440 222 493 222 l 235 222 q 107 275 160 222 q 54 403 54 328 l 54 569 q 107 697 54 644 q 235 749 160 749 l 788 749 l 788 618 q 796 610 788 610 q 801 618 801 610 q 840 710 801 672 q 933 749 879 749 l 1139 749 m 586 544 l 586 546 l 585 546 l 585 547 l 582 547 l 582 549 l 263 549 q 256 542 256 549 l 256 429 q 263 422 256 422 l 579 422 q 586 429 586 422 l 586 544 m 1119 469 l 1119 542 q 1111 549 1119 549 l 796 549 q 788 542 788 549 l 788 426 l 790 424 l 793 424 l 793 422 l 1111 422 q 1119 429 1119 422 l 1119 469 z "},"∫":{"ha":526,"x_min":-115,"x_max":504,"o":"m 379 967 q 467 930 431 967 q 503 840 503 893 q 486 778 503 807 q 441 731 469 749 q 379 714 413 714 q 374 715 375 714 l 374 714 l 328 714 q 317 704 319 714 l 317 -151 q 269 -267 317 -219 q 153 -315 221 -315 l 11 -315 q -78 -278 -40 -315 q -115 -192 -115 -242 q -78 -102 -115 -139 q 11 -65 -42 -65 l 57 -65 q 67 -56 67 -65 l 67 800 q 75 853 67 828 q 99 899 83 878 q 134 935 114 919 q 179 958 154 950 q 231 967 204 967 l 374 967 l 379 967 z "},"≈":{"ha":868,"x_min":58,"x_max":810,"o":"m 558 307 q 558 363 558 344 l 810 363 l 810 221 q 761 104 810 153 q 644 56 713 56 l 493 56 q 377 104 425 56 q 329 221 329 153 q 319 229 329 229 q 310 221 310 229 l 310 56 l 310 0 l 58 0 l 58 142 q 107 258 58 210 q 224 307 156 307 l 374 307 q 490 258 442 307 q 538 142 538 210 l 538 150 q 539 146 538 149 q 540 142 540 143 q 549 132 540 132 q 558 142 558 132 l 558 307 m 558 713 l 810 713 l 810 571 q 761 456 810 504 q 644 407 713 407 l 493 407 q 377 456 425 407 q 329 571 329 504 q 319 581 329 581 q 310 571 310 581 l 310 407 l 310 351 l 58 351 l 58 493 q 107 609 58 561 q 224 657 156 657 l 374 657 q 490 609 442 657 q 538 493 538 561 l 538 501 q 539 497 538 499 q 540 493 540 494 q 549 483 540 483 q 558 493 558 483 l 558 657 l 558 713 z "},"≠":{"ha":607,"x_min":56,"x_max":551,"o":"m 551 511 l 371 511 l 354 460 l 551 460 l 551 306 l 300 306 l 194 0 l 78 0 l 185 306 l 56 306 l 56 460 l 238 460 l 254 511 l 56 511 l 56 665 l 308 665 l 414 972 l 531 972 l 424 665 l 551 665 l 551 511 z "},"≤":{"ha":661,"x_min":54,"x_max":603,"o":"m 603 0 l 54 0 l 54 154 l 603 154 l 603 0 m 292 494 q 283 486 283 493 q 292 476 283 481 l 594 367 q 603 358 603 364 l 603 228 q 596 218 603 222 q 582 218 589 215 l 63 406 q 54 415 54 408 l 54 556 q 63 565 54 563 l 582 753 q 596 753 589 756 q 603 743 603 751 l 603 613 q 594 606 603 608 l 292 494 z "},"≥":{"ha":661,"x_min":57,"x_max":607,"o":"m 607 0 l 58 0 l 58 154 l 607 154 l 607 0 m 599 565 q 607 556 607 563 l 607 415 q 599 406 607 408 l 79 218 q 65 218 72 215 q 58 228 58 222 l 58 358 q 67 367 58 364 l 371 476 q 378 486 378 481 q 371 494 378 493 l 67 606 q 58 613 58 608 l 58 743 q 65 753 58 751 q 79 753 72 756 l 599 565 z "},"◊":{"ha":683,"x_min":50,"x_max":632,"o":"m 496 972 l 632 472 l 496 0 l 189 0 l 51 472 l 189 972 l 496 972 m 342 111 l 449 472 l 342 856 l 236 472 l 342 111 z "},"":{"ha":1685,"x_min":40,"x_max":1632,"o":"m 531 661 l 1113 661 l 1113 858 l 1346 917 q 1357 914 1351 918 q 1363 903 1363 910 l 1363 661 l 1631 661 l 1631 410 l 1147 410 q 1129 400 1129 410 l 1129 261 q 1139 251 1129 251 l 1631 251 l 1631 0 l 1043 0 q 952 28 993 0 q 892 98 911 57 q 881 188 874 139 q 926 272 889 236 l 1050 393 q 1053 404 1056 399 q 1043 410 1050 410 l 314 410 q 297 400 297 410 l 297 261 q 307 251 297 251 l 799 251 l 799 0 l 211 0 q 119 28 160 0 q 60 98 78 57 q 49 188 42 139 q 93 272 56 236 l 217 393 q 219 404 222 399 q 211 410 217 410 l 46 410 l 46 661 l 279 661 l 279 858 l 513 917 q 525 914 519 918 q 531 903 531 910 l 531 661 z "},"":{"ha":889,"x_min":51,"x_max":839,"o":"m 303 165 l 303 1 l 51 0 l 51 251 l 217 251 q 226 261 226 251 q 217 271 226 271 q 100 319 149 271 q 51 436 51 368 l 51 497 q 74 579 51 542 q 134 639 96 617 q 217 661 172 661 l 404 661 q 486 639 449 661 q 546 579 524 617 q 568 497 568 542 q 578 488 568 488 q 588 497 588 488 l 588 661 l 839 661 l 839 411 l 674 411 q 664 401 664 411 q 674 392 664 392 q 790 343 742 392 q 839 226 839 294 l 839 165 q 790 49 839 97 q 674 0 742 0 l 486 0 q 370 49 418 1 q 322 165 322 97 q 313 175 322 175 q 303 165 303 175 m 303 261 q 313 251 303 251 l 578 251 q 588 261 588 251 l 588 401 q 578 411 588 411 l 313 411 q 303 401 303 411 l 303 261 z "},"":{"ha":922,"x_min":50,"x_max":882,"o":"m 576 410 l 311 410 q 301 400 301 410 l 301 260 q 311 250 301 250 l 576 250 q 586 260 586 250 l 586 400 q 576 410 586 410 m 838 0 l 838 -147 q 801 -249 838 -204 q 710 -307 765 -294 q 672 -311 692 -311 l 50 -311 l 50 -61 l 576 -61 q 586 -51 586 -61 l 586 164 q 576 174 586 174 q 567 164 567 174 q 518 47 567 96 q 403 -1 469 -1 l 215 -1 q 99 47 147 -1 q 50 164 50 96 l 50 496 q 72 578 50 540 q 133 638 94 615 q 215 660 171 660 l 403 660 q 518 612 469 660 q 567 496 567 564 q 576 486 567 486 q 586 496 586 486 q 622 598 586 553 q 714 656 658 643 q 751 660 732 660 l 881 660 l 881 410 l 847 410 q 838 400 838 410 l 838 0 z "},"":{"ha":922,"x_min":50,"x_max":882,"o":"m 215 661 l 838 661 l 838 261 q 847 251 838 251 l 881 251 l 881 0 l 751 0 q 714 6 732 0 q 622 63 658 18 q 586 165 586 108 q 576 175 586 175 q 567 165 567 175 q 518 49 567 97 q 403 0 469 0 l 215 0 q 99 49 147 0 q 50 165 50 97 l 50 497 q 72 579 50 542 q 133 639 94 617 q 215 661 171 661 m 311 411 q 301 401 301 411 l 301 261 q 311 251 301 251 l 576 251 q 586 261 586 251 l 586 401 q 576 411 586 410 l 311 411 z "},"":{"ha":1007,"x_min":49,"x_max":969,"o":"m 104 536 q 153 653 104 604 q 269 701 201 701 q 279 711 279 701 q 269 721 279 721 l 49 721 l 49 971 l 722 971 q 739 971 729 971 q 807 954 774 968 q 913 867 874 928 q 947 731 951 806 q 890 597 943 656 l 919 629 l 797 492 q 795 481 793 488 q 804 475 797 475 q 924 419 881 475 q 968 286 968 364 l 968 250 q 897 75 968 149 q 729 0 826 1 l 539 0 q 423 48 471 0 q 375 164 375 96 q 365 174 375 174 q 356 164 356 174 q 307 48 356 96 q 190 0 258 0 l 49 0 l 49 250 l 94 250 q 104 260 104 250 l 104 536 m 356 538 l 356 260 q 365 250 356 250 l 707 250 q 718 260 718 250 l 718 363 q 707 374 718 374 l 539 374 q 424 422 472 374 q 375 538 375 469 q 370 547 375 544 q 360 547 365 549 q 356 538 356 544 m 707 721 l 365 721 q 356 710 356 721 l 356 607 q 365 597 356 597 l 707 597 q 718 607 718 597 l 718 710 q 707 721 718 721 z "},"":{"ha":1017,"x_min":44,"x_max":964,"o":"m 454 160 l 365 414 q 357 419 363 421 q 351 413 351 418 l 351 165 q 303 49 351 97 q 186 0 254 0 l 57 0 l 57 251 q 65 251 60 251 q 74 251 71 251 q 83 251 78 250 q 90 251 88 251 q 95 253 93 251 q 99 256 97 254 q 100 261 100 258 l 100 538 q 157 661 100 611 q 265 701 204 701 l 258 701 q 265 703 263 703 q 275 712 275 703 q 265 721 275 721 l 44 721 l 44 972 l 713 972 q 889 899 815 972 q 963 722 963 825 l 963 532 q 889 356 963 429 q 713 282 815 282 l 644 282 q 629 267 629 282 q 644 251 629 251 l 963 251 l 963 0 l 681 0 q 542 44 603 0 q 454 160 481 88 m 703 533 q 713 543 713 533 l 713 711 q 703 721 713 721 l 361 721 q 351 711 351 721 l 351 543 q 361 533 351 533 l 703 533 z "},"":{"ha":1025,"x_min":49,"x_max":968,"o":"m 415 725 q 447 792 428 760 q 584 924 499 876 q 768 971 669 971 l 967 971 l 967 721 l 768 721 q 661 661 697 721 q 650 641 656 653 q 640 617 644 629 q 630 591 635 606 q 621 564 625 576 q 612 538 617 551 q 604 517 607 525 q 607 508 603 511 q 615 508 611 506 l 693 557 q 756 581 722 575 q 788 583 771 583 q 914 531 861 583 q 967 404 967 478 l 967 0 l 717 0 q 717 324 717 0 q 707 333 717 333 l 365 333 q 356 324 356 333 l 356 165 q 307 49 356 97 q 190 0 258 0 l 49 0 l 49 251 l 94 251 l 104 257 q 104 263 104 257 l 104 536 q 153 653 104 604 q 269 701 201 701 q 279 711 279 701 q 269 721 279 721 l 49 721 l 49 971 l 356 971 l 356 604 q 361 597 356 599 q 369 601 367 596 l 390 661 l 415 725 z "},"":{"ha":1017,"x_min":46,"x_max":965,"o":"m 296 261 q 307 251 296 251 q 635 251 417 251 q 964 250 854 250 l 964 0 l 296 0 q 119 74 193 0 q 46 250 46 147 l 46 313 q 94 428 46 381 q 211 476 143 476 q 221 486 221 476 q 211 496 221 496 q 94 544 143 496 q 46 660 46 592 l 46 721 q 119 899 46 825 q 296 972 193 972 q 413 972 335 972 q 529 971 490 971 q 645 923 597 971 q 693 807 693 875 q 703 797 693 797 q 713 807 713 797 l 713 971 l 964 971 l 964 565 l 713 565 l 713 721 l 307 721 q 296 710 296 721 l 296 615 q 307 604 296 604 l 653 604 l 653 367 l 307 367 q 296 357 296 367 l 296 261 z "},"":{"ha":1015,"x_min":43,"x_max":963,"o":"m 710 971 l 961 971 l 961 565 l 710 565 l 710 721 l 303 721 q 293 713 294 721 q 299 700 292 704 l 629 571 l 692 547 l 811 500 q 842 486 828 493 q 929 403 897 457 q 961 286 961 350 l 961 257 q 885 76 961 151 q 704 0 810 0 l 43 0 l 43 250 l 701 250 q 711 259 710 250 q 706 271 713 268 l 375 400 l 314 425 l 193 472 q 163 486 178 478 q 113 521 136 500 q 75 567 90 542 q 51 623 60 593 q 43 685 43 653 l 43 714 q 119 896 43 821 q 300 971 194 971 l 528 971 q 642 923 594 971 q 690 807 690 875 q 700 797 690 797 q 710 807 710 797 l 710 971 z "},"":{"ha":1035,"x_min":47,"x_max":968,"o":"m 717 971 l 967 971 l 967 0 l 717 0 l 717 288 l 450 582 l 381 660 q 365 663 374 667 q 356 650 356 660 l 356 165 q 307 49 356 97 q 190 0 258 0 l 49 0 l 49 251 l 94 251 q 104 260 104 251 l 104 536 q 161 661 104 611 q 269 701 207 701 q 279 711 279 701 q 269 721 279 721 l 49 721 l 49 971 l 339 971 q 500 900 436 971 l 524 874 l 600 790 l 717 661 l 717 971 z "},"":{"ha":958,"x_min":38,"x_max":921,"o":"m 39 971 l 921 971 l 921 721 l 569 721 l 569 583 q 508 435 569 496 l 372 299 q 367 267 360 285 q 393 250 374 250 l 921 250 l 921 0 l 264 0 q 138 38 193 0 q 56 139 82 75 q 39 201 43 169 l 39 253 q 104 385 47 329 l 319 600 l 393 674 l 429 710 q 432 717 433 713 q 426 721 431 721 l 39 721 l 39 971 z "},"":{"ha":1371,"x_min":49,"x_max":1311,"o":"m 392 971 l 392 972 l 1060 971 q 1185 938 1128 971 q 1276 847 1243 904 q 1310 721 1310 789 l 1310 0 l 1060 0 l 1060 707 q 1046 721 1060 721 l 847 721 q 838 717 842 721 q 833 707 833 713 l 833 165 q 785 49 833 97 q 668 0 736 0 l 526 0 l 526 251 l 572 251 q 582 260 582 251 l 582 538 q 631 653 582 606 q 747 701 679 701 l 739 701 q 747 701 743 701 q 756 711 756 701 q 747 721 756 721 l 526 721 l 363 721 l 363 719 q 356 707 356 715 l 356 165 q 307 49 356 97 q 190 0 258 0 l 49 0 l 49 251 l 94 251 q 104 260 104 251 l 104 538 q 153 653 104 606 q 269 701 201 701 l 263 701 q 269 701 265 701 q 279 711 279 701 q 269 721 279 721 l 49 721 l 49 972 l 392 971 z "},"":{"ha":1026,"x_min":49,"x_max":967,"o":"m 701 721 l 369 721 q 360 717 364 721 q 356 707 356 713 l 356 165 q 307 49 356 97 q 190 0 258 0 l 49 0 l 49 251 l 94 251 q 104 260 104 251 l 104 538 q 153 653 104 606 q 269 701 201 701 l 263 701 q 269 701 265 701 q 279 711 279 701 q 269 721 279 721 l 49 721 l 49 972 l 717 971 q 842 938 785 971 q 933 847 900 904 q 967 721 967 789 l 967 0 l 717 0 l 717 707 q 715 714 717 711 q 709 719 713 717 q 701 721 706 721 z "},"":{"ha":1043,"x_min":57,"x_max":978,"o":"m 321 251 l 519 251 l 496 367 l 321 367 q 310 357 310 367 l 310 261 q 321 251 310 251 m 536 165 q 530 174 535 172 q 521 173 525 176 q 517 165 517 169 q 469 49 517 97 q 354 0 421 0 l 310 0 q 184 33 242 0 q 93 125 126 67 q 60 250 60 183 l 60 313 q 108 428 60 381 q 225 476 157 476 q 235 486 235 476 q 231 493 235 490 l 107 614 q 60 731 57 661 q 137 901 64 831 q 310 971 210 971 q 644 971 421 971 q 978 971 867 971 l 978 721 l 321 721 q 310 710 310 721 l 310 615 q 321 604 310 604 l 585 604 q 669 574 633 604 q 715 497 706 544 l 726 440 q 736 431 729 431 q 746 440 746 431 q 792 553 746 506 q 901 604 838 601 l 978 604 l 978 367 l 751 367 q 757 341 754 356 q 763 311 760 326 q 768 285 767 296 q 783 260 771 269 q 810 251 794 251 l 978 251 l 978 0 l 678 0 q 594 30 631 0 q 549 107 557 60 l 536 165 z "},"":{"ha":1085,"x_min":60,"x_max":1025,"o":"m 774 261 l 774 711 q 764 721 774 721 l 321 721 q 311 711 311 721 l 311 261 q 321 251 311 251 l 764 251 q 774 261 774 251 m 1024 165 q 992 68 1024 111 q 911 8 961 25 q 891 3 901 6 q 871 0 881 1 l 851 0 q 735 49 783 0 q 686 165 686 97 q 676 175 686 175 q 667 165 667 175 l 667 -151 l 417 -151 l 417 165 q 407 175 417 175 q 397 165 397 175 q 349 49 397 97 q 232 0 300 0 l 213 0 q 174 8 192 1 q 92 68 124 25 q 60 165 60 111 l 60 807 q 108 923 60 875 q 225 971 157 971 l 860 971 q 976 923 928 971 q 1024 807 1024 875 l 1024 165 z "}}}
